<svg id="Your_design" data-name="Your design" xmlns="http://www.w3.org/2000/svg" viewBox="0 0 512 512"><defs><style>.cls-1{fill:#d8eaea;}.cls-2{fill:#ffb300;}.cls-3{fill:#fff8e1;}.cls-4{fill:#26c6da;}.cls-5{fill:#5d7d84;}.cls-6,.cls-7{fill:none;stroke:#1d2b2d;stroke-width:4px;}.cls-6{stroke-miterlimit:10;}.cls-7{stroke-linecap:round;stroke-linejoin:round;}</style></defs><circle class="cls-1" cx="256" cy="256" r="230.62"/><path class="cls-2" d="M365.35,206.05a109.17,109.17,0,0,1-5.41,34c-.29.9-.6,1.78-.91,2.67q-1.42,4-3.13,7.79s0,0,0,0V238.41a12.53,12.53,0,0,0-12.53-12.53V206.05c-1.11-.29-2.2-.59-3.26-.91l-1.58-.48-1.55-.5-1.1-.37c-.58-.2-1.15-.4-1.71-.61l-1.42-.53c-1.19-.45-2.35-.93-3.47-1.42l-1.37-.61-1-.45c-.66-.31-1.3-.62-1.93-.94l-.19-.09-.57-.3-1.68-.89c-.74-.41-1.45-.82-2.16-1.23s-1.39-.84-2.06-1.26-1.33-.86-2-1.3c-.48-.33-1-.66-1.43-1s-.92-.67-1.37-1c-.6-.45-1.18-.91-1.75-1.37l-.91-.75-.76-.64-.41-.36-.57-.51-.61-.55-.87-.8c-.47-.45-.93-.9-1.37-1.35l-.18-.18-1.22-1.26h0l-.26-.27c-.34-.37-.67-.73-1-1.1l-.07-.08c0-.06-.11-.12-.16-.19l-.16-.18c-.32-.37-.63-.73-.93-1.1s-.65-.78-1-1.18a1.13,1.13,0,0,0-.1-.13l-.3-.39,0,0s0,0,0,0l-.79-1.05q-.4-.54-.78-1.08c-.13-.17-.25-.34-.37-.52l-.36-.53-.47-.7-.15-.22s0,0,0,0l-.33-.52c-.11-.16-.21-.33-.32-.5s-.18-.28-.26-.42-.15-.24-.22-.37l0,0-.34-.58-.26-.43-.39-.69-.07-.12c0-.06-.07-.13-.11-.2s-.05-.1-.08-.14l-.06-.12c-.1-.16-.18-.33-.27-.49l-.51-.95c-.37-.74-.73-1.46-1.06-2.17-.11-.23-.22-.45-.32-.68h0c-.21-.44-.4-.88-.59-1.31l-.09-.22c-.08-.18-.15-.37-.23-.55l-.22-.54c-.21-.53-.41-1-.6-1.55q-.42-1.14-.78-2.22c-.08-.24-.16-.47-.23-.71-.17-.52-.32-1-.46-1.51-.09-.32-.17-.63-.26-.93s-.11-.41-.16-.61l-.06-.21c0-.12-.06-.23-.08-.34a2.68,2.68,0,0,0-.07-.27c-.07-.28-.13-.55-.19-.81,0-.11-.05-.21-.07-.31l-.12-.53c0-.16-.07-.32-.1-.48v0l-.09-.46c-.16-.84-.28-1.57-.36-2.14,0-.1,0-.2,0-.3-.09-.69-.13-1.11-.14-1.23v0h0l7.14-45.78,1.91.76,1.88.79q2.82,1.23,5.56,2.59c.61.3,1.21.61,1.81.93s1.2.63,1.79,1c1.23.67,2.44,1.36,3.63,2.08.52.31,1,.62,1.53.94s1,.61,1.48.93,1,.66,1.53,1l.81.55c.36.24.72.48,1.07.73l1.05.75c.5.35,1,.72,1.5,1.1.95.7,1.89,1.41,2.81,2.14.45.36.9.72,1.34,1.09l.62.51c.12.1.24.19.35.3.44.36.88.73,1.31,1.11.66.57,1.31,1.15,2,1.74.3.27.61.55.91.84l.9.84a1.14,1.14,0,0,1,.11.11c.64.6,1.26,1.21,1.88,1.83s1.23,1.24,1.83,1.88c.31.31.61.63.9.95l.89,1,0,0c.58.64,1.15,1.28,1.71,1.93s1.14,1.33,1.7,2,1.1,1.35,1.65,2,1.07,1.38,1.6,2.09,1,1.41,1.54,2.12,1,1.44,1.5,2.16l.73,1.1.72,1.1c.42.66.83,1.32,1.24,2l.42.69c.35.58.69,1.17,1,1.76l.06.1c.39.67.76,1.34,1.14,2s.75,1.39,1.11,2.09c.53,1,1.06,2.08,1.56,3.14.18.35.34.71.51,1.08l.5,1.08c.36.79.7,1.58,1.05,2.38a2.34,2.34,0,0,0,.09.24c.32.76.63,1.52.93,2.29.16.42.33.83.49,1.25s.31.83.46,1.25q.93,2.5,1.72,5.08c.13.4.25.8.37,1.2s.21.7.31,1.06l.09.32c.11.38.22.75.32,1.13l.3,1.16c.21.79.41,1.58.59,2.37.28,1.14.53,2.29.76,3.45q.13.61.24,1.23c.08.41.15.82.23,1.24,0,.07,0,.14,0,.21l.27,1.6c.05.28.09.56.13.84,0,.1,0,.2.05.31.1.65.19,1.31.27,2,.05.33.09.67.13,1s.11.9.16,1.36.09.79.13,1.19a.49.49,0,0,0,0,.12c.07.78.14,1.56.2,2.34s.11,1.53.15,2.3c0,.3,0,.6,0,.9l.06,1.15,0,1.24c0,.39,0,.77,0,1.16C365.35,204.94,365.35,205.5,365.35,206.05Z"/><path class="cls-2" d="M295.58,104.09h0l-7.14,45.78h0v0c-.05.09-.19.4-.44.89,0,0,0,0,0,0l-.21.39s0,0,0,0-.07.12-.1.19c-.39.69-.91,1.59-1.6,2.68l-.48.73a1.88,1.88,0,0,1-.12.18l-.84,1.24-.15.22-.64.88-.69.93c-.65.86-1.37,1.78-2.16,2.74q-.23.28-.48.57l-.33.4c-.2.24-.4.48-.62.72l-.13.15c-.05.07-.11.13-.17.2l-.09.1a2.19,2.19,0,0,1-.21.23l-.84.93-.88.95q-1.2,1.28-2.55,2.61c-.6.59-1.23,1.19-1.88,1.8l-.92.85a.46.46,0,0,0-.07.07l-.45.4-.58.52-.12.1-.89.78h0s0,0,0,0l-.65.55-.45.39-.31.25-.31.26-.52.43,0,0-.5.4-.4.33-.06,0-.18.15-.57.44-.65.51h0l-1.21.92,0,0-1.3,1h0l-1.29.92-1,.72-.93.64-.08,0-.22.16-.43.28-.14.1-1.25.82-.12.08-.09.06-1.06.67-.45.29-.72.44-.74.46-.09.06-.11.06-.62.37-.56.34-.3.18-.87.5-.77.45-.69.38-.94.53-.05,0-1.18.64-.55.3-.71.37-1.06.56-1.53.77-.29.15-1.19.58-.67.33-1,.45-1,.45c-1.29.6-2.61,1.19-4,1.78s-2.74,1.16-4.16,1.72-2.87,1.12-4.35,1.67-3,1.09-4.57,1.61q-3.5,1.19-7.22,2.28c-1.66.48-3.36,1-5.09,1.42l-2.12.55-.25.06-.25.07-1.83.45-.85.21-2.73.63-2.21.48-1.57.33c-.74.16-1.49.31-2.24.45l-2.51.48c-1,.19-2,.36-3,.53l-1.5.25c-1,.18-2,.34-3,.49l-1.55.24c-2.06.3-4.17.59-6.32.85l-1.62.19-1.59.19-1.61.17-1.74.18-3.37.32v16.94a12.53,12.53,0,0,0-12.53,12.53v12.17s0,0,0,0A109.38,109.38,0,0,1,256,96.7c.94,0,1.88,0,2.82,0q1.8,0,3.57.15c.61,0,1.22.07,1.82.12s1.43.11,2.13.18c.86.08,1.7.17,2.55.27.64.07,1.28.15,1.91.24.38,0,.76.1,1.14.16l1.75.27.48.08c.71.12,1.42.24,2.12.38a1.28,1.28,0,0,1,.27,0c.78.15,1.56.3,2.33.47s1.64.35,2.45.55,1.63.39,2.43.6,1.88.5,2.81.78c1.15.33,2.3.69,3.43,1.06Q292.83,103,295.58,104.09Z"/><path class="cls-2" d="M201.37,343v16.51h0l-6.47,2.17-1.62.55h0l-.35,9.32,0,.77,0,.54-.1,2.61-.27,7.25h-71.4c2.17-50.76,15-96.76,35-132.12v16.46a9.27,9.27,0,0,0,9.26,9.26h3.28V292c0,1,0,2.05.09,3.07,0,.2,0,.42,0,.63s0,.64.08,1,.05.63.09.95c0,.14,0,.27,0,.41,0,.29.06.57.1.85.2,1.55.46,3.08.79,4.59.22,1,.47,2.06.75,3.07.4,1.4.84,2.79,1.35,4.15q.17.48.36,1c.34.88.71,1.76,1.1,2.62.22.49.44,1,.68,1.45.47,1,1,1.94,1.52,2.89.23.42.46.82.7,1.23l.08.13q1.29,2.11,2.73,4.1l.69.9c.13.18.27.36.41.53.29.38.6.76.91,1.13s.7.84,1.06,1.25l.4.44.54.59,0,0c.41.44.82.87,1.24,1.29s.58.58.88.86l.3.3a.43.43,0,0,1,.1.09l.5.46.61.56.08.07.71.62.07.05.7.58c.21.19.43.37.65.54l.27.21.15.12c.18.15.37.29.56.43l.33.25.16.12.17.13,1.36,1,5.05,3.48,1.61,1.1Z"/><path class="cls-2" d="M390.91,382.75H319.55l-.77-20.49-8.09-2.72v23.21h-.06V343l2.67-1.84,1.61-1.1,5-3.48,1.36-1,.17-.13,1.05-.8.15-.12.27-.21c.22-.17.44-.35.65-.54l.7-.58.07-.05.71-.62.08-.07.61-.56.5-.46.1-.09.3-.3c.3-.28.59-.57.88-.86s.83-.85,1.24-1.29l1-1.08c.72-.82,1.41-1.66,2.08-2.52.32-.4.63-.81.94-1.23l.36-.5.54-.77c.66-.94,1.28-1.91,1.88-2.89.26-.45.53-.9.78-1.36.54-.95,1.05-1.91,1.52-2.89.24-.48.46-1,.68-1.45.39-.86.76-1.74,1.1-2.62q.19-.48.36-1c.31-.82.59-1.65.85-2.49.17-.52.32-1,.47-1.56a.19.19,0,0,1,0-.1c.28-1,.53-2,.75-3.07.09-.39.17-.79.25-1.19,0-.24.09-.48.13-.71l.06-.38.15-.86c0-.1,0-.19,0-.29.06-.39.11-.77.16-1.16s.07-.57.1-.85,0-.27,0-.41c0-.32.07-.64.09-.95a1.64,1.64,0,0,0,0-.22,2,2,0,0,0,0-.34l0-.41c0-.21,0-.42,0-.63,0-.47.05-.93.06-1.4s0-1.11,0-1.67V276.35h3.28a9.27,9.27,0,0,0,9.26-9.26V250.63C375.86,286,388.74,332,390.91,382.75Z"/><path class="cls-3" d="M340.1,205.14l-1.58-.48-1.55-.5-1.1-.37c-.58-.2-1.15-.4-1.71-.61l-1.42-.53c-1.19-.45-2.35-.93-3.47-1.42l-1.37-.61-1-.45c-.66-.31-1.3-.62-1.93-.94l-.09,0-.1,0h0l-.57-.29-1.68-.89c-.74-.41-1.45-.82-2.16-1.23s-1.39-.83-2.06-1.26-1.33-.86-2-1.3c-.48-.33-1-.66-1.43-1s-.92-.67-1.37-1c-.6-.45-1.18-.91-1.75-1.37l-.91-.75-.76-.64h0l-.41-.35-.57-.51-.61-.55-.87-.8c-.47-.45-.93-.9-1.37-1.35l-.18-.18c-.42-.42-.82-.84-1.22-1.26h0l-.26-.27c-.33-.37-.67-.73-1-1.1l-.07-.08c0-.06-.11-.12-.16-.19l-.16-.18c-.32-.37-.63-.73-.93-1.1s-.65-.78-1-1.18a1.13,1.13,0,0,0-.1-.13l-.3-.39,0,0s0,0,0,0l-.79-1.05q-.4-.54-.78-1.08-.25-.35-.48-.69l-.25-.36-.47-.7-.1-.16-.05-.07-.33-.52c-.11-.16-.21-.33-.32-.5l-.21-.36-.05-.06c-.08-.12-.15-.24-.22-.37l0,0-.34-.58-.26-.43-.39-.69-.07-.12c0-.06-.07-.13-.11-.2s-.05-.1-.08-.14l-.06-.12c-.1-.16-.18-.33-.27-.49-.18-.32-.35-.64-.51-.95-.37-.74-.73-1.46-1.06-2.17-.11-.23-.22-.45-.32-.68h0c-.21-.44-.4-.88-.59-1.31l-.09-.22c-.08-.19-.15-.37-.23-.55l-.22-.54c-.21-.53-.41-1-.6-1.55q-.42-1.14-.78-2.22c-.08-.24-.16-.48-.23-.71-.17-.52-.32-1-.46-1.51-.09-.32-.17-.63-.26-.93s-.11-.41-.16-.61l-.06-.21c0-.12-.06-.23-.08-.34a2.68,2.68,0,0,0-.07-.27c-.07-.28-.13-.55-.19-.81,0-.11-.05-.21-.07-.31l-.15-.7c0-.11,0-.22-.07-.33l-.09-.46c-.16-.84-.28-1.57-.36-2.14,0-.1,0-.2,0-.3-.09-.69-.13-1.11-.14-1.23h0l-.1.19-.08.19-.26.52-.21.39c-.39.71-.95,1.69-1.71,2.89l-.48.73a1.88,1.88,0,0,1-.12.18l-.84,1.24c-.15.21-.3.43-.47.65-.31.44-.65.9-1,1.38-.65.86-1.37,1.78-2.16,2.74q-.23.28-.48.57l-.76.89-.18.22-.61.69-.84.93-.88.95q-1.2,1.28-2.55,2.61c-.6.6-1.23,1.2-1.88,1.8l-.92.85-.07.06h0l-.45.4-.58.51h0l-.12.1-.89.78h-.06l-.65.55-.45.38h0l-.31.25-.31.26-.52.42h0l0,0-.5.4-.4.33-.06,0-.18.14h0l-.57.44-.65.5h0l-1.21.92,0,0h0l-1.3.95h0c-1.07.77-2.18,1.55-3.33,2.33l-.22.16-.43.28-.14.09h0l-1.25.82-.12.08-.09.05h0l-1.06.67-.45.28h0l-.72.44-.74.46-.09,0h0l-.11.06-.62.37-.56.34-.3.17h0l-.87.5-.77.44h0l-.69.38-.94.53-.05,0h0l-1.18.64c-.18.1-.36.2-.55.29h0l-.71.37-1.06.55h0l-1.53.77-.29.14h0l-1.19.58-.67.32h0l-1,.45c-1,.45-1.93.9-2.92,1.34l-2,.89c-1.35.58-2.74,1.16-4.16,1.72s-2.87,1.13-4.35,1.67-3,1.09-4.57,1.61q-3.5,1.19-7.22,2.28c-1.66.48-3.36,1-5.09,1.42l-2.12.55-.25.06-.25.06h0l-1.83.45-.85.2h0l-2.73.63-2.21.48-.58.12-1,.21-1.85.37-2.9.56-3,.53-1.5.25c-1,.18-2,.34-3,.49l-1.55.24c-2.06.3-4.17.59-6.32.85l-1.62.19-1.6.19a0,0,0,0,0,0,0l-1.57.17-1.74.18-3.37.32V292c0,1,0,2.05.09,3.07,0,.21,0,.42,0,.63s0,.64.08,1,.05.63.09.95c0,.14,0,.27,0,.41s.06.57.1.85c.2,1.55.46,3.08.79,4.59.22,1,.47,2.06.75,3.07.4,1.4.84,2.79,1.35,4.15q.17.48.36,1c.34.88.71,1.76,1.1,2.62.22.49.44,1,.68,1.45.47,1,1,1.94,1.52,2.89.25.46.52.91.78,1.36q1.29,2.11,2.73,4.1l.69.9c.13.18.27.36.41.53.29.38.6.76.91,1.13s.7.84,1.06,1.25l1,1.08c.41.44.82.87,1.24,1.29s.58.58.88.86l.19.19.11.1h0l.1.09.5.46.61.55h0l.08.07.71.62.07.05.7.58c.21.19.43.37.65.54l.27.21.15.12,1,.8.17.12h0l1.36,1,5.05,3.48,1.61,1.1,2.67,1.84v0l23.84,16.45c.44.3.88.6,1.32.87a1.43,1.43,0,0,0,.22.15.92.92,0,0,0,.21.13,0,0,0,0,1,0,0c.41.26.82.52,1.24.76l.54.32a3.37,3.37,0,0,0,.32.19c.5.29,1,.56,1.5.83s1,.51,1.47.74l.15.08.41.2c.18.09.37.18.57.26l.57.27.08,0h0l.3.13.63.28h0l1.19.49c.25.11.5.2.75.29.47.18.95.36,1.44.53s1,.33,1.45.48l.71.22c.69.22,1.39.41,2.1.59.48.13,1,.25,1.43.36h0c.48.11,1,.21,1.45.3l.42.09.24.05H246l.13,0,.41.07c.33.07.66.13,1,.17h0c.26.05.52.08.78.11a.51.51,0,0,0,.17,0c.42.06.84.12,1.26.16l.46.05c.48.06,1,.1,1.46.14l.39,0c.62.05,1.25.08,1.87.1s1.35,0,2,0,1.34,0,2,0,1.25-.05,1.87-.1l.39,0c.49,0,1-.08,1.46-.14l.46-.05c.42,0,.84-.1,1.26-.16a.51.51,0,0,0,.17,0c.26,0,.52-.06.78-.11h0c.33,0,.66-.1,1-.17l.41-.07.13,0H266l.24-.05.42-.09c.48-.09,1-.19,1.45-.3h0c.48-.11.95-.23,1.43-.36.71-.18,1.41-.37,2.1-.59l.71-.22c.48-.15,1-.31,1.45-.48s1-.35,1.44-.53c.25-.09.5-.18.75-.29l1.19-.49h0l.45-.19.46-.21h0l.08,0,.57-.27c.2-.08.39-.17.57-.26l.41-.2.15-.08c.49-.23,1-.48,1.47-.74s1-.54,1.5-.83a3.37,3.37,0,0,0,.32-.19l.54-.32c.42-.24.83-.5,1.24-.76a0,0,0,0,1,0,0,.92.92,0,0,0,.21-.13,1.43,1.43,0,0,0,.22-.15c.44-.27.88-.57,1.32-.87l23.84-16.45v0l2.67-1.84,1.61-1.1,5-3.48,1.36-1h0l.17-.12,1.05-.8.15-.12.27-.21c.22-.17.44-.35.65-.54l.7-.58.07-.05.71-.62.08-.07h0l.61-.55.5-.46.1-.09h0l.11-.1.19-.19c.3-.28.59-.57.88-.86s.83-.85,1.24-1.29l1-1.08c.72-.82,1.41-1.66,2.08-2.52.32-.4.63-.81.94-1.23l.36-.5.54-.77c.66-.94,1.28-1.91,1.88-2.89.26-.45.53-.9.78-1.36.54-.95,1.05-1.91,1.52-2.89.24-.48.46-1,.68-1.45.39-.86.76-1.74,1.1-2.62q.19-.48.36-1c.31-.82.59-1.65.85-2.49.16-.52.32-1,.47-1.56a.19.19,0,0,1,0-.1c.28-1,.53-2,.75-3.07.17-.75.31-1.51.44-2.28.07-.38.13-.77.19-1.15s.11-.77.16-1.16.07-.57.1-.85,0-.27,0-.41c0-.32.07-.64.09-.95a1.64,1.64,0,0,0,0-.22,2,2,0,0,0,0-.34l0-.41c0-.21,0-.42,0-.63,0-.47.05-.93.06-1.4s0-1.11,0-1.67V206.05C342.25,205.76,341.16,205.46,340.1,205.14Zm-130.54,20a5,5,0,0,1,.1-.66s0,0,0,0a0,0,0,0,1,0,0v0a2.81,2.81,0,0,1,.12-.48s0,0,0,0l0-.09s0,0,0-.06a0,0,0,0,0,0,0,3,3,0,0,1,.17-.47,1.22,1.22,0,0,1,.07-.17s0,0,0,0a.61.61,0,0,1,.05-.12,3.54,3.54,0,0,1,.16-.34l.05-.09,0-.05c.08-.15.17-.29.26-.44l0,0a1.3,1.3,0,0,0,.1-.15q.18-.25.39-.51h0a2.61,2.61,0,0,1,.23-.25l0,0,.18-.19a7.13,7.13,0,0,1,5.06-2.09l.51,0h.38a.17.17,0,0,1,.12,0s0,0,0,0a0,0,0,0,1,.06,0s0,0,0,0a1.06,1.06,0,0,1,.31,0h.07s0,0,0,0l.24.06s0,0,.05,0l.31.08a.34.34,0,0,1,.14.05s0,0,0,0a.11.11,0,0,1,.07,0,.25.25,0,0,1,.11,0,0,0,0,0,1,.05,0,1.42,1.42,0,0,1,.36.14,5.12,5.12,0,0,1,.53.25h0a3,3,0,0,1,.38.23l.08,0,.12.08.08,0,.25.19a.18.18,0,0,1,.07.05l.15.11h0l0,0a3.8,3.8,0,0,1,.37.33l.1.1a7.15,7.15,0,0,1,0,10.1,7.5,7.5,0,0,1-1.06.88,4,4,0,0,1-.44.27h0l-.26.14-.17.09-.16.07-.22.1a2.08,2.08,0,0,1-.32.12l-.4.13a3.53,3.53,0,0,1-.56.14h0a.76.76,0,0,1-.16,0,5,5,0,0,1-.54.08h0a5.22,5.22,0,0,1-.69,0h0a5.07,5.07,0,0,1-.68,0h-.05c-.23,0-.45-.06-.67-.1h0a5.2,5.2,0,0,1-.68-.17,4.09,4.09,0,0,1-.49-.18,3.48,3.48,0,0,1-.48-.21l-.44-.23-.46-.28a7.5,7.5,0,0,1-1.06-.88l-.18-.19a.32.32,0,0,1-.08-.09.75.75,0,0,1-.12-.14l-.08-.09c-.15-.17-.28-.36-.41-.54h0l-.07-.11c-.11-.16-.2-.32-.3-.48a6.8,6.8,0,0,1-.53-1.27,2.81,2.81,0,0,1-.08-.31.27.27,0,0,1,0-.12.08.08,0,0,1,0-.08.75.75,0,0,1,0-.16v0h0a0,0,0,0,1,0,0v0a4.55,4.55,0,0,1-.1-.66,6.68,6.68,0,0,1,0-1.46Zm75.77,7.17-.17-.09-.26-.14h0a4,4,0,0,1-.44-.27,7.5,7.5,0,0,1-1.06-.88,6,6,0,0,1-.42-.46l0-.05a4,4,0,0,1-.31-.41,3.62,3.62,0,0,1-.22-.32c-.09-.13-.17-.27-.25-.41a6.8,6.8,0,0,1-.53-1.27,2.81,2.81,0,0,1-.08-.31.27.27,0,0,1,0-.12.08.08,0,0,1,0-.08.75.75,0,0,1,0-.16v0h0a0,0,0,0,1,0,0v0a4.55,4.55,0,0,1-.1-.66,6.68,6.68,0,0,1,0-1.46,5,5,0,0,1,.1-.66s0,0,0,0a0,0,0,0,1,0,0v0a2.81,2.81,0,0,1,.12-.48s0,0,0,0l0-.09s0,0,0-.06a0,0,0,0,0,0,0,3,3,0,0,1,.17-.47,1.22,1.22,0,0,1,.07-.17s0,0,0,0a.61.61,0,0,1,.05-.12,3.54,3.54,0,0,1,.16-.34l.05-.09,0-.05c.08-.15.17-.29.26-.44l0,0a1.3,1.3,0,0,0,.1-.15q.18-.25.39-.51h0c.14-.17.29-.33.45-.49a7,7,0,0,1,2.27-1.53,0,0,0,0,1,0,0,4.09,4.09,0,0,1,.49-.18l.16-.05h0l.2-.05a3.59,3.59,0,0,1,.47-.12,1.12,1.12,0,0,1,.31,0s0,0,0,0a0,0,0,0,1,.06,0h.08s0,0,0,0a2.5,2.5,0,0,1,.55-.05h.36a7.14,7.14,0,0,1,5.05,12.19,7.5,7.5,0,0,1-1.06.88,4.34,4.34,0,0,1-.46.28l-.44.23a3.48,3.48,0,0,1-.48.21,4.09,4.09,0,0,1-.49.18,5.2,5.2,0,0,1-.68.17,5.52,5.52,0,0,1-.71.11,6.68,6.68,0,0,1-1.46,0,5.52,5.52,0,0,1-.71-.11,5.78,5.78,0,0,1-.69-.17,6.32,6.32,0,0,1-.82-.32Z"/><path class="cls-3" d="M310.69,382.75v5.73l-9,57.85-.05.32q-48.56-14.61-91.17,0l-9.07-58.17V343.05l23.84,16.45c.44.3.88.6,1.32.87a1.43,1.43,0,0,0,.22.15,1.64,1.64,0,0,0,.22.14c.41.26.82.52,1.24.76s.57.35.86.51c.5.29,1,.56,1.5.83s1.07.56,1.62.82l.41.2a3.82,3.82,0,0,0,.46.21c.22.12.45.22.68.32a.21.21,0,0,0,.1,0c.34.17.68.31,1,.45l.06,0,.87.36.07,0,.84.32c.92.36,1.86.69,2.8,1a7.41,7.41,0,0,0,.8.25,2.64,2.64,0,0,0,.4.12,6.32,6.32,0,0,0,.62.18l.17.05.14,0a.07.07,0,0,0,.06,0,3,3,0,0,0,.4.11c1.16.32,2.32.58,3.49.8a5.1,5.1,0,0,0,.68.13c.7.14,1.4.25,2.1.34.48.08.95.14,1.43.19l.46.05c.48.06,1,.1,1.46.14l.39,0c.62.05,1.25.08,1.87.1s1.35,0,2,0,1.34,0,2,0,1.25-.05,1.87-.1l.39,0c.49,0,1-.08,1.46-.14l.46-.05c.48-.05.95-.11,1.43-.19.7-.09,1.4-.2,2.1-.34a5.1,5.1,0,0,0,.68-.13c1.17-.22,2.33-.48,3.49-.8a3,3,0,0,0,.4-.11.07.07,0,0,0,.06,0l.14,0,.17-.05a6.32,6.32,0,0,0,.62-.18,2.64,2.64,0,0,0,.4-.12,7.41,7.41,0,0,0,.8-.25c.94-.29,1.88-.62,2.8-1l.84-.32.07,0,.87-.36.06,0c.35-.14.69-.28,1-.45a.21.21,0,0,0,.1,0c.23-.1.46-.2.68-.32a3.82,3.82,0,0,0,.46-.21l.41-.2c.55-.26,1.09-.53,1.62-.82s1-.54,1.5-.83c.29-.16.58-.33.86-.51s.83-.5,1.24-.76a1.64,1.64,0,0,0,.22-.14,1.43,1.43,0,0,0,.22-.15c.44-.27.88-.57,1.32-.87l23.84-16.45v39.7Z"/><path class="cls-3" d="M156.1,250.62h0v-12.2a12.53,12.53,0,0,1,12.53-12.53v50.47h-3.28a9.27,9.27,0,0,1-9.26-9.26Z"/><path class="cls-3" d="M355.9,267.09a9.27,9.27,0,0,1-9.26,9.26h-3.28V225.88a12.53,12.53,0,0,1,12.53,12.53v12.2h0Z"/><path class="cls-4" d="M301.61,446.65l-5.7,36.54a233.28,233.28,0,0,1-79.77,0l-5.7-36.55c2.57-.88,5.15-1.68,7.76-2.4.86-.24,1.73-.48,2.6-.7L223,443c1.05-.26,2.11-.49,3.16-.72l1.47-.3,1.6-.31,2.36-.43L233,441c.55-.09,1.1-.18,1.65-.25l2.4-.33,2.31-.27c.84-.1,1.68-.18,2.53-.25l.4,0,1.6-.13c.53-.05,1.06-.09,1.6-.11l1.67-.1.46,0,2.54-.1h.13l2.67-.05,1.81,0q3.06,0,6.15.15c1.69.07,3.38.17,5.08.31q4.82.38,9.69,1.07l2.08.31q5.94.92,12,2.3,2.89.67,5.82,1.45C297.57,445.47,299.59,446,301.61,446.65Z"/><path class="cls-5" d="M347.82,432.64l-.06,1.1c-.05.77-.13,1.53-.24,2.29s-.24,1.52-.41,2.28-.35,1.51-.58,2.26l-.24.81c-.31,1-.66,1.9-1.06,2.84-.24.56-.5,1.12-.77,1.67s-.68,1.3-1,1.94l-16.08,27.55a227.91,227.91,0,0,1-31.42,7.81l5.7-36.54.05-.33,9-57.84V359.54l8.09,2.72.77,20.49.15,3.77L340,410.31a32.62,32.62,0,0,1,5.84,10c.16.45.32.9.46,1.35.25.79.47,1.6.66,2.4a32.93,32.93,0,0,1,.82,8.59Z"/><path class="cls-5" d="M216.14,483.2a228.11,228.11,0,0,1-31.41-7.8l-16.1-27.57A32.52,32.52,0,0,1,172,410.31l20.34-23.79.15-3.77.27-7.25.1-2.61,0-.54.38-10.09h0l1.62-.55,6.47-2.17h0v28.94l9.07,58.17Z"/><path class="cls-5" d="M431.23,403.57c.33.4.66.81,1,1.23a230.86,230.86,0,0,1-104.88,70.58l16.08-27.55c.37-.64.72-1.29,1-1.94s.53-1.11.77-1.67c.4-.94.75-1.88,1.06-2.84l.24-.81c.23-.75.42-1.5.58-2.26s.31-1.52.41-2.28.19-1.52.24-2.29c0-.37,0-.73.06-1.1a32.29,32.29,0,0,0-.19-4.92,32.72,32.72,0,0,0-.63-3.67c-.19-.8-.41-1.61-.66-2.4-.14-.45-.3-.9-.46-1.35a32.62,32.62,0,0,0-5.84-10L319.7,386.52l-.15-3.77h67.68c1.11,0,2.2,0,3.3.1a4.19,4.19,0,0,1,.5,0l.58,0,1.08.09,1.46.16c.5.06,1,.12,1.49.2s1.1.17,1.64.27l1.22.23.23.05c.38.07.75.15,1.13.24.64.14,1.28.3,1.91.47l.6.16c.24.07.49.13.73.21l.88.26c.76.23,1.51.48,2.26.75l1.09.4,1.14.44,1.29.54q.75.32,1.47.66l1.45.7c.48.24.95.49,1.42.74.94.51,1.86,1,2.77,1.59s1.8,1.13,2.68,1.74l1,.72,0,0c.46.34.92.68,1.37,1l.37.28c.34.27.68.54,1,.82l1.21,1c.81.69,1.59,1.41,2.34,2.15l1,1C429.07,401.05,430.17,402.29,431.23,403.57Z"/><path class="cls-5" d="M172,410.31a32.52,32.52,0,0,0-3.37,37.52l16.1,27.57h0A230.93,230.93,0,0,1,79.81,404.83l0,0a56.83,56.83,0,0,1,45-22.05h67.72l-.15,3.77Z"/><path class="cls-5" d="M223.82,225.88a7.15,7.15,0,1,1-7.14-7.14A7.15,7.15,0,0,1,223.82,225.88Z"/><path class="cls-5" d="M295.58,225.88a7.15,7.15,0,1,1-7.14-7.14A7.15,7.15,0,0,1,295.58,225.88Z"/><polyline class="cls-6" points="168.64 208.93 168.64 208.94 168.64 225.88"/><line class="cls-6" x1="343.36" y1="225.88" x2="343.36" y2="206.05"/><path class="cls-6" d="M343.36,276.35V292c0,.56,0,1.11,0,1.67s0,.93-.06,1.4c0,.21,0,.42,0,.63l0,.41c0,.11,0,.23,0,.34a1.64,1.64,0,0,1,0,.22c0,.31,0,.63-.09.95,0,.14,0,.27,0,.41s-.06.57-.1.85-.1.77-.16,1.16-.12.77-.19,1.15c-.13.77-.27,1.53-.44,2.28-.22,1-.47,2.06-.75,3.07a.19.19,0,0,0,0,.1c-.15.52-.31,1-.47,1.56-.26.84-.54,1.67-.85,2.49q-.16.48-.36,1c-.34.88-.71,1.76-1.1,2.62-.22.49-.44,1-.68,1.45-.47,1-1,1.94-1.52,2.89-.25.46-.52.91-.78,1.36-.6,1-1.22,1.95-1.88,2.89l-.54.77-.36.5c-.31.42-.62.83-.94,1.23-.67.86-1.36,1.7-2.08,2.52l-1,1.08c-.41.44-.82.87-1.24,1.29s-.58.58-.88.86l-.19.19-.11.1h0l-.1.09-.5.46-.61.55-.86.75-.7.58-.92.75-.15.12-1.05.8-.17.12-1.36,1-5,3.49-1.61,1.1L310.63,343l-23.84,16.45c-.44.3-.88.6-1.32.88l-.43.28a0,0,0,0,0,0,0c-.59.37-1.18.73-1.78,1.08s-1.21.69-1.82,1-1,.51-1.47.74l-.15.08-.41.2c-.18.09-.37.18-.57.26l-.57.27-.08,0h0l-.46.21-.45.19h0l-1.19.49c-.25.11-.5.2-.75.29-.47.18-1,.36-1.44.53s-1,.33-1.45.48l-.71.22c-.69.22-1.39.41-2.1.59-.48.13-.95.25-1.43.36h0l-.25.06-.17,0-1,.2-.42.09-.24.05H266l-.13,0-.41.07c-.33.07-.66.13-1,.17h0c-.26.05-.52.08-.78.11a.51.51,0,0,1-.17,0c-.42.06-.84.12-1.26.16l-.46.05c-.48.06-1,.1-1.46.14l-.39,0c-.62.05-1.25.08-1.87.1s-1.35,0-2,0-1.34,0-2,0-1.25-.05-1.87-.1l-.39,0c-.49,0-1-.08-1.46-.14l-.46-.05c-.42,0-.84-.1-1.26-.16a.51.51,0,0,1-.17,0c-.26,0-.52-.06-.78-.11h0c-.33,0-.66-.1-1-.17l-.41-.07-.13,0H246l-.24-.05-.42-.09-1-.2-.18,0-.25-.06h0c-.48-.11-1-.23-1.43-.36-.71-.18-1.41-.37-2.1-.59l-.71-.22c-.48-.15-1-.31-1.45-.48s-1-.35-1.44-.53c-.25-.09-.5-.18-.75-.29l-1.19-.49h0l-.63-.28-.3-.13h0l-.08,0-.57-.27c-.2-.08-.39-.17-.57-.26l-.41-.2-.15-.08c-.49-.23-1-.48-1.47-.74s-1.22-.67-1.82-1-1.19-.71-1.78-1.08a0,0,0,0,0,0,0l-.43-.28c-.44-.28-.88-.58-1.32-.88L201.37,343l-2.67-1.85-1.61-1.1L192,336.6l-1.36-1-.17-.12-1-.8-.15-.12-.92-.75-.7-.58-.86-.75-.61-.55-.5-.46-.1-.09h0l-.11-.1-.19-.19c-.3-.28-.59-.57-.88-.86s-.83-.85-1.24-1.29l-1-1.08c-.36-.41-.71-.83-1.06-1.25s-.62-.75-.91-1.13c-.14-.17-.28-.35-.41-.53l-.69-.9q-1.44-2-2.73-4.1c-.26-.45-.53-.9-.78-1.36-.54-.95-1-1.91-1.52-2.89-.24-.48-.46-1-.68-1.45-.39-.86-.76-1.74-1.1-2.62q-.2-.48-.36-1c-.51-1.36-.95-2.75-1.35-4.15-.28-1-.53-2-.75-3.07-.33-1.51-.59-3-.79-4.59,0-.28-.07-.57-.1-.85s0-.27,0-.41c0-.32-.07-.64-.09-.95s-.06-.65-.08-1,0-.42,0-.63c-.06-1-.09-2-.09-3.07V276.35"/><path class="cls-7" d="M168.64,208.93c72.55-6.38,103.44-35.93,114.51-50.66a47.34,47.34,0,0,0,5.29-8.39,52.74,52.74,0,0,0,3.81,14.66c5.5,13.65,18.87,33.12,51.11,41.51"/><path class="cls-6" d="M251.8,242c0,44.67-14.06,36.45-10.65,47.17,1,3.17,8.85,7.29,12.39,7,2.21-.19,7.81-4.21,7.81-4.21"/><path class="cls-6" d="M230.05,311.65s21.53,16.94,49.14,0"/><path class="cls-6" d="M241.15,234.93c-.89-11.08-6.61-19.65-49-17.87"/><circle class="cls-6" cx="216.67" cy="225.88" r="7.15"/><path class="cls-6" d="M265.87,234.93c.89-11.08,6.61-19.65,49-17.87"/><circle class="cls-6" cx="288.44" cy="225.88" r="7.15"/><path class="cls-6" d="M243.37,326.8s13.35,3.48,22.5,0"/><path class="cls-7" d="M156.11,250.58s0,0,0,0A109.38,109.38,0,0,1,256,96.7c.94,0,1.88,0,2.82,0q1.8,0,3.57.15c.61,0,1.22.07,1.82.12s1.43.11,2.13.18q1.29.11,2.55.27c.64.07,1.28.15,1.91.24.38,0,.76.1,1.14.16.59.08,1.17.17,1.75.27l.48.08c.71.11,1.42.24,2.12.38a1.28,1.28,0,0,1,.27,0c.78.14,1.56.29,2.33.47s1.64.35,2.45.55,1.62.39,2.43.6,1.88.5,2.81.78c1.15.33,2.3.68,3.43,1.06q2.82.91,5.57,2c.64.24,1.28.5,1.91.77s1.26.51,1.88.79c1.88.8,3.74,1.67,5.56,2.59.61.3,1.21.61,1.81.93s1.2.63,1.79,1c1.23.67,2.44,1.36,3.63,2.08.52.31,1,.62,1.53.94s1,.61,1.48.93,1,.66,1.53,1l.81.55c.36.23.72.48,1.07.73l1.05.75c.5.35,1,.72,1.5,1.1.95.7,1.89,1.41,2.81,2.14.45.36.9.72,1.34,1.09l.62.51c.12.1.24.19.35.3.44.36.88.73,1.31,1.11.66.57,1.31,1.15,2,1.74.3.27.61.55.91.84l.9.84a1.14,1.14,0,0,1,.11.11c.64.6,1.26,1.21,1.88,1.83s1.23,1.24,1.83,1.88c.31.31.61.63.9.95l.89,1,0,0c.58.64,1.15,1.28,1.71,1.93s1.14,1.33,1.7,2,1.1,1.35,1.65,2,1.07,1.38,1.6,2.09,1,1.41,1.54,2.12,1,1.44,1.5,2.16l.73,1.1.72,1.1c.42.66.83,1.32,1.24,2l.42.69c.35.58.69,1.17,1,1.76l.06.1c.39.67.76,1.34,1.14,2s.75,1.39,1.11,2.09c.53,1,1.06,2.08,1.56,3.14.18.35.34.71.51,1.08l.5,1.08c.36.79.7,1.58,1.05,2.38a2.34,2.34,0,0,0,.09.24c.32.76.63,1.52.93,2.29.16.42.33.83.49,1.25s.31.83.46,1.25q.93,2.5,1.72,5.08c.13.4.25.8.37,1.2s.21.71.31,1.06l.09.32c.11.38.22.75.32,1.13l.3,1.16c.21.79.41,1.58.59,2.37.28,1.15.53,2.29.76,3.45q.13.61.24,1.23c.08.41.15.82.23,1.24,0,.07,0,.14,0,.21l.27,1.6c.05.28.09.56.13.84,0,.1,0,.2.05.31.1.65.19,1.31.27,2,.05.33.09.67.13,1s.11.9.16,1.36.09.79.13,1.19a.49.49,0,0,0,0,.12c.07.78.14,1.56.2,2.34s.11,1.53.15,2.3c0,.3,0,.6,0,.9l.06,1.15,0,1.24c0,.39,0,.77,0,1.16,0,.55,0,1.11,0,1.66a109.17,109.17,0,0,1-5.41,34c-.29.9-.6,1.78-.91,2.67q-1.42,4-3.13,7.79s0,0,0,0"/><path class="cls-6" d="M192.49,382.75h-71.4c2.17-50.76,15-96.76,35-132.12"/><path class="cls-6" d="M355.9,250.63c20,35.36,32.84,81.36,35,132.12H319.56"/><path class="cls-6" d="M168.64,225.88a12.53,12.53,0,0,0-12.53,12.53v12.2h0V235.13a9.26,9.26,0,0,1,9.26-9.25Z"/><path class="cls-6" d="M355.9,235.13v15.49h0v-12.2a12.53,12.53,0,0,0-12.53-12.53h3.28A9.26,9.26,0,0,1,355.9,235.13Z"/><line class="cls-6" x1="288.44" y1="149.88" x2="295.58" y2="104.09"/><line class="cls-6" x1="201.36" y1="382.75" x2="201.36" y2="343.17"/><line class="cls-6" x1="310.64" y1="343.17" x2="310.64" y2="382.75"/><path class="cls-6" d="M216.14,483.2l-5.7-36.55-9.08-58.17V359.54h0l-6.47,2.18-1.62.55-.36,9.32,0,.77,0,.54-.1,2.61-.28,7.25-.14,3.77L172,410.31a32.52,32.52,0,0,0-3.37,37.52l16.09,27.57"/><path class="cls-6" d="M327.33,475.38l16.08-27.55c.37-.64.72-1.29,1-1.94s.53-1.11.77-1.67c.4-.94.75-1.88,1.06-2.84l.24-.81c.22-.75.41-1.5.58-2.26s.3-1.52.41-2.28.19-1.52.24-2.29l.06-1.1a32.93,32.93,0,0,0-.82-8.59c-.19-.8-.41-1.61-.66-2.4-.14-.45-.3-.9-.46-1.35a32.62,32.62,0,0,0-5.84-10L319.7,386.52l-.14-3.77-.78-20.49-8.09-2.73h0v28.94l-9,57.84-.05.33-5.7,36.54"/><path class="cls-6" d="M211.85,446.66q42.47-14.64,91,0"/><path class="cls-6" d="M319.55,382.75h67.68c1.11,0,2.2,0,3.3.1l.5,0,.58,0,1.08.09,1.46.16c.5.06,1,.12,1.49.2s1.1.17,1.64.27l1.22.23.23.05c.38.07.76.15,1.13.24.64.14,1.28.3,1.91.47l.6.16c.24.07.49.13.73.21l.88.26c.76.23,1.51.48,2.26.75l1.09.4,1.14.44,1.29.54q.75.32,1.47.66l1.45.7c.48.24.95.49,1.42.74.94.5,1.86,1,2.77,1.59s1.8,1.13,2.68,1.74l1,.72,0,0c.46.34.92.68,1.37,1l.37.28c.34.27.68.54,1,.82l1.21,1c.81.69,1.59,1.41,2.34,2.15l1,1c1.16,1.18,2.26,2.42,3.32,3.7.33.4.66.81,1,1.23"/><path class="cls-6" d="M79.79,404.8a56.83,56.83,0,0,1,45-22.05h67.72"/><line class="cls-6" x1="310.69" y1="382.75" x2="310.63" y2="382.75"/><path class="cls-7" d="M168.64,225.88v50.47h-3.28a9.27,9.27,0,0,1-9.26-9.26V250.62h0v-12.2a12.53,12.53,0,0,1,12.53-12.53Z"/><path class="cls-7" d="M355.9,250.62v16.47a9.27,9.27,0,0,1-9.26,9.26h-3.28V225.88a12.53,12.53,0,0,1,12.53,12.53v12.2Z"/><path class="cls-7" d="M256,25.37C128.63,25.37,25.37,128.63,25.37,256A229.69,229.69,0,0,0,79.79,404.8l0,0A230.93,230.93,0,0,0,184.72,475.4h0a228.11,228.11,0,0,0,31.41,7.8,233.28,233.28,0,0,0,79.77,0,227.91,227.91,0,0,0,31.42-7.81A230.78,230.78,0,0,0,486.63,256C486.63,128.63,383.37,25.37,256,25.37Z"/></svg>