<?xml version="1.0" encoding="UTF-8"?>
<svg xmlns="http://www.w3.org/2000/svg" viewBox="0 0 4000 4000">
  <defs>
    <style>
      .cls-1 {
        fill: #8c6239;
      }

      .cls-2 {
        fill: #fff;
      }

      .cls-3 {
        fill: #998675;
      }

      .cls-4 {
        fill: #c7b299;
      }

      .cls-5 {
        fill: #a67c52;
      }

      .cls-6 {
        fill: #603813;
      }

      .cls-7 {
        opacity: .53;
      }

      .cls-7, .cls-8, .cls-9 {
        fill: #0071bc;
      }

      .cls-10 {
        fill: #c69c6d;
        opacity: .41;
      }

      .cls-11 {
        fill: #1b1464;
      }

      .cls-12 {
        fill: #29abe2;
      }

      .cls-9 {
        opacity: .35;
      }
    </style>
  </defs>
  <g id="Layer_3" data-name="Layer 3">
    <rect class="cls-10" width="4000" height="4000"/>
  </g>
  <g id="Layer_2" data-name="Layer 2">
    <path class="cls-8" d="m861.14,2952.22c-.38-2.27-.76-4.55-1.14-6.82-.13-.78-1.13-1.28-1.85-1.05-.84.27-1.19,1.01-1.05,1.85.38,2.27.76,4.55,1.14,6.82.13.78,1.13,1.28,1.85,1.05.84-.27,1.19-1.01,1.05-1.85h0Z"/>
    <g>
      <path class="cls-12" d="m3601.09,3996.81l-1585.09,1.52-27,.03-1546.81,1.48s98.53-428.97,410.78-622.99c0,0,.7-.43,2.03-1.24,15.68-9.55,119-71.67,198.05-99.94l480.51-171.66,779.11-62.53s854.91,278.53,882.19,342.19c0,0,165.22,103.84,257.69,264.51l148.54,348.63Z"/>
      <path class="cls-1" d="m3041.77,3293.48c40.93-86.4,16.67-374.4,16.67-374.4-22.74-172.8-40.93-198.57-40.93-198.57,6.06-54.57-127.33-306.52-127.33-306.52-28.8-33.67-51.54-142.16-51.54-142.16-24.25-25.77,4.55-266.78,4.55-266.78,31.83-171.28-19.71-449.43-19.71-449.43-118.23-561.6-485.81-529.77-485.81-529.77-81.85-216-297.85-197.81-297.85-197.81-152.34-11.37-500.21,211.45-500.21,211.45-327.41,213.73-368.34,516.13-368.34,516.13,0,0-43.96,229.64-34.86,273.6,0,0-3.03,228.88,10.61,262.23l36.38,298.61s-.96,195.54-48.23,248.59c0,0-173.24,246.03-111,504.42.51,2.13,1.04,4.27,1.59,6.4,0,0,15.16,86.4,25.77,118.23"/>
      <path class="cls-6" d="m1470.27,2359.38s-1.14,176.21-186.44,349.01c0,0-260.29,239.15-255.77,453.81l24.99,113.48,610.48-218.27,29.56-397.89s-82.99-39.79-222.82-300.13Z"/>
      <path class="cls-4" d="m2727.62,2196.81s-52.29,113.68-193.26,120.51c0,0-95.5,248.96-245.56,352.42l23.87,371.74,185.31,64.8s32.97,214.87-65.94,294.45c0,0-184.22,124.27-416.04,134.76v-5.03c0-1.36-1.1-2.46-2.46-2.46h-22.08c-1.36,0-2.46,1.1-2.46,2.46v2.74c-64.12-14.96-361.11-86.61-401.63-139.29,0,0-58.36-57.23-63.66-118.24l9.85-171.66,129.98-46.61,29.55-397.89s-104.96-58.74-222.82-300.13c0,0-35.24-441.1,22.74-550.23,0,0,102.32-262.61,317.18-379.71,0,0,204.63-117.09,349.01-69.35,0,0,94.36,35.25,168.25,146.66,0,0,198.95,246.69,227.37,262.61l-62.53-35.24,133.02,156.88,51.15-43.2s216,59.12,51.16,349.01Z"/>
      <path class="cls-3" d="m1691.2,2662.92s136.42,122.78,266.02,128.84c0,0,140.97,9.85,203.12-40.93,0,0-117.47,123.54-222.82,142.48,0,0-120.38,45.47-261.79,0"/>
      <path class="cls-2" d="m1772.04,2351.67h407.75s-42.44,130.36-201.6,132.38c0,0-125.81,23.24-206.15-132.38Z"/>
      <path class="cls-5" d="m1950.02,2039.93l10.23,248.97s-128.46-21.6-76.17-148.93l65.94-100.04Z"/>
      <ellipse class="cls-11" cx="1761.31" cy="2005.82" rx="50.59" ry="72.19"/>
      <ellipse class="cls-11" cx="2225.14" cy="2005.82" rx="50.59" ry="72.19"/>
      <path class="cls-1" d="m2124.65,1721.61s63.23-62.15,139.52-46.99c0,0,130.86,12.13,151.58,104.59,0,0-112.17-46.85-153.09-53.49l-138.01-4.11Z"/>
      <path class="cls-1" d="m1549.47,1789.82s99.28-91.06,274.36-64.1c0,0-96.25-109.46-217.52-22.3,0,0-53.81,39.41-56.84,86.4Z"/>
      <path class="cls-5" d="m2610.53,1952.77s-23.49,263.75-47.75,288c0,0,103.83,3.03,139.45-133.39,0,0,43.96-138.69-91.71-154.61Z"/>
      <path class="cls-6" d="m2630.24,2292.57s-13.29,315.78,5.67,363.52c18.96,47.75,156.52,494.53,92.85,532.04l-416.08-146.65-23.87-371.75s156.51-114.44,245.56-352.42c0,0,73.14-3.26,95.88-24.75Z"/>
      <path class="cls-6" d="m2789.63,3199.51s64.18-341.05,32.35-380.46l-19.71-145.52,51.54,145.52s80.34,313.77,46.99,419.87l-111.17-39.41Z"/>
      <path class="cls-7" d="m441,3995.39s108-448.78,414-620.39c0,0,297,485.39,288,620.39,0,0-702,9-702,0Z"/>
      <path class="cls-7" d="m2898,4005s116.73-369.65,296.86-621.33c0,0,171.14,81.33,297.14,351.33l109.09,261.81-703.09,8.19Z"/>
      <polygon class="cls-9" points="1071 3267 1523.71 3275.67 1533.56 3104.01 1071 3267"/>
      <path class="cls-9" d="m2493,3105s27,117,0,180l531,9-531-189Z"/>
      <path class="cls-4" d="m2016,3530.46v5.03c-4.92.23-9.86.4-14.82.52,0,0-4.36-.98-12.18-2.81v-2.74c0-1.36,1.1-2.46,2.46-2.46h22.08c1.36,0,2.46,1.1,2.46,2.46Z"/>
      <path class="cls-8" d="m2016,3535.49v462.84l-27,.03v-465.16c7.82,1.83,12.18,2.81,12.18,2.81,4.96-.12,9.9-.29,14.82-.52Z"/>
      <ellipse class="cls-8" cx="2002.5" cy="3672" rx="76.5" ry="72"/>
      <ellipse class="cls-8" cx="2002.5" cy="3897" rx="76.5" ry="72"/>
    </g>
  </g>
</svg>