<?xml version="1.0" encoding="UTF-8" standalone="no"?>
<!-- Created with Inkscape (http://www.inkscape.org/) -->

<svg
   version="1.1"
   id="svg1"
   width="880"
   height="880"
   viewBox="0 0 880 880"
   sodipodi:docname="man-reads-newspapers.svg"
   inkscape:version="1.3.2 (091e20e, 2023-11-25, custom)"
   xmlns:inkscape="http://www.inkscape.org/namespaces/inkscape"
   xmlns:sodipodi="http://sodipodi.sourceforge.net/DTD/sodipodi-0.dtd"
   xmlns="http://www.w3.org/2000/svg"
   xmlns:svg="http://www.w3.org/2000/svg">
  <defs
     id="defs1">
    <clipPath
       clipPathUnits="userSpaceOnUse"
       id="clipPath3">
      <path
         d="M 0,660 H 660 V 0 H 0 Z"
         transform="translate(-370.60351,-597.20021)"
         id="path3" />
    </clipPath>
    <clipPath
       clipPathUnits="userSpaceOnUse"
       id="clipPath5">
      <path
         d="M 0,660 H 660 V 0 H 0 Z"
         transform="translate(-328.78711,-79.301799)"
         id="path5" />
    </clipPath>
    <clipPath
       clipPathUnits="userSpaceOnUse"
       id="clipPath7">
      <path
         d="M 0,660 H 660 V 0 H 0 Z"
         transform="translate(-369.04591,-562.80622)"
         id="path7" />
    </clipPath>
    <clipPath
       clipPathUnits="userSpaceOnUse"
       id="clipPath9">
      <path
         d="M 0,660 H 660 V 0 H 0 Z"
         transform="translate(-266.083,-124.2871)"
         id="path9" />
    </clipPath>
    <clipPath
       clipPathUnits="userSpaceOnUse"
       id="clipPath11">
      <path
         d="M 0,660 H 660 V 0 H 0 Z"
         transform="translate(-516.06742,-157.8486)"
         id="path11" />
    </clipPath>
    <clipPath
       clipPathUnits="userSpaceOnUse"
       id="clipPath13">
      <path
         d="M 0,660 H 660 V 0 H 0 Z"
         transform="translate(-190.8735,-514.06201)"
         id="path13" />
    </clipPath>
    <clipPath
       clipPathUnits="userSpaceOnUse"
       id="clipPath15">
      <path
         d="M 0,660 H 660 V 0 H 0 Z"
         transform="translate(-456.20511,-412.45411)"
         id="path15" />
    </clipPath>
    <clipPath
       clipPathUnits="userSpaceOnUse"
       id="clipPath17">
      <path
         d="M 0,660 H 660 V 0 H 0 Z"
         transform="translate(-51.486802,-242.6611)"
         id="path17" />
    </clipPath>
    <clipPath
       clipPathUnits="userSpaceOnUse"
       id="clipPath19">
      <path
         d="M 0,660 H 660 V 0 H 0 Z"
         transform="translate(-103.85061,-123.18651)"
         id="path19" />
    </clipPath>
    <clipPath
       clipPathUnits="userSpaceOnUse"
       id="clipPath21">
      <path
         d="M 0,660 H 660 V 0 H 0 Z"
         transform="translate(-130.3999,-272.90041)"
         id="path21" />
    </clipPath>
    <clipPath
       clipPathUnits="userSpaceOnUse"
       id="clipPath23">
      <path
         d="M 0,660 H 660 V 0 H 0 Z"
         id="path23" />
    </clipPath>
    <clipPath
       clipPathUnits="userSpaceOnUse"
       id="clipPath25">
      <path
         d="M 0,660 H 660 V 0 H 0 Z"
         transform="translate(-267.71091,-488.52291)"
         id="path25" />
    </clipPath>
    <clipPath
       clipPathUnits="userSpaceOnUse"
       id="clipPath27">
      <path
         d="M 0,660 H 660 V 0 H 0 Z"
         transform="translate(-266.9521,-323.78611)"
         id="path27" />
    </clipPath>
    <clipPath
       clipPathUnits="userSpaceOnUse"
       id="clipPath29">
      <path
         d="M 0,660 H 660 V 0 H 0 Z"
         transform="translate(-348.47751,-124.2871)"
         id="path29" />
    </clipPath>
    <clipPath
       clipPathUnits="userSpaceOnUse"
       id="clipPath31">
      <path
         d="M 0,660 H 660 V 0 H 0 Z"
         transform="translate(-343.70121,-153.2344)"
         id="path31" />
    </clipPath>
    <clipPath
       clipPathUnits="userSpaceOnUse"
       id="clipPath33">
      <path
         d="M 0,660 H 660 V 0 H 0 Z"
         transform="translate(-513.90631,-480.96481)"
         id="path33" />
    </clipPath>
    <clipPath
       clipPathUnits="userSpaceOnUse"
       id="clipPath35">
      <path
         d="M 0,660 H 660 V 0 H 0 Z"
         transform="translate(-143.6685,-480.96481)"
         id="path35" />
    </clipPath>
    <clipPath
       clipPathUnits="userSpaceOnUse"
       id="clipPath37">
      <path
         d="M 0,660 H 660 V 0 H 0 Z"
         transform="translate(-200.31301,-317.87501)"
         id="path37" />
    </clipPath>
    <clipPath
       clipPathUnits="userSpaceOnUse"
       id="clipPath39">
      <path
         d="M 0,660 H 660 V 0 H 0 Z"
         transform="translate(-239.82181,-131.71)"
         id="path39" />
    </clipPath>
    <clipPath
       clipPathUnits="userSpaceOnUse"
       id="clipPath41">
      <path
         d="M 0,660 H 660 V 0 H 0 Z"
         transform="translate(-379.72071,-134.2383)"
         id="path41" />
    </clipPath>
    <clipPath
       clipPathUnits="userSpaceOnUse"
       id="clipPath43">
      <path
         d="M 0,660 H 660 V 0 H 0 Z"
         transform="translate(-456.81051,-399.02691)"
         id="path43" />
    </clipPath>
    <clipPath
       clipPathUnits="userSpaceOnUse"
       id="clipPath45">
      <path
         d="M 0,660 H 660 V 0 H 0 Z"
         transform="translate(-308.96481,-529.24411)"
         id="path45" />
    </clipPath>
    <clipPath
       clipPathUnits="userSpaceOnUse"
       id="clipPath47">
      <path
         d="M 0,660 H 660 V 0 H 0 Z"
         transform="translate(-308.96481,-529.24411)"
         id="path47" />
    </clipPath>
    <clipPath
       clipPathUnits="userSpaceOnUse"
       id="clipPath49">
      <path
         d="M 0,660 H 660 V 0 H 0 Z"
         transform="translate(-288.14991,-587.70851)"
         id="path49" />
    </clipPath>
    <clipPath
       clipPathUnits="userSpaceOnUse"
       id="clipPath51">
      <path
         d="M 0,660 H 660 V 0 H 0 Z"
         transform="translate(-316.95651,-566.59231)"
         id="path51" />
    </clipPath>
    <clipPath
       clipPathUnits="userSpaceOnUse"
       id="clipPath53">
      <path
         d="M 0,660 H 660 V 0 H 0 Z"
         transform="translate(-358.21391,-571.57132)"
         id="path53" />
    </clipPath>
    <clipPath
       clipPathUnits="userSpaceOnUse"
       id="clipPath55">
      <path
         d="M 0,660 H 660 V 0 H 0 Z"
         transform="translate(-308.93311,-557.78131)"
         id="path55" />
    </clipPath>
    <clipPath
       clipPathUnits="userSpaceOnUse"
       id="clipPath57">
      <path
         d="M 0,660 H 660 V 0 H 0 Z"
         transform="translate(-310.50101,-541.24321)"
         id="path57" />
    </clipPath>
    <clipPath
       clipPathUnits="userSpaceOnUse"
       id="clipPath59">
      <path
         d="M 0,660 H 660 V 0 H 0 Z"
         transform="translate(-348.64161,-557.78131)"
         id="path59" />
    </clipPath>
    <clipPath
       clipPathUnits="userSpaceOnUse"
       id="clipPath61">
      <path
         d="M 0,660 H 660 V 0 H 0 Z"
         transform="translate(-347.07131,-541.24321)"
         id="path61" />
    </clipPath>
    <clipPath
       clipPathUnits="userSpaceOnUse"
       id="clipPath63">
      <path
         d="M 0,660 H 660 V 0 H 0 Z"
         transform="translate(-338.05861,-514.06201)"
         id="path63" />
    </clipPath>
  </defs>
  <sodipodi:namedview
     id="namedview1"
     pagecolor="#ffffff"
     bordercolor="#000000"
     borderopacity="0.25"
     inkscape:showpageshadow="2"
     inkscape:pageopacity="0.0"
     inkscape:pagecheckerboard="0"
     inkscape:deskcolor="#d1d1d1"
     inkscape:zoom="0.69318182"
     inkscape:cx="439.27869"
     inkscape:cy="440"
     inkscape:window-width="1440"
     inkscape:window-height="830"
     inkscape:window-x="-6"
     inkscape:window-y="-6"
     inkscape:window-maximized="1"
     inkscape:current-layer="g1">
    <inkscape:page
       x="0"
       y="0"
       inkscape:label="1"
       id="page1"
       width="880"
       height="880"
       margin="105.73573 71.884003 61.238667 68.649063"
       bleed="0" />
  </sodipodi:namedview>
  <g
     id="g1"
     inkscape:groupmode="layer"
     inkscape:label="1">
    <g
       id="group-MC0">
      <path
         id="path2"
         d="m 0,0 c -6.276,0 -13.074,-12.382 -15.189,-27.658 -2.113,-15.274 1.259,-27.657 7.533,-27.657 6.275,0 13.074,12.383 15.188,27.657 C 9.647,-12.382 6.273,0 0,0 m -80.907,0 c 6.276,0 13.075,-12.382 15.189,-27.658 2.113,-15.274 -1.26,-27.657 -7.536,-27.657 -6.272,0 -13.074,12.383 -15.186,27.657 C -90.553,-12.382 -87.18,0 -80.907,0"
         style="fill:#2f2825;fill-opacity:1;fill-rule:evenodd;stroke:none"
         transform="matrix(1.3333333,0,0,-1.3333333,494.138,83.733067)"
         clip-path="url(#clipPath3)" />
      <path
         id="path4"
         d="m 0,0 c 143.387,0 260.331,2.838 260.331,6.318 0,3.485 -116.944,6.325 -260.331,6.325 -143.387,0 -260.332,-2.84 -260.332,-6.325 C -260.332,2.838 -143.387,0 0,0"
         style="fill:#463d3b;fill-opacity:1;fill-rule:evenodd;stroke:none"
         transform="matrix(1.3333333,0,0,-1.3333333,438.3828,774.26427)"
         clip-path="url(#clipPath5)" />
      <path
         id="path6"
         d="m 0,0 c -4.154,0 -8.128,-4.848 -8.877,-10.828 -0.749,-5.981 2.013,-10.829 6.165,-10.829 4.154,0 8.128,4.848 8.877,10.829 C 6.913,-4.848 4.152,0 0,0 m -80.519,0 c 4.154,0 8.127,-4.848 8.878,-10.828 0.749,-5.981 -2.012,-10.829 -6.165,-10.829 -4.153,0 -8.129,4.848 -8.878,10.829 C -87.433,-4.848 -84.672,0 -80.519,0"
         style="fill:#f28f62;fill-opacity:1;fill-rule:evenodd;stroke:none"
         transform="matrix(1.3333333,0,0,-1.3333333,492.0612,129.59173)"
         clip-path="url(#clipPath7)" />
      <path
         id="path8"
         d="m 0,0 c 19.348,0 35.031,-15.682 35.031,-35.031 0,-1.226 -0.065,-2.441 -0.187,-3.636 h -69.688 c -0.122,1.195 -0.19,2.41 -0.19,3.636 C -35.034,-15.682 -19.347,0 0,0"
         style="fill:#47bc53;fill-opacity:1;fill-rule:evenodd;stroke:none"
         transform="matrix(1.3333333,0,0,-1.3333333,354.77733,714.28387)"
         clip-path="url(#clipPath9)" />
      <path
         id="path10"
         d="m 0,0 19.354,-72.229 h -31.153 l -47.29,81.912 z m -374.562,0 -19.353,-72.229 h 31.152 l 47.292,81.912 z"
         style="fill:#463d3b;fill-opacity:1;fill-rule:evenodd;stroke:none"
         transform="matrix(1.3333333,0,0,-1.3333333,688.08987,669.5352)"
         clip-path="url(#clipPath11)" />
      <path
         id="path12"
         d="m 0,0 h 275.827 c 43.807,0 79.649,-35.843 79.649,-79.649 v -179.95 H -79.649 v 179.95 C -79.649,-35.843 -43.806,0 0,0"
         style="fill:#f79163;fill-opacity:1;fill-rule:evenodd;stroke:none"
         transform="matrix(1.3333333,0,0,-1.3333333,254.498,194.584)"
         clip-path="url(#clipPath13)" />
      <path
         id="path14"
         d="m 0,0 c -24.086,0 -48.787,-19.527 -55.17,-43.615 -6.384,-24.085 7.967,-43.613 32.056,-43.613 24.087,0 48.787,19.528 55.171,43.613 C 38.44,-19.527 24.09,0 0,0 m -254.838,0 c 24.087,0 48.79,-19.527 55.173,-43.615 6.381,-24.085 -7.97,-43.613 -32.057,-43.613 -24.088,0 -48.79,19.528 -55.173,43.613 -6.383,24.088 7.971,43.615 32.057,43.615"
         style="fill:#205b2b;fill-opacity:1;fill-rule:evenodd;stroke:none"
         transform="matrix(1.3333333,0,0,-1.3333333,608.27347,330.0612)"
         clip-path="url(#clipPath15)" />
      <path
         id="path16"
         d="m 0,0 h 554.6 v -67.111 c 0,-28.801 -23.563,-52.364 -52.361,-52.364 H 52.362 C 23.563,-119.475 0,-95.912 0,-67.111 Z"
         style="fill:#d64520;fill-opacity:1;fill-rule:evenodd;stroke:none"
         transform="matrix(1.3333333,0,0,-1.3333333,68.649067,556.45187)"
         clip-path="url(#clipPath17)" />
      <path
         id="path18"
         d="m 0,0 h -0.002 c -28.8,0 -52.362,23.562 -52.362,52.363 V 248.54 c 0,28.798 23.562,52.361 52.362,52.361 H 0 c 28.801,0 52.361,-23.563 52.361,-52.361 V 52.363 C 52.361,23.562 28.801,0 0,0 M 449.875,0 V 0 C 421.072,0 397.513,23.562 397.513,52.363 V 248.54 c 0,28.798 23.559,52.361 52.362,52.361 28.802,0 52.361,-23.563 52.361,-52.361 V 52.363 C 502.236,23.562 478.677,0 449.875,0"
         style="fill:#e9541e;fill-opacity:1;fill-rule:evenodd;stroke:none"
         transform="matrix(1.3333333,0,0,-1.3333333,138.46747,715.75133)"
         clip-path="url(#clipPath19)" />
      <path
         id="path20"
         d="m 0,0 h 396.775 c 16.631,0 30.237,-13.607 30.237,-30.239 0,-16.629 -13.606,-30.235 -30.237,-30.235 L 0,-60.474 c -16.632,0 -30.239,13.606 -30.239,30.235 C -30.239,-13.607 -16.632,0 0,0"
         style="fill:#f36530;fill-opacity:1;fill-rule:evenodd;stroke:none"
         transform="matrix(1.3333333,0,0,-1.3333333,173.86653,516.1328)"
         clip-path="url(#clipPath21)" />
      <path
         id="path22"
         d="m 247.663,272.9 h 162.249 v 50.886 H 247.663 Z"
         style="fill:#205b2b;fill-opacity:1;fill-rule:evenodd;stroke:none"
         transform="matrix(1.3333333,0,0,-1.3333333,0,880)"
         clip-path="url(#clipPath23)" />
      <path
         id="path24"
         d="M 0,0 -51.438,-59.843 61.076,-91.925 173.593,-59.843 122.153,0 Z"
         style="fill:#267837;fill-opacity:1;fill-rule:evenodd;stroke:none"
         transform="matrix(1.3333333,0,0,-1.3333333,356.94787,228.63613)"
         clip-path="url(#clipPath25)" />
      <path
         id="path26"
         d="m 0,0 -17.479,77.793 c -10.703,47.649 2.688,100.684 59.04,100.684 h 40.546 c 56.352,0 69.746,-53.035 59.041,-100.684 L 123.67,0 C 115.638,-35.754 8.033,-35.754 0,0"
         style="fill:#47bc53;fill-opacity:1;fill-rule:evenodd;stroke:none"
         transform="matrix(1.3333333,0,0,-1.3333333,355.93613,448.2852)"
         clip-path="url(#clipPath27)" />
      <path
         id="path28"
         d="m 0,0 c -19.346,0 -35.031,-15.682 -35.031,-35.031 0,-1.226 0.065,-2.441 0.187,-3.636 h 69.689 c 0.125,1.195 0.186,2.41 0.186,3.636 C 35.031,-15.682 19.348,0 0,0"
         style="fill:#47bc53;fill-opacity:1;fill-rule:evenodd;stroke:none"
         transform="matrix(1.3333333,0,0,-1.3333333,464.63667,714.28387)"
         clip-path="url(#clipPath29)" />
      <path
         id="path30"
         d="m 0,0 -12.199,-27.944 c -2.17,-4.97 -1.678,-10.27 1.371,-14.757 3.047,-4.487 7.795,-6.896 13.214,-6.708 l 21.212,0.732 20.282,43.514 z"
         style="fill:#faba9c;fill-opacity:1;fill-rule:evenodd;stroke:none"
         transform="matrix(1.3333333,0,0,-1.3333333,458.26827,675.68747)"
         clip-path="url(#clipPath31)" />
      <path
         id="path32"
         d="m 0,0 -88.184,-150.759 -96.935,-13.257 V -42.43 Z"
         style="fill:#f9f0ef;fill-opacity:1;fill-rule:evenodd;stroke:none"
         transform="matrix(1.3333333,0,0,-1.3333333,685.2084,238.7136)"
         clip-path="url(#clipPath33)" />
      <path
         id="path34"
         d="m 0,0 88.183,-150.759 96.936,-13.257 V -42.43 Z"
         style="fill:#ffffff;fill-opacity:1;fill-rule:evenodd;stroke:none"
         transform="matrix(1.3333333,0,0,-1.3333333,191.558,238.7136)"
         clip-path="url(#clipPath35)" />
      <path
         id="path36"
         d="M 0,0 C -2.855,19.02 10.247,36.75 29.263,39.607 48.281,42.465 66.013,29.362 68.87,10.345 l 27.485,-180.032 c 2.855,-19.018 -10.246,-36.749 -29.262,-39.606 -19.018,-2.857 -36.75,10.245 -39.607,29.265 z m 191.539,15.129 c 6.314,18.117 26.117,27.684 44.233,21.372 18.116,-6.315 27.684,-26.119 21.37,-44.235 l -57.527,-163.724 c -6.314,-18.116 -26.118,-27.684 -44.234,-21.37 -18.115,6.314 -27.68,26.118 -21.368,44.233 z"
         style="fill:#267837;fill-opacity:1;fill-rule:evenodd;stroke:none"
         transform="matrix(1.3333333,0,0,-1.3333333,267.084,456.16667)"
         clip-path="url(#clipPath37)" />
      <path
         id="path38"
         d="m 0,0 c 20.74,0 37.552,-16.816 37.552,-37.553 0,-2.937 -0.336,-5.793 -0.975,-8.537 h -73.154 c -0.639,2.744 -0.975,5.6 -0.975,8.537 C -37.552,-16.816 -20.74,0 0,0"
         style="fill:#47bc53;fill-opacity:1;fill-rule:evenodd;stroke:none"
         transform="matrix(1.3333333,0,0,-1.3333333,319.7624,704.38667)"
         clip-path="url(#clipPath39)" />
      <path
         id="path40"
         d="m 0,0 c -21.877,0 -39.613,-17.734 -39.613,-39.615 0,-3.097 0.356,-6.111 1.029,-9.003 h 77.168 c 0.673,2.892 1.029,5.906 1.029,9.003 C 39.613,-17.734 21.878,0 0,0"
         style="fill:#47bc53;fill-opacity:1;fill-rule:evenodd;stroke:none"
         transform="matrix(1.3333333,0,0,-1.3333333,506.29427,701.0156)"
         clip-path="url(#clipPath41)" />
      <path
         id="path42"
         d="m 0,0 c 12.015,4.768 21.756,-1.107 21.756,-13.122 0,-12.017 -9.741,-25.623 -21.756,-30.391 -12.015,-4.768 -21.758,1.107 -21.758,13.122 0,12.016 9.743,25.623 21.758,30.391 m -254.301,0 c -12.016,4.768 -21.755,-1.107 -21.755,-13.122 0,-12.017 9.739,-25.623 21.755,-30.391 12.016,-4.768 21.758,1.107 21.758,13.122 0,12.016 -9.742,25.623 -21.758,30.391"
         style="fill:#faba9c;fill-opacity:1;fill-rule:evenodd;stroke:none"
         transform="matrix(1.3333333,0,0,-1.3333333,609.08067,347.96413)"
         clip-path="url(#clipPath43)" />
      <path
         id="path44"
         d="M 0,0 H 39.645 V -33.68 C 39.645,-46.895 0,-46.896 0,-33.68 Z"
         style="fill:#faba9c;fill-opacity:1;fill-rule:evenodd;stroke:none"
         transform="matrix(1.3333333,0,0,-1.3333333,411.95307,174.3412)"
         clip-path="url(#clipPath45)" />
      <path
         id="path46"
         d="m 0,0 h 39.645 v -33.68 l -0.002,-0.07 c -3.896,-1.529 -8.131,-2.372 -12.554,-2.372 -10.941,0 -20.742,5.154 -27.089,13.154 z"
         style="fill:#f5a683;fill-opacity:1;fill-rule:evenodd;stroke:none"
         transform="matrix(1.3333333,0,0,-1.3333333,411.95307,174.3412)"
         clip-path="url(#clipPath47)" />
      <path
         id="path48"
         d="m 0,0 h 81.272 v -44.261 c 0,-22.348 -18.283,-40.634 -40.635,-40.634 C 18.287,-84.895 0,-66.609 0,-44.261 Z"
         style="fill:#faba9c;fill-opacity:1;fill-rule:evenodd;stroke:none"
         transform="matrix(1.3333333,0,0,-1.3333333,384.19987,96.388667)"
         clip-path="url(#clipPath49)" />
      <path
         id="path50"
         d="M 0,0 C 19.474,0 35.358,10.664 35.358,23.74 35.358,36.813 19.474,47.479 0,47.479 -19.472,47.479 -35.355,36.813 -35.355,23.74 -35.355,10.664 -19.472,0 0,0"
         style="fill:#2f2825;fill-opacity:1;fill-rule:evenodd;stroke:none"
         transform="matrix(1.3333333,0,0,-1.3333333,422.60867,124.5436)"
         clip-path="url(#clipPath51)" />
      <path
         id="path52"
         d="M 0,0 C 10.358,0 18.807,7.205 18.807,16.039 18.807,24.874 10.358,32.08 0,32.08 -10.358,32.08 -18.806,24.874 -18.806,16.039 -18.806,7.205 -10.358,0 0,0"
         style="fill:#2f2825;fill-opacity:1;fill-rule:evenodd;stroke:none"
         transform="matrix(1.3333333,0,0,-1.3333333,477.61853,117.90493)"
         clip-path="url(#clipPath53)" />
      <path
         id="path54"
         d="M 0,0 C 6.187,0.336 11.203,-0.96 11.203,-2.895 11.203,-4.829 6.187,-6.671 0,-7.006 -6.186,-7.341 -11.201,-6.045 -11.201,-4.111 -11.201,-2.176 -6.186,-0.336 0,0"
         style="fill:#2f2825;fill-opacity:1;fill-rule:evenodd;stroke:none"
         transform="matrix(1.3333333,0,0,-1.3333333,411.9108,136.2916)"
         clip-path="url(#clipPath55)" />
      <path
         id="path56"
         d="m 0,0 c 2.819,0 5.116,2.773 5.116,6.176 0,3.402 -2.297,6.177 -5.116,6.177 -2.818,0 -5.116,-2.775 -5.116,-6.177 C -5.116,2.773 -2.818,0 0,0"
         style="fill:#2f2825;fill-opacity:1;fill-rule:evenodd;stroke:none"
         transform="matrix(1.3333333,0,0,-1.3333333,414.00133,158.3424)"
         clip-path="url(#clipPath57)" />
      <path
         id="path58"
         d="m 0,0 c -6.187,0.336 -11.202,-0.96 -11.202,-2.895 0,-1.934 5.015,-3.776 11.202,-4.111 6.184,-0.335 11.199,0.961 11.199,2.895 C 11.199,-2.176 6.184,-0.336 0,0"
         style="fill:#2f2825;fill-opacity:1;fill-rule:evenodd;stroke:none"
         transform="matrix(1.3333333,0,0,-1.3333333,464.85547,136.2916)"
         clip-path="url(#clipPath59)" />
      <path
         id="path60"
         d="m 0,0 c 2.818,0 5.118,2.773 5.118,6.176 0,3.402 -2.3,6.177 -5.118,6.177 -2.818,0 -5.116,-2.775 -5.116,-6.177 C -5.116,2.773 -2.818,0 0,0"
         style="fill:#2f2825;fill-opacity:1;fill-rule:evenodd;stroke:none"
         transform="matrix(1.3333333,0,0,-1.3333333,462.76173,158.3424)"
         clip-path="url(#clipPath61)" />
      <path
         id="path62"
         d="M 0,0 C 2.869,0 5.209,1.323 5.209,2.943 5.209,4.564 2.869,5.887 0,5.887 -2.868,5.887 -5.206,4.564 -5.206,2.943 -5.206,1.323 -2.868,0 0,0"
         style="fill:#f28f62;fill-opacity:1;fill-rule:evenodd;stroke:none"
         transform="matrix(1.3333333,0,0,-1.3333333,450.7448,194.584)"
         clip-path="url(#clipPath63)" />
    </g>
  </g>
</svg>
