<?xml version="1.0" encoding="UTF-8" standalone="no"?>
<!-- Created with Inkscape (http://www.inkscape.org/) -->

<svg
   version="1.1"
   id="svg1"
   width="880"
   height="880"
   viewBox="0 0 880 880"
   sodipodi:docname="green-man-cheering.svg"
   inkscape:version="1.3.2 (091e20e, 2023-11-25, custom)"
   xmlns:inkscape="http://www.inkscape.org/namespaces/inkscape"
   xmlns:sodipodi="http://sodipodi.sourceforge.net/DTD/sodipodi-0.dtd"
   xmlns="http://www.w3.org/2000/svg"
   xmlns:svg="http://www.w3.org/2000/svg">
  <defs
     id="defs1">
    <clipPath
       clipPathUnits="userSpaceOnUse"
       id="clipPath3">
      <path
         d="M 0,660 H 660 V 0 H 0 Z"
         transform="translate(-509.92771,-405.65281)"
         id="path3" />
    </clipPath>
    <clipPath
       clipPathUnits="userSpaceOnUse"
       id="clipPath5">
      <path
         d="M 0,660 H 660 V 0 H 0 Z"
         transform="translate(-196.3057,-414.99461)"
         id="path5" />
    </clipPath>
    <clipPath
       clipPathUnits="userSpaceOnUse"
       id="clipPath7">
      <path
         d="M 0,660 H 660 V 0 H 0 Z"
         transform="translate(-327.04931,-65.411102)"
         id="path7" />
    </clipPath>
    <clipPath
       clipPathUnits="userSpaceOnUse"
       id="clipPath9">
      <path
         d="M 0,660 H 660 V 0 H 0 Z"
         transform="translate(-221.18361,-649.16502)"
         id="path9" />
    </clipPath>
    <clipPath
       clipPathUnits="userSpaceOnUse"
       id="clipPath11">
      <path
         d="M 0,660 H 660 V 0 H 0 Z"
         transform="translate(-210.89551,-647.67042)"
         id="path11" />
    </clipPath>
    <clipPath
       clipPathUnits="userSpaceOnUse"
       id="clipPath13">
      <path
         d="M 0,660 H 660 V 0 H 0 Z"
         id="path13" />
    </clipPath>
    <clipPath
       clipPathUnits="userSpaceOnUse"
       id="clipPath15">
      <path
         d="M 0,660 H 660 V 0 H 0 Z"
         transform="translate(-210.89791,-583.75591)"
         id="path15" />
    </clipPath>
    <clipPath
       clipPathUnits="userSpaceOnUse"
       id="clipPath17">
      <path
         d="M 0,660 H 660 V 0 H 0 Z"
         transform="translate(-297.4189,-584.95951)"
         id="path17" />
    </clipPath>
    <clipPath
       clipPathUnits="userSpaceOnUse"
       id="clipPath19">
      <path
         d="M 0,660 H 660 V 0 H 0 Z"
         transform="translate(-274.05861,-413.42041)"
         id="path19" />
    </clipPath>
    <clipPath
       clipPathUnits="userSpaceOnUse"
       id="clipPath21">
      <path
         d="M 0,660 H 660 V 0 H 0 Z"
         transform="translate(-340.73441,-420.24121)"
         id="path21" />
    </clipPath>
    <clipPath
       clipPathUnits="userSpaceOnUse"
       id="clipPath23">
      <path
         d="M 0,660 H 660 V 0 H 0 Z"
         transform="translate(-300.39651,-540.21682)"
         id="path23" />
    </clipPath>
    <clipPath
       clipPathUnits="userSpaceOnUse"
       id="clipPath25">
      <path
         d="M 0,660 H 660 V 0 H 0 Z"
         transform="translate(-269.08111,-427.32521)"
         id="path25" />
    </clipPath>
    <clipPath
       clipPathUnits="userSpaceOnUse"
       id="clipPath27">
      <path
         d="M 0,660 H 660 V 0 H 0 Z"
         transform="translate(-350.39751,-486.62941)"
         id="path27" />
    </clipPath>
    <clipPath
       clipPathUnits="userSpaceOnUse"
       id="clipPath29">
      <path
         d="M 0,660 H 660 V 0 H 0 Z"
         transform="translate(-343.84571,-540.62111)"
         id="path29" />
    </clipPath>
    <clipPath
       clipPathUnits="userSpaceOnUse"
       id="clipPath31">
      <path
         d="M 0,660 H 660 V 0 H 0 Z"
         transform="translate(-328.60211,-572.64652)"
         id="path31" />
    </clipPath>
    <clipPath
       clipPathUnits="userSpaceOnUse"
       id="clipPath33">
      <path
         d="M 0,660 H 660 V 0 H 0 Z"
         transform="translate(-337.20211,-600.12401)"
         id="path33" />
    </clipPath>
    <clipPath
       clipPathUnits="userSpaceOnUse"
       id="clipPath35">
      <path
         d="M 0,660 H 660 V 0 H 0 Z"
         transform="translate(-306.39361,-625.62942)"
         id="path35" />
    </clipPath>
    <clipPath
       clipPathUnits="userSpaceOnUse"
       id="clipPath37">
      <path
         d="M 0,660 H 660 V 0 H 0 Z"
         transform="translate(-321.82031,-595.34861)"
         id="path37" />
    </clipPath>
    <clipPath
       clipPathUnits="userSpaceOnUse"
       id="clipPath39">
      <path
         d="M 0,660 H 660 V 0 H 0 Z"
         transform="translate(-272.6152,-143.2021)"
         id="path39" />
    </clipPath>
    <clipPath
       clipPathUnits="userSpaceOnUse"
       id="clipPath41">
      <path
         d="M 0,660 H 660 V 0 H 0 Z"
         transform="translate(-387.63671,-132.292)"
         id="path41" />
    </clipPath>
    <clipPath
       clipPathUnits="userSpaceOnUse"
       id="clipPath43">
      <path
         d="M 0,660 H 660 V 0 H 0 Z"
         transform="translate(-202.0366,-575.80471)"
         id="path43" />
    </clipPath>
    <clipPath
       clipPathUnits="userSpaceOnUse"
       id="clipPath45">
      <path
         d="M 0,660 H 660 V 0 H 0 Z"
         transform="translate(-417.38481,-368.43851)"
         id="path45" />
    </clipPath>
    <clipPath
       clipPathUnits="userSpaceOnUse"
       id="clipPath47">
      <path
         d="M 0,660 H 660 V 0 H 0 Z"
         transform="translate(-295.6519,-586.58891)"
         id="path47" />
    </clipPath>
    <clipPath
       clipPathUnits="userSpaceOnUse"
       id="clipPath49">
      <path
         d="M 0,660 H 660 V 0 H 0 Z"
         transform="translate(-295.7524,-585.76221)"
         id="path49" />
    </clipPath>
    <clipPath
       clipPathUnits="userSpaceOnUse"
       id="clipPath51">
      <path
         d="M 0,660 H 660 V 0 H 0 Z"
         transform="translate(-306.45171,-586.58891)"
         id="path51" />
    </clipPath>
    <clipPath
       clipPathUnits="userSpaceOnUse"
       id="clipPath53">
      <path
         d="M 0,660 H 660 V 0 H 0 Z"
         transform="translate(-306.31011,-585.76221)"
         id="path53" />
    </clipPath>
    <clipPath
       clipPathUnits="userSpaceOnUse"
       id="clipPath55">
      <path
         d="M 0,660 H 660 V 0 H 0 Z"
         transform="translate(-299.52001,-564.85451)"
         id="path55" />
    </clipPath>
  </defs>
  <sodipodi:namedview
     id="namedview1"
     pagecolor="#ffffff"
     bordercolor="#000000"
     borderopacity="0.25"
     inkscape:showpageshadow="2"
     inkscape:pageopacity="0.0"
     inkscape:pagecheckerboard="0"
     inkscape:deskcolor="#d1d1d1"
     inkscape:zoom="0.69318182"
     inkscape:cx="439.27869"
     inkscape:cy="440"
     inkscape:window-width="1440"
     inkscape:window-height="830"
     inkscape:window-x="-6"
     inkscape:window-y="-6"
     inkscape:window-maximized="1"
     inkscape:current-layer="g1">
    <inkscape:page
       x="0"
       y="0"
       inkscape:label="1"
       id="page1"
       width="880"
       height="880"
       margin="87.214798 182.39734 12.453333 188.92267"
       bleed="0" />
  </sodipodi:namedview>
  <g
     id="g1"
     inkscape:groupmode="layer"
     inkscape:label="1">
    <g
       id="group-MC0">
      <path
         id="path2"
         d="m 0,0 c 11.561,-30.546 15.733,-63.656 11.877,-96.386 l -44.062,8.205 41.87,-22.456 c -4.734,-24.815 -14.176,-49.161 -28.632,-71.739 l -0.216,-0.332 -37.657,14.329 27.349,-28.93 c -15.098,-19.539 -33.196,-35.666 -53.214,-48.143 l -49.019,25.328 34.745,-33.439 c -24.808,-12.809 -51.98,-20.393 -79.705,-22.331 -9.816,25.94 -14.306,53.726 -13.075,81.559 l 43.814,-7.362 -42.546,22.779 c 3.126,25.891 11.28,51.527 24.782,75.467 l 34.255,-12.834 -25.65,26.766 c 13.961,20.733 31.105,38.112 50.364,51.892 l 41.703,-21.492 -30.419,29.014 C -65.096,-12.564 -32.938,-2.307 0,0"
         style="fill:#91bd9d;fill-opacity:1;fill-rule:evenodd;stroke:none"
         transform="matrix(1.3333333,0,0,-1.3333333,679.9036,339.1296)"
         clip-path="url(#clipPath3)" />
      <path
         id="path4"
         d="m 0,0 c 28.878,-7.333 55.813,-21.52 78.264,-41.514 l -29.171,-28.654 38.678,19.56 c 16.081,-16.512 29.343,-36.302 38.663,-58.911 l 0.134,-0.333 -30.401,-20.663 35.93,5.32 c 6.712,-21.504 9.305,-43.463 8.166,-64.954 l -44.562,-23.401 43.162,8.49 c -3.39,-25.243 -11.933,-49.521 -24.977,-71.26 -24.525,6.224 -47.643,17.395 -67.806,32.864 l 28.411,28.907 -39.279,-19.895 c -17.717,15.87 -32.622,35.372 -43.456,57.983 l 27.502,18.894 -33.419,-5.176 c -8.2,21.275 -12.229,43.177 -12.461,64.781 l 37.872,19.938 -37.596,-7.567 C -24.642,-55.236 -15.498,-25.833 0,0"
         style="fill:#aecfb7;fill-opacity:1;fill-rule:evenodd;stroke:none"
         transform="matrix(1.3333333,0,0,-1.3333333,261.74093,326.67387)"
         clip-path="url(#clipPath5)" />
      <path
         id="path6"
         d="m 0,0 c 102.093,0 185.363,28.737 185.363,63.979 0,35.239 -83.27,63.981 -185.363,63.981 -102.092,0 -185.357,-28.742 -185.357,-63.981 C -185.357,28.737 -102.092,0 0,0"
         style="fill:#91bd9d;fill-opacity:1;fill-rule:evenodd;stroke:none"
         transform="matrix(1.3333333,0,0,-1.3333333,436.06573,792.7852)"
         clip-path="url(#clipPath7)" />
      <path
         id="path8"
         d="m 0,0 c 0,-19.956 -4.606,-36.135 -10.288,-36.135 -5.681,0 -10.289,16.179 -10.289,36.135 z"
         style="fill:#2da3ca;fill-opacity:1;fill-rule:evenodd;stroke:none"
         transform="matrix(1.3333333,0,0,-1.3333333,294.91147,14.446667)"
         clip-path="url(#clipPath9)" />
      <path
         id="path10"
         d="M 0,0 C 5.67,0 10.288,0.671 10.288,1.495 10.288,2.317 5.67,2.989 0,2.989 -5.666,2.989 -10.289,2.317 -10.289,1.495 -10.289,0.671 -5.666,0 0,0"
         style="fill:#2da3ca;fill-opacity:1;fill-rule:evenodd;stroke:none"
         transform="matrix(1.3333333,0,0,-1.3333333,281.194,16.439467)"
         clip-path="url(#clipPath11)" />
      <path
         id="path12"
         d="m 209.579,585.25 h 2.634 v 42.025 h -2.634 z"
         style="fill:#2da3ca;fill-opacity:1;fill-rule:evenodd;stroke:none"
         transform="matrix(1.3333333,0,0,-1.3333333,0,880)"
         clip-path="url(#clipPath13)" />
      <path
         id="path14"
         d="M 0,0 C 4.381,0 7.958,0.67 7.958,1.495 7.958,2.318 4.381,2.989 0,2.989 -4.384,2.989 -7.957,2.318 -7.957,1.495 -7.957,0.67 -4.384,0 0,0"
         style="fill:#2da3ca;fill-opacity:1;fill-rule:evenodd;stroke:none"
         transform="matrix(1.3333333,0,0,-1.3333333,281.1972,101.6588)"
         clip-path="url(#clipPath15)" />
      <path
         id="path16"
         d="M 0,0 C 7.051,0 12.8,5.752 12.8,12.8 12.8,19.847 7.051,25.599 0,25.599 -7.047,25.599 -12.8,19.847 -12.8,12.8 -12.8,5.752 -7.047,0 0,0"
         style="fill:#332d2a;fill-opacity:1;fill-rule:evenodd;stroke:none"
         transform="matrix(1.3333333,0,0,-1.3333333,396.55853,100.054)"
         clip-path="url(#clipPath17)" />
      <path
         id="path18"
         d="m 0,0 -1.443,-270.218 12.426,-7.997 c 7.149,32.117 29.538,61.354 17.86,115.956 -4.49,20.997 -2.677,40.24 5.663,60.026 L 56.351,-50.396 24.362,-6.622 C 16.242,-4.417 8.119,-2.208 0,0"
         style="fill:#023d12;fill-opacity:1;fill-rule:evenodd;stroke:none"
         transform="matrix(1.3333333,0,0,-1.3333333,365.41147,328.7728)"
         clip-path="url(#clipPath19)" />
      <path
         id="path20"
         d="m 0,0 c 15.338,-17.683 21.482,-36.708 18.754,-57.9 -1.801,-14.001 -2.01,-26.118 -0.693,-40.17 l 3.872,-41.236 c 2.028,-21.615 7.75,-37.256 19.556,-55.477 18.999,-29.313 15.523,-69.674 15.801,-104.578 l -9.547,7.999 -116.119,286.841 z"
         style="fill:#035e1b;fill-opacity:1;fill-rule:evenodd;stroke:none"
         transform="matrix(1.3333333,0,0,-1.3333333,454.31253,319.6784)"
         clip-path="url(#clipPath21)" />
      <path
         id="path22"
         d="m 0,0 -78.471,-18.898 -9.331,55.264 -10.558,-0.778 c -4.461,-30.381 -9.384,-61.187 -2.362,-91.571 30.147,-4.23 60.292,-0.478 90.434,7.418 z"
         style="fill:#035e1b;fill-opacity:1;fill-rule:evenodd;stroke:none"
         transform="matrix(1.3333333,0,0,-1.3333333,400.52867,159.71093)"
         clip-path="url(#clipPath23)" />
      <path
         id="path24"
         d="m 0,0 c 0.064,35.936 -7.73,80.734 13.367,104.996 34.579,39.768 84.596,5.605 83.736,-37.8 C 96.784,51.203 86.67,37.692 78.502,23.309 71.58,11.125 71.384,5.899 71.653,-7.084 72.009,-24.046 -0.083,-47.548 0,0"
         style="fill:#087826;fill-opacity:1;fill-rule:evenodd;stroke:none"
         transform="matrix(1.3333333,0,0,-1.3333333,358.7748,310.23307)"
         clip-path="url(#clipPath25)" />
      <path
         id="path26"
         d="m 0,0 66.987,-118.191 7.656,3.112 C 63.42,-39.662 51.2,12.257 4.395,43.008 -7.357,42.307 -7.905,13.942 0,0"
         style="fill:#18963a;fill-opacity:1;fill-rule:evenodd;stroke:none"
         transform="matrix(1.3333333,0,0,-1.3333333,467.19667,231.1608)"
         clip-path="url(#clipPath27)" />
      <path
         id="path28"
         d="m 0,0 -0.288,0.3 c -5.52,5.703 -9.047,11.75 -11.299,19.361 l -5.175,17.498 -19.858,-3.348 2.617,-13.372 c 0.973,-4.968 -1.18,-9.78 -5.532,-12.365 L -44.886,4.891 C -45.125,-6.625 -7.905,-8.178 0,0"
         style="fill:#f5b290;fill-opacity:1;fill-rule:evenodd;stroke:none"
         transform="matrix(1.3333333,0,0,-1.3333333,458.46093,159.17187)"
         clip-path="url(#clipPath29)" />
      <path
         id="path30"
         d="m 0,0 -1.519,5.133 -19.857,-3.347 2.616,-13.372 c 0.622,-3.17 -0.031,-6.282 -1.718,-8.788 C -12.26,-21.755 -4.53,-13.476 0,0"
         style="fill:#f29d72;fill-opacity:1;fill-rule:evenodd;stroke:none"
         transform="matrix(1.3333333,0,0,-1.3333333,438.13613,116.47133)"
         clip-path="url(#clipPath31)" />
      <path
         id="path32"
         d="m 0,0 c -0.103,-0.49 -0.208,-0.983 -0.318,-1.48 -5.633,-25.259 -19.66,-43.627 -31.33,-41.023 -11.673,2.6 -16.567,25.189 -10.935,50.451 0.11,0.493 0.227,0.983 0.344,1.47 z"
         style="fill:#f5b290;fill-opacity:1;fill-rule:evenodd;stroke:none"
         transform="matrix(1.3333333,0,0,-1.3333333,449.6028,79.834667)"
         clip-path="url(#clipPath33)" />
      <path
         id="path34"
         d="m 0,0 c 3.032,0 5.85,-0.917 8.193,-2.489 2.251,-1.514 4.858,-1.82 7.396,-0.868 1.253,0.469 2.61,0.726 4.028,0.726 5.798,0 10.595,-4.301 11.372,-9.888 0.35,-2.516 1.686,-4.54 3.863,-5.853 3.053,-1.841 5.099,-5.193 5.099,-9.02 0,-2.371 -0.783,-4.561 -2.106,-6.319 -1.682,-2.236 -2.102,-4.925 -1.186,-7.566 0.352,-1.01 0.542,-2.095 0.542,-3.222 0,-5.415 -4.391,-9.807 -9.81,-9.807 -4.472,0 -8.249,2.995 -9.425,7.088 -0.735,2.551 -2.468,4.428 -4.952,5.366 -3.461,1.305 -6.236,4.018 -7.624,7.442 -1.169,2.891 -3.679,4.757 -6.784,5.048 -7.474,0.704 -13.321,6.996 -13.321,14.65 C -14.715,-6.586 -8.129,0 0,0"
         style="fill:#4d4441;fill-opacity:1;fill-rule:evenodd;stroke:none"
         transform="matrix(1.3333333,0,0,-1.3333333,408.5248,45.827467)"
         clip-path="url(#clipPath35)" />
      <path
         id="path36"
         d="m 0,0 c 3.728,0 6.193,-4.08 5.501,-9.115 -0.689,-5.028 -4.275,-9.109 -8.006,-9.109 -3.73,0 -6.193,4.081 -5.501,9.109 C -7.316,-4.08 -3.733,0 0,0"
         style="fill:#f5b290;fill-opacity:1;fill-rule:evenodd;stroke:none"
         transform="matrix(1.3333333,0,0,-1.3333333,429.09373,86.201867)"
         clip-path="url(#clipPath37)" />
      <path
         id="path38"
         d="m 0,0 -17.96,-4.381 c -0.925,-0.22 -1.746,-0.599 -2.457,-1.124 -1.788,-1.316 -2.566,-3.463 -2.027,-5.62 0.536,-2.157 2.23,-3.694 4.429,-4.016 l 2.447,-0.361 c 4.156,-0.609 7.857,-0.204 11.779,1.296 l 16.215,6.209 -1.693,6.906 z"
         style="fill:#023d12;fill-opacity:1;fill-rule:evenodd;stroke:none"
         transform="matrix(1.3333333,0,0,-1.3333333,363.48693,689.06387)"
         clip-path="url(#clipPath39)" />
      <path
         id="path40"
         d="m 0,0 -3.863,-15.365 c -1.021,-4.054 -0.744,-7.88 0.845,-11.65 0.708,-1.681 1.939,-2.867 3.648,-3.51 1.71,-0.643 3.415,-0.564 5.057,0.235 1.63,0.794 3.138,1.838 4.58,3.162 l 1.72,1.58 c 3.43,3.151 4.739,7.633 3.544,12.138 L 9.417,9.623 Z"
         style="fill:#035e1b;fill-opacity:1;fill-rule:evenodd;stroke:none"
         transform="matrix(1.3333333,0,0,-1.3333333,516.84893,703.61067)"
         clip-path="url(#clipPath41)" />
      <path
         id="path42"
         d="m 0,0 1.794,16.505 -3.356,12.087 c -0.876,3.151 0.242,6.353 2.89,8.277 l 7.323,5.321 c 2.192,1.594 5.084,1.511 7.183,-0.207 l 1.524,-1.247 c 1.789,-1.464 2.537,-3.68 1.995,-5.929 L 17.059,25.259 C 16.716,23.835 15.628,22.806 14.186,22.545 L 13.876,22.49 12.579,16.307 C 12.116,14.098 10.563,12.444 8.386,11.844 L 8.372,11.841 10.558,0.778 Z"
         style="fill:#f5b290;fill-opacity:1;fill-rule:evenodd;stroke:none"
         transform="matrix(1.3333333,0,0,-1.3333333,269.38213,112.2604)"
         clip-path="url(#clipPath43)" />
      <path
         id="path44"
         d="M 0,0 -2.565,-2.582 C -4.683,-4.71 -6.033,-6.995 -6.872,-9.874 l -1.825,-6.242 -1.973,-2.963 0.598,-0.211 c 1.53,-0.539 3.172,-0.03 4.129,1.284 l 2.313,3.169 c 0.265,0.365 0.647,0.562 1.096,0.562 0.446,0.003 0.833,-0.194 1.098,-0.552 l 2.964,-4.008 -1.436,-9.095 -4.983,-1.427 c -1.204,-0.347 -1.993,-1.418 -1.967,-2.67 l 0.013,-0.687 13.788,2.967 c 1.176,0.255 2.102,0.877 2.782,1.869 l 5.409,7.897 c 1.535,2.235 1.716,4.937 0.487,7.359 L 7.655,3.112 Z"
         style="fill:#f5b290;fill-opacity:1;fill-rule:evenodd;stroke:none"
         transform="matrix(1.3333333,0,0,-1.3333333,556.51307,388.74867)"
         clip-path="url(#clipPath45)" />
      <path
         id="path46"
         d="M 0,0 C 0.845,0 1.633,-1.437 1.755,-3.211 1.881,-4.98 1.295,-6.414 0.45,-6.414 c -0.845,0 -1.633,1.434 -1.758,3.203 C -1.434,-1.437 -0.849,0 0,0"
         style="fill:#332d2a;fill-opacity:1;fill-rule:evenodd;stroke:none"
         transform="matrix(1.3333333,0,0,-1.3333333,394.20253,97.881467)"
         clip-path="url(#clipPath47)" />
      <path
         id="path48"
         d="M 0,0 C 1.749,0 3.174,0.765 3.174,1.702 3.174,2.643 1.749,3.411 0,3.411 -1.748,3.411 -3.176,2.643 -3.176,1.702 -3.176,0.765 -1.748,0 0,0"
         style="fill:#332d2a;fill-opacity:1;fill-rule:evenodd;stroke:none"
         transform="matrix(1.3333333,0,0,-1.3333333,394.33653,98.983733)"
         clip-path="url(#clipPath49)" />
      <path
         id="path50"
         d="m 0,0 c -1.17,0 -2.258,-1.437 -2.429,-3.211 -0.172,-1.769 0.637,-3.203 1.804,-3.203 1.17,0 2.254,1.434 2.429,3.203 C 1.975,-1.437 1.166,0 0,0"
         style="fill:#332d2a;fill-opacity:1;fill-rule:evenodd;stroke:none"
         transform="matrix(1.3333333,0,0,-1.3333333,408.60227,97.881467)"
         clip-path="url(#clipPath51)" />
      <path
         id="path52"
         d="M 0,0 C 2.417,0 4.387,0.765 4.387,1.702 4.387,2.643 2.417,3.411 0,3.411 -2.414,3.411 -4.383,2.643 -4.383,1.702 -4.383,0.765 -2.414,0 0,0"
         style="fill:#332d2a;fill-opacity:1;fill-rule:evenodd;stroke:none"
         transform="matrix(1.3333333,0,0,-1.3333333,408.41347,98.983733)"
         clip-path="url(#clipPath53)" />
      <path
         id="path54"
         d="M 0,0 C 4.662,-4.649 8.978,-2.432 13.173,2.178 8.782,1.452 4.392,0.729 0,0"
         style="fill:#ffffff;fill-opacity:1;fill-rule:evenodd;stroke:none"
         transform="matrix(1.3333333,0,0,-1.3333333,399.36,126.86067)"
         clip-path="url(#clipPath55)" />
    </g>
  </g>
</svg>
