<?xml version="1.0" encoding="UTF-8" standalone="no"?>
<!-- Created with Inkscape (http://www.inkscape.org/) -->

<svg
   width="400mm"
   height="400mm"
   viewBox="0 0 399.99999 400.00001"
   version="1.1"
   id="svg1"
   xml:space="preserve"
   xmlns="http://www.w3.org/2000/svg"
   xmlns:svg="http://www.w3.org/2000/svg"><defs
     id="defs1" /><g
     id="layer1"
     transform="translate(-2016.7177,-25.177763)"><g
       id="g128"
       transform="matrix(1.1062026,0,0,1.1062026,-31.180146,-6.6722771)"
       style="stroke-width:0.903994"><rect
         style="fill:#abc837;fill-opacity:1;stroke-width:1.35599;stroke-linecap:square;paint-order:stroke markers fill"
         id="rect31-52-5"
         width="361.59741"
         height="361.59741"
         x="1851.2864"
         y="28.792231" /><ellipse
         style="fill:#89a02c;fill-opacity:1;stroke-width:1.35599;stroke-linecap:square;paint-order:stroke markers fill"
         id="path31-7-7"
         cx="2027.309"
         cy="350.52927"
         rx="74.808273"
         ry="21.772556" /><g
         id="g123"
         transform="translate(109.14449,24.091797)"
         style="stroke-width:0.903994"><path
           id="path118"
           style="fill:#d05454;fill-opacity:1;stroke-width:5.12499;stroke-linecap:square;paint-order:stroke markers fill"
           d="m 6150.3868,629.74024 c -3.0544,0.1792 -4.7312,3.34844 -4.9727,6.08399 -0.3494,2.49613 0.4432,5.4187 2.8614,6.60742 1.1938,0.79103 2.9032,1.33487 4.0879,0.20898 1.9868,-1.33012 3.4878,-3.5044 3.3925,-5.97265 0.2274,-3.08588 -1.7243,-6.5551 -5.0156,-6.91797 -0.1174,-0.009 -0.2358,-0.0132 -0.3535,-0.01 z m -0.3457,57.06641 c -2.7072,0.17407 -4.1383,3.08335 -4.5195,5.46094 -0.4884,2.62405 0.093,5.92966 2.7597,7.16797 1.3569,1.02203 3.3183,1.00324 4.5625,-0.19727 1.7815,-1.2076 2.9678,-3.23389 2.8438,-5.41992 0.3272,-2.7841 -1.1414,-6.0013 -3.9805,-6.81446 -0.5407,-0.15054 -1.1063,-0.20161 -1.666,-0.19726 z m 2.3086,133.96875 c -3.0476,0.12335 -4.7831,3.34292 -4.9219,6.08203 -0.2568,2.40344 0.3355,5.22091 2.6563,6.43946 1.1913,0.76353 2.8303,1.50937 4.0879,0.44531 2.2122,-1.33651 3.8115,-3.7562 3.6445,-6.40235 0.01,-3.0693 -2.0652,-6.59559 -5.4668,-6.56445 z m -0.088,56.96875 c -2.6541,0.0976 -4.2862,2.85834 -4.709,5.20899 -0.1173,2.25428 -0.441,5.02731 1.5645,6.60546 1.3392,1.26684 3.4945,2.41852 5.1933,1.08204 2.4656,-1.4981 3.9391,-4.44365 3.4199,-7.31641 -0.3452,-2.74446 -2.4555,-5.664 -5.4687,-5.58008 z m -1.8672,58.04297 c -2.8209,0.0214 -4.5154,2.84836 -4.8613,5.36133 -0.5651,2.71716 0.1333,6.09761 2.8867,7.35547 1.3372,0.88924 3.2005,0.99202 4.3945,-0.20508 1.9016,-1.30001 3.0631,-3.51512 2.9512,-5.82813 0.2317,-3.11035 -1.9842,-6.70434 -5.3711,-6.68359 z m -0.072,57.01563 c -2.8976,0.0182 -4.4967,3.06475 -4.8476,5.58398 -0.4866,2.69787 0.3332,5.98787 3.039,7.19727 1.3322,0.9234 3.2061,0.8569 4.334,-0.3652 1.7623,-1.3866 3.1426,-3.459 2.916,-5.79105 0.1987,-3.12216 -2.0603,-6.65783 -5.4414,-6.625 z"
           transform="matrix(0.26458333,0,0,0.26458333,293.59116,2.6851487)" /><path
           style="fill:#000000;stroke-width:0.903994"
           d="m 1907.1784,341.35925 c -2.0411,-0.483 -4.0696,-1.60386 -5.3279,-2.94395 -1.5753,-1.67764 -3.256,-5.042 -3.7739,-7.55448 -0.43,-2.0864 -0.2581,-4.76181 0.5703,-8.87353 l 0.4145,-2.05758 -1.741,-1.84553 c -1.9274,-2.04318 -2.8302,-3.60932 -3.4383,-5.96446 -0.6568,-2.54389 -2.2071,-11.94366 -3.0735,-18.63423 -0.4428,-3.41974 -0.9182,-6.87255 -1.0566,-7.67292 -0.3413,-1.97505 -0.7359,-7.3944 -0.9342,-12.83229 l -0.164,-4.49792 -1.0497,-1.51207 c -2.7114,-3.90585 -3.1408,-6.65934 -2.6316,-16.87647 0.5217,-10.46674 1.6255,-17.65405 4.8868,-31.81842 0.083,-0.36209 -0.1599,-0.53253 -1.0966,-0.76839 -0.662,-0.16671 -1.5972,-0.64866 -2.0783,-1.07101 -0.481,-0.42235 -1.2084,-0.82499 -1.6164,-0.89477 -2.4138,-0.41283 -4.6489,-1.51866 -5.4686,-2.70564 -0.37,-0.53573 -1.1167,-2.34328 -1.6594,-4.01677 -0.8071,-2.48892 -0.9832,-3.41381 -0.9674,-5.08172 0.024,-2.58378 0.7265,-4.19183 2.2006,-5.04021 1.1653,-0.67068 1.3157,-1.14203 1.3184,-4.13249 0,-1.11256 0.244,-3.02619 0.5416,-4.26641 0.2969,-1.23693 0.6566,-3.47988 0.7995,-4.98433 0.2713,-2.85749 1.3107,-8.87699 1.9829,-11.48388 1.4865,-5.76474 4.1912,-11.07416 5.9213,-11.62338 0.2971,-0.0943 0.1001,-0.65515 -0.8727,-2.48541 -3.625,-6.81968 -3.9157,-7.95375 -2.7128,-10.58128 0.3828,-0.83612 0.6471,-1.56914 0.5873,-1.62895 -0.06,-0.0598 -0.7274,-0.27191 -1.4834,-0.47136 -2.0779,-0.54813 -4.1518,-1.89751 -6.3613,-4.1389 -2.2135,-2.24551 -3.2105,-3.86078 -3.827,-6.20045 -0.7993,-3.03368 0.4517,-6.06134 2.8857,-6.98366 l 0.7701,-0.29184 -0.8067,-0.85026 c -1.6561,-1.7456 -2.6208,-4.99024 -2.3212,-7.80767 0.1059,-0.99641 0.071,-1.79384 -0.087,-1.98452 -0.1456,-0.17532 -0.692,-1.8092 -1.2144,-3.63086 -0.7888,-2.75068 -0.9582,-3.78611 -0.999,-6.10854 -0.044,-2.50988 0.017,-2.92118 0.5967,-4.01366 0.3552,-0.66947 1.217,-1.81722 1.9152,-2.55055 0.8822,-0.92673 1.3954,-1.75873 1.6829,-2.728266 0.8294,-2.79694 2.3036,-5.9411 3.7554,-8.00952 3.534,-5.03502 8.1714,-8.38701 15.046,-10.87552 6.8875,-2.49319 10.9988,-3.10397 17.4118,-2.58674 7.869,0.63467 9.9704,1.32188 14.5902,4.77133 2.6542,1.9818 2.5121,1.82622 5.6175,6.15155 1.4644,2.03969 2.54,3.25406 3.3207,3.74914 3.3057,2.09643 4.5567,4.2373 4.9118,8.405676 0.1207,1.41757 0.1126,3.55676 -0.018,4.80435 -0.1298,1.23692 -0.3498,3.32052 -0.4889,4.6302 -0.6145,5.78442 -0.6163,6.00416 -0.047,5.69938 0.283,-0.15148 1.0094,-0.27542 1.6142,-0.27542 2.4706,0 4.6344,2.85475 4.9246,6.49721 0.2468,3.09721 -0.8986,7.14821 -2.6824,9.48693 -1.0208,1.33833 -3.3734,3.06586 -4.1751,3.06586 -0.6209,0 -0.7022,0.12085 -0.8454,1.25677 -0.087,0.69123 -0.2707,1.67349 -0.4078,2.18282 -0.7657,2.84443 -7.4528,9.02182 -13.9508,12.88738 -3.3242,1.97753 -3.342,1.99269 -3.1276,2.66825 0.1502,0.47335 0.2785,0.53363 0.6792,0.31917 1.2188,-0.65227 3.1747,0.11211 3.1747,1.24072 0,0.39925 0.3094,0.45203 0.6746,0.11507 0.5566,-0.51347 3.323,-1.30532 6.0846,-1.74164 2.6711,-0.42201 3.104,-0.42735 5.0271,-0.062 5.2749,1.00204 9.4202,3.73742 11.3046,7.45955 0.221,0.43656 0.6821,1.68672 1.0247,2.77812 0.5332,1.69853 0.6193,2.4989 0.5981,5.55625 -0.038,5.54834 -1.8227,14.66578 -4.3606,22.28263 -1.9417,5.82759 -2.438,9.26807 -1.7972,12.45876 0.3613,1.79923 0.056,2.75422 -1.2237,3.83256 -1.6675,1.40466 -1.7584,1.72716 -1.4773,5.24004 0.1386,1.73225 0.325,4.7569 0.4141,6.72143 0.2951,6.5044 1.7264,19.92437 2.9207,27.38437 0.4787,2.98997 1.1635,8.84978 1.3655,11.68452 0.1434,2.01188 0.1,2.27415 -0.636,3.83646 -0.4344,0.92232 -1.5867,2.62944 -2.5605,3.79361 -1.3462,1.60919 -1.729,2.24353 -1.5965,2.64583 0.3342,1.01523 0.436,14.14164 0.14,18.05765 -0.2945,3.89677 -1.001,9.89738 -1.7835,15.14756 -0.2277,1.52797 -0.5726,3.90922 -0.7664,5.29167 -0.3438,2.45225 -0.805,4.11281 -1.4844,5.3445 -0.2023,0.3668 -0.3574,1.76501 -0.3904,3.51904 -0.063,3.35017 -0.7059,7.42737 -1.4302,9.06952 -0.2746,0.62261 -1.1694,1.83461 -1.9885,2.69334 -1.232,1.29157 -1.8278,1.68481 -3.449,2.27607 -2.4245,0.88426 -3.8966,0.79646 -5.4962,-0.32781 -2.2596,-1.58809 -3.6147,-4.13183 -4.0194,-7.54519 -0.1723,-1.45249 -0.1167,-1.64386 1.535,-5.29167 2.2446,-4.95696 2.201,-4.78279 1.412,-5.63408 -0.7436,-0.8024 -2.7516,-5.42673 -3.5626,-8.20477 -0.5678,-1.94452 -2.7321,-10.74506 -3.8067,-15.47812 l -0.6307,-2.77813 -0.1924,4.8564 c -0.1059,2.67102 -0.4249,7.49305 -0.709,10.71563 -0.284,3.22257 -0.6445,8.12141 -0.8011,10.88631 -0.2365,4.17778 -0.3726,5.17809 -0.8051,5.92094 -0.3862,0.66334 -0.4816,1.17511 -0.3697,1.98438 0.083,0.59978 0.048,1.70417 -0.078,2.4542 -0.1741,1.03947 -0.1166,1.79352 0.2419,3.17152 0.2587,0.99431 0.6727,3.47698 0.9201,5.51706 0.4166,3.43601 0.4181,3.81801 0.02,5.18592 -0.5196,1.78731 -2.0834,3.66799 -3.7011,4.45111 -1.1828,0.57258 -2.5358,0.66025 -4.1811,0.27092 z m 3.4209,-2.20952 c 1.2081,-0.63117 2.2234,-1.91633 2.5703,-3.25361 0.2669,-1.02911 0.2633,-1.99344 -0.019,-4.97797 -0.1925,-2.03588 -0.4733,-4.23664 -0.624,-4.89057 -0.1507,-0.65393 -0.2768,-2.05217 -0.2804,-3.1072 0,-1.05502 -0.077,-1.91822 -0.1641,-1.91822 -0.087,0 -0.4784,0.22844 -0.8705,0.50765 -1.0941,0.77907 -3.8321,1.60901 -5.3082,1.60901 -1.5151,0 -3.0732,-0.53961 -4.7417,-1.64212 -0.6359,-0.42019 -1.2112,-0.70896 -1.2784,-0.64171 -0.067,0.0673 -0.1895,1.96465 -0.2717,4.21646 -0.1696,4.64748 -0.01,5.62517 1.4357,8.63696 1.3212,2.75798 3.1716,4.56389 5.399,5.26906 2.0249,0.64107 3.1905,0.69504 4.1529,0.19226 z m 20.2221,-9.8508 c 1.615,-0.62104 4.0698,-3.08595 4.5625,-4.58131 0.5622,-1.70609 1.4621,-7.20225 1.4621,-8.92944 0,-1.28581 -0.054,-1.43426 -0.463,-1.26202 -0.2546,0.10737 -1.1774,0.36915 -2.0505,0.58174 -1.96,0.47723 -4.574,0.1307 -6.5677,-0.87065 -0.7209,-0.36211 -1.3362,-0.62525 -1.3674,-0.58476 -0.031,0.0405 -0.1993,0.66894 -0.3737,1.39654 -0.1744,0.7276 -0.7983,2.57307 -1.3865,4.10104 -1.0586,2.75051 -1.0663,2.79611 -0.7739,4.58692 0.3741,2.29162 0.9858,3.48491 2.5035,4.88383 1.381,1.27294 2.4748,1.43945 4.4546,0.67811 z m -20.7703,-9.25264 c 1.7367,-0.88819 3.0492,-2.49809 2.8781,-3.5304 -0.1078,-0.65028 0.6424,-11.30104 1.1469,-16.28353 0.1473,-1.4552 0.3925,-3.95552 0.5449,-5.55625 0.3623,-3.80632 1.0398,-8.51572 1.338,-9.29985 l 0.2364,-0.62202 h -2.3323 c -6.6154,0 -13.5988,-3.98686 -21.6975,-12.38711 -2.1586,-2.23901 -2.2107,-2.27378 -2.0555,-1.37122 0.088,0.50932 0.3432,2.9501 0.568,5.42395 0.2248,2.47386 0.7621,6.9387 1.1941,9.92188 0.432,2.98318 1.3877,10.24599 2.1237,16.13958 0.9008,7.21332 1.485,11.01544 1.7874,11.63294 0.5905,1.20578 5.3002,5.15561 7.3284,6.1459 1.414,0.69044 1.7976,0.76318 3.5105,0.6657 1.4537,-0.0827 2.2906,-0.29739 3.4289,-0.87957 z m 25.9948,-7.37626 c 1.8765,-0.66205 1.8324,-0.559 2.7732,-6.49256 0.2198,-1.38686 0.5199,-4.1253 0.6667,-6.08542 0.1469,-1.96012 0.447,-5.05213 0.6671,-6.87114 0.4096,-3.38538 0.7746,-9.51324 1.0559,-17.72709 l 0.1586,-4.63021 -0.8714,1.05834 c -2.5197,3.06034 -7.1418,7.14778 -9.9317,8.78275 -1.9271,1.12939 -7.8647,3.0581 -12.0353,3.9095 l -0.7223,0.14745 0.5368,1.36179 c 0.7468,1.89475 2.7068,8.90363 3.9658,14.18169 0.5806,2.43383 1.4843,5.87407 2.0083,7.64496 l 0.9527,3.21982 1.4884,0.65977 c 1.4572,0.64596 2.9452,1.1142 4.2665,1.34263 1.0808,0.18685 3.8538,-0.0906 5.0207,-0.50228 z m -20.6318,-31.42152 c -4e-4,-0.90951 -0.1174,-4.15396 -0.26,-7.2099 -0.7416,-15.89841 -1.1515,-50.83943 -0.6613,-56.38147 l 0.1894,-2.14188 -3.8009,-0.23034 c -7.0557,-0.42758 -9.8927,-0.1526 -12.9109,1.25143 -1.5349,0.71401 -4.4124,1.25352 -6.7929,1.27361 -0.4903,0.004 -0.5757,0.20468 -0.7129,1.67441 -0.086,0.91835 -0.5786,4.22233 -1.0952,7.34219 -1.9476,11.76278 -2.6817,20.50683 -2.4849,29.59821 0.1047,4.83522 0.1194,4.94136 0.9198,6.63364 2.7635,5.84293 12.3028,14.81697 19.3287,18.18329 1.9479,0.93329 4.784,1.594 7.025,1.63658 l 1.2568,0.0239 z m 3.8251,1.24408 c 1.469,-0.18854 7.863,-2.05131 9.6217,-2.8031 1.6118,-0.68898 6.7549,-4.61637 8.6637,-6.61589 0.8825,-0.92445 2.121,-2.45473 2.7521,-3.40061 0.6312,-0.94589 1.7928,-2.52762 2.5815,-3.51497 0.7886,-0.98734 1.7381,-2.45959 2.1099,-3.27166 0.581,-1.26904 0.6555,-1.72313 0.5309,-3.23191 -0.1959,-2.37017 -0.8726,-7.64881 -1.4971,-11.67729 -1.1411,-7.36055 -2.0406,-15.92719 -2.3891,-22.75417 -0.3156,-6.18149 -0.8412,-11.90625 -1.0931,-11.90625 -0.1064,0 -0.53,0.27997 -0.9414,0.62215 -1.5963,1.3279 -2.5179,1.51361 -4.1425,0.83479 -0.7376,-0.30818 -1.1086,-0.3306 -1.686,-0.10186 -0.4071,0.16131 -1.212,0.27945 -1.7887,0.26255 -0.5766,-0.0169 -2.8388,0.22154 -5.0271,0.52986 -3.2983,0.46474 -4.6459,0.53038 -7.8812,0.3839 l -3.9026,-0.1767 7e-4,10.79505 c 7e-4,10.47829 0.3669,33.31782 0.6503,40.56068 0.077,1.96453 0.157,5.83406 0.1779,8.59895 0.021,2.7649 0.094,5.5361 0.1622,6.15822 0.1206,1.09938 0.1474,1.12756 0.9556,1.00383 0.4573,-0.07 1.4213,-0.20303 2.1423,-0.29557 z m 1.0117,-13.37333 c -1.262,-0.46683 -1.5381,-2.50374 -0.4825,-3.55934 0.8518,-0.8518 1.3381,-0.81921 2.3123,0.15492 0.6706,0.67064 0.7767,0.94265 0.6379,1.63628 -0.2909,1.45479 -1.3206,2.19251 -2.4677,1.76814 z m 1.2946,-0.94249 c 0.8381,-0.75849 0.3718,-2.47253 -0.6727,-2.47253 -0.9674,0 -1.3684,2.11715 -0.4971,2.62464 0.6097,0.35509 0.6093,0.35514 1.1698,-0.15211 z m -1.2946,-14.13876 c -1.262,-0.46683 -1.5381,-2.50374 -0.4825,-3.55934 0.8518,-0.8518 1.3381,-0.81921 2.3123,0.15492 0.6706,0.67064 0.7767,0.94265 0.6379,1.63628 -0.2909,1.45479 -1.3206,2.19251 -2.4677,1.76814 z m 1.2946,-0.94249 c 0.8381,-0.75849 0.3718,-2.47253 -0.6727,-2.47253 -0.9674,0 -1.3684,2.11715 -0.4971,2.62464 0.6097,0.35509 0.6093,0.35514 1.1698,-0.15211 z m -0.7655,-14.40334 c -1.2619,-0.46683 -1.538,-2.50375 -0.4824,-3.55934 0.8518,-0.8518 1.3381,-0.81922 2.3122,0.15492 0.6707,0.67064 0.7767,0.94264 0.638,1.63628 -0.2909,1.45479 -1.3206,2.19251 -2.4678,1.76814 z m 1.2947,-0.94249 c 0.8381,-0.7585 0.3717,-2.47253 -0.6728,-2.47253 -0.9674,0 -1.3683,2.11715 -0.497,2.62464 0.6096,0.35509 0.6093,0.35514 1.1698,-0.15211 z m -1.2947,-14.13876 c -1.2619,-0.46683 -1.538,-2.50375 -0.4824,-3.55934 0.8518,-0.8518 1.3381,-0.81922 2.3122,0.15492 0.6707,0.67064 0.7767,0.94264 0.638,1.63628 -0.2909,1.45479 -1.3206,2.19251 -2.4678,1.76814 z m 1.2947,-0.94249 c 0.8381,-0.7585 0.3717,-2.47253 -0.6728,-2.47253 -0.9674,0 -1.3683,2.11715 -0.497,2.62464 0.6096,0.35509 0.6093,0.35514 1.1698,-0.15211 z m -28.7526,-7.08402 c 1.6007,-0.19538 3.5652,-0.60378 4.3656,-0.90756 3.6338,-1.3792 10.2522,-1.7448 18.7358,-1.03498 4.607,0.38546 5.6202,0.39457 10.5529,0.0948 l 3.7564,-0.22826 -0.1522,-0.82346 c -0.3481,-1.88229 -2.0836,-5.32699 -3.7973,-7.53717 -2.2531,-2.9056 -5.4109,-6.13008 -6.606,-6.74535 l -0.9261,-0.47676 -1.5532,0.93739 c -3.2919,1.98663 -8.7831,3.33411 -13.6076,3.33912 -1.6557,0.002 -2.2796,-0.14546 -4.3657,-1.03002 -3.4001,-1.44173 -5.0944,-1.90998 -5.8591,-1.61925 -0.8504,0.32331 -1.1045,0.7992 -0.4268,0.7992 0.754,0 0.6808,0.39899 -0.1829,0.99648 -0.9615,0.66521 -2.4219,1.20893 -4.7625,1.77312 l -1.9182,0.4624 v 1.70502 c 0,1.28401 -0.1466,1.95978 -0.5938,2.73677 -0.5855,1.01732 -0.5869,1.04336 -0.1039,1.86109 0.4022,0.68089 0.4578,1.129 0.3106,2.50354 -0.3757,3.50798 0.6818,3.9814 7.134,3.19384 z m -9.1125,-4.90363 c -0.6557,-0.93793 -0.758,-1.35864 -0.5281,-2.17342 0.1761,-0.624 0.077,-0.7894 -0.8292,-1.38936 -1.335,-0.88345 -2.025,-2.27991 -2.4364,-4.9313 -0.3178,-2.04834 -0.3528,-2.12172 -0.7841,-1.64516 -0.2857,0.31568 -0.5143,1.17542 -0.6227,2.34179 -0.1492,1.60497 -0.068,2.16704 0.6257,4.35225 0.4383,1.3801 0.874,2.86646 0.9682,3.30302 0.2488,1.15307 0.9442,1.94041 2.4203,2.74046 l 1.303,0.7062 0.1763,-1.31657 c 0.1389,-1.03614 0.076,-1.45957 -0.293,-1.98791 z m 54.7026,2.21901 c 0.627,-0.25919 1.3883,-0.81986 1.6917,-1.24594 0.5067,-0.71169 0.5376,-1.00511 0.3795,-3.60797 -0.2017,-3.3216 -0.6324,-5.13782 -1.9046,-8.03122 -0.5109,-1.16207 -0.8799,-2.16187 -0.82,-2.22177 0.2172,-0.21728 1.5977,1.66678 2.2315,3.04574 0.9377,2.03975 1.3761,3.90186 1.3797,5.85963 v 1.7159 l 1.0669,-1.06697 1.067,-1.06696 -0.4332,-1.83956 c -0.3125,-1.32704 -0.3885,-2.44324 -0.2729,-4.0063 l 0.1603,-2.16673 -1.6056,-1.99582 c -0.883,-1.0977 -2.044,-2.35916 -2.58,-2.80325 -1.361,-1.12776 -6.512,-3.60789 -8.1973,-3.94689 -2.0547,-0.41331 -2.5518,-0.35791 -3.8557,0.4297 -0.9321,0.56298 -1.1989,0.88726 -1.2764,1.55147 -0.097,0.82959 -0.08,0.84309 1.4032,1.1189 1.9096,0.35514 4.0464,1.36432 5.4716,2.58423 0.9434,0.80753 1.4596,1.70658 0.9798,1.70658 -0.074,0 -1.1272,-0.53658 -2.3402,-1.1924 -3.0861,-1.66863 -5.7455,-2.55239 -6.3501,-2.11026 -0.2526,0.18466 -1.0192,0.41972 -1.7037,0.52236 -0.9756,0.14631 -1.4588,0.412 -2.237,1.23002 -1.0845,1.14008 -1.3075,2.07945 -0.4935,2.07945 1.3776,0 6.6125,4.68221 8.8174,7.88656 0.9979,1.45014 2.7353,5.36475 2.9946,6.74725 0.1792,0.95482 0.1846,0.95822 1.2972,0.80573 0.8243,-0.11299 1.3864,-0.0151 2.1439,0.3736 0.6218,0.31898 1.1876,0.44577 1.4347,0.32146 0.2244,-0.11291 0.921,-0.41734 1.548,-0.67654 z m -2.665,-3.97297 c -0.2358,-3.75905 -1.5693,-6.76377 -4.4112,-9.93999 -0.737,-0.82369 -1.34,-1.56783 -1.34,-1.65365 0,-0.82315 3.2121,2.12725 4.5281,4.1592 1.9367,2.9903 2.8298,7.79624 1.7287,9.3021 -0.3134,0.4287 -0.3761,0.19737 -0.5056,-1.86766 z m -51.625,-4.36445 c -0.039,-2.34567 0.3274,-2.71465 3.1493,-3.16987 1.9262,-0.31073 2.0069,-0.35481 3.1943,-1.74468 1.9772,-2.31442 3.3233,-2.69118 5.9915,-1.67706 0.7655,0.29097 1.4068,0.5291 1.4251,0.52917 0.018,7e-5 0.018,-3.7801 0,-8.40039 -0.028,-7.16049 0.2214,-20.8495 0.4422,-24.23912 0.058,-0.88908 0.1974,-1.08906 1.0728,-1.53818 1.1283,-0.57888 2.0081,-2.14724 2.0178,-3.59726 0.01,-1.21306 -1.2013,-3.72232 -3.2315,-6.70451 -1.5995,-2.34955 -2.4568,-4.45556 -2.1851,-5.36804 0.048,-0.16 0.1583,-0.61833 0.246,-1.01851 0.2483,-1.13329 0.8488,-0.89067 1.0278,0.41527 0.1846,1.34677 0.612,2.5615 0.9009,2.56078 0.4476,-0.001 1.9248,-2.55744 1.9248,-3.33077 0,-1.08615 -1.3904,-2.67348 -3.6455,-4.16175 -2.2599,-1.49147 -2.7507,-1.64093 -3.4343,-1.04591 -0.8771,0.76339 -4.0265,5.0699 -4.9913,6.82508 -1.3208,2.40301 -1.2436,3.36463 0.5907,7.3515 0.8163,1.77425 1.8246,3.88075 2.2408,4.68111 0.6402,1.23134 1.2717,3.21385 1.2957,4.06729 0,0.12696 -0.1722,0.0826 -0.3904,-0.0985 -0.3399,-0.28209 -0.3969,-0.19665 -0.3969,0.59514 0,1.36598 -1.0958,5.42242 -2.5194,9.32673 -1.4389,3.94629 -3.6537,10.78528 -5.935,18.3264 l -1.5802,5.22367 0.3833,2.55137 c 0.4562,3.03689 0.7268,3.82319 1.6478,4.78867 0.3818,0.40018 0.7157,0.7276 0.7421,0.7276 0.026,0 0.034,-0.84383 0.017,-1.87519 z m 21.4977,-4.34381 c 2.2745,-0.36452 5.2071,-0.99583 6.5168,-1.40291 l 2.3812,-0.74015 0.055,-2.89658 c 0.1712,-9.06963 0.9051,-25.0654 1.2953,-28.23042 l 0.1549,-1.25677 h -0.9594 c -1.2639,0 -2.1391,-0.38709 -5.9325,-2.62407 -2.7738,-1.6357 -3.3426,-1.87385 -4.4758,-1.87385 -1.2862,0 -1.3011,0.01 -1.6166,1.06272 -0.4167,1.39089 -1.6956,2.82304 -2.7222,3.04853 l -0.8181,0.17967 0.2338,4.79986 c 0.1286,2.63991 0.2233,6.2286 0.2104,7.97485 -0.042,5.66684 -0.5919,19.83014 -0.7896,20.33658 -0.1416,0.36256 0.045,0.72244 0.7072,1.36148 0.4948,0.47776 1.0627,0.88106 1.262,0.89623 0.1993,0.0152 2.2234,-0.27066 4.4979,-0.63517 z m 11.4785,-3.06214 c 1.3663,-0.52285 1.4586,-0.61847 1.8765,-1.94412 0.53,-1.68153 1.0632,-2.20324 2.8802,-2.81836 1.3401,-0.45367 1.3942,-0.51056 1.6556,-1.74279 0.2628,-1.23859 0.3104,-1.28791 1.7241,-1.78387 0.7997,-0.28053 1.4873,-0.53338 1.5281,-0.56189 0.2125,-0.14863 1.4213,-5.81289 2.031,-9.51679 0.9027,-5.48477 1.3863,-7.54236 1.908,-8.11882 0.7641,-0.84435 0.9477,-0.26391 0.7585,2.39765 -0.4389,6.17544 -1.3657,10.70311 -2.7701,13.53367 l -0.7619,1.5357 1.8937,-0.14112 c 1.5922,-0.11864 2.2307,-0.0284 4.0104,0.56671 2.2706,0.75929 5.1512,2.33827 6.6224,3.62999 0.4991,0.43825 1.3524,1.52919 1.8961,2.42431 l 0.9887,1.62749 0.2451,-0.92258 c 0.1348,-0.50742 0.7002,-2.35133 1.2564,-4.09758 1.9246,-6.04203 3.8367,-15.63725 4.1126,-20.6375 0.4341,-7.86563 -3.2265,-12.92193 -10.6538,-14.716 -2.1904,-0.5291 -2.5561,-0.54595 -5.359,-0.24699 -3.8868,0.41456 -5.4406,1.02001 -7.4292,2.8948 -2.5421,2.39653 -5.3487,4.76212 -6.6283,5.58655 -0.6548,0.42193 -1.5102,1.04088 -1.9009,1.37544 l -0.7104,0.60828 -0.017,4.83787 c -0.018,5.17945 -0.7116,24.13991 -0.9427,25.78766 -0.077,0.5457 -0.029,0.99218 0.105,0.99218 0.1343,0 0.8908,-0.24745 1.6812,-0.54989 z m 2.6525,-8.99967 c -1.262,-0.46683 -1.5381,-2.50374 -0.4825,-3.55934 0.8518,-0.8518 1.3381,-0.81921 2.3123,0.15492 0.6706,0.67064 0.7767,0.94265 0.6379,1.63628 -0.2909,1.45479 -1.3206,2.19251 -2.4677,1.76814 z m 1.2946,-0.94249 c 0.8381,-0.75849 0.3718,-2.47253 -0.6727,-2.47253 -0.9674,0 -1.3684,2.11715 -0.4971,2.62464 0.6097,0.35509 0.6093,0.35514 1.1698,-0.15211 z m -1.2946,-14.13876 c -1.262,-0.46683 -1.5381,-2.50374 -0.4825,-3.55934 0.8518,-0.8518 1.3381,-0.81921 2.3123,0.15492 0.6706,0.67064 0.7767,0.94265 0.6379,1.63628 -0.2909,1.45479 -1.3206,2.19251 -2.4677,1.76814 z m 1.2946,-0.94249 c 0.8381,-0.75849 0.3718,-2.47253 -0.6727,-2.47253 -0.9674,0 -1.3684,2.11715 -0.4971,2.62464 0.6097,0.35509 0.6093,0.35514 1.1698,-0.15211 z m 9.6332,-4.7314 c -0.1847,-0.73564 0.2056,-2.46396 0.8286,-3.6697 0.9788,-1.8944 4.8947,-5.13508 6.757,-5.59196 1.4898,-0.3655 0.7926,0.76698 -2.1853,3.54966 -2.4516,2.2908 -3.0488,3.01104 -3.7704,4.5474 -0.9101,1.93787 -1.3559,2.25638 -1.6299,1.1646 z m -46.5897,15.75262 c 0.824,-2.69214 2.3714,-7.09745 3.4388,-9.78958 2.4756,-6.24385 3.4132,-9.554 2.8988,-10.23424 -0.3439,-0.45482 -0.4005,-0.43757 -1.026,0.31236 -0.8688,1.04184 -2.0094,3.77825 -3.1429,7.54063 -0.8735,2.89932 -3.9097,16.42117 -3.8658,17.21652 0.025,0.4586 -0.1171,0.88212 1.6971,-5.04569 z m 31.355,-18.79719 c 0,-0.15199 -0.1951,-1.05303 -0.4336,-2.0023 -0.5035,-2.00432 -0.8025,-2.26745 -3.3307,-2.93053 -1.467,-0.38477 -1.916,-0.40851 -2.6573,-0.14046 -0.4906,0.17741 -1.092,0.32256 -1.3363,0.32256 -0.2603,0 -0.4442,0.20848 -0.4442,0.50344 0,0.47959 0.7705,1.07762 3.9395,3.05755 1.9535,1.2205 4.2626,1.86499 4.2626,1.18974 z m 3.0678,-1.27623 c 1.7777,-1.16448 6.558,-5.2599 6.651,-5.6981 0.034,-0.15947 -0.1016,-0.50275 -0.301,-0.76286 -0.3284,-0.42833 -0.4464,-0.43754 -1.2522,-0.0977 -0.4893,0.2064 -1.6635,0.6331 -2.6094,0.94821 -3.1606,1.05294 -3.8029,1.82709 -4.4612,5.37705 -0.2912,1.57067 -0.1028,1.59295 1.9728,0.23335 z m -1.0234,-4.99346 c 0.5003,-0.38159 1.5249,-0.90287 2.2769,-1.1584 l 1.3672,-0.46462 -0.093,-1.14099 c -0.051,-0.62754 -0.1221,-1.17231 -0.1578,-1.2106 -0.036,-0.0383 -0.4902,0.10811 -1.0101,0.32533 -1.6791,0.70157 -5.6922,1.46408 -7.7055,1.46408 h -1.9606 l -0.095,1.19062 c -0.09,1.1356 -0.062,1.19063 0.607,1.19063 0.3859,0 1.5006,0.24678 2.4772,0.5484 1.6156,0.49901 1.8147,0.6404 2.2106,1.56987 l 0.4352,1.02147 0.369,-1.32101 c 0.2653,-0.94978 0.6246,-1.51596 1.2786,-2.01478 z m -11.834,0.55813 c 0,-0.78518 0.7462,-1.17321 1.8971,-0.98644 l 0.9132,0.14819 -0.1112,-0.95254 c -0.061,-0.5239 -0.1445,-0.95254 -0.1853,-0.95254 -0.5881,0 -4.6875,-0.93288 -5.8363,-1.32813 -0.8376,-0.28818 -1.5602,-0.52396 -1.6058,-0.52396 -0.046,0 0.1951,0.40962 0.5349,0.91027 0.3397,0.50065 0.9493,1.67143 1.3546,2.60174 l 0.7369,1.69147 h 1.1509 c 1.0244,0 1.151,-0.0669 1.151,-0.60806 z m 15.0812,-6.56972 c 6.4216,-3.23633 13.4007,-8.28279 15.8963,-11.49416 1.5598,-2.00725 1.6985,-3.12233 1.1815,-9.49851 -0.2088,-2.57509 -0.4607,-5.85329 -0.5598,-7.28489 l -0.1802,-2.6029 -2.6809,-2.68876 c -1.5508,-1.55526 -3.6208,-4.02726 -4.9104,-5.86377 -2.7978,-3.98432 -2.8076,-3.99503 -2.0974,-2.28621 0.6362,1.53084 0.5005,2.21734 -0.4669,2.3632 -0.7752,0.11688 -5.0934,-2.68405 -6.4977,-4.21455 -1.3435,-1.46431 -2.7953,-4.04561 -3.5038,-6.2297 -0.3737,-1.15201 -0.5689,-1.39867 -1.2201,-1.54171 -0.4265,-0.0937 -0.8433,-0.28019 -0.9263,-0.41451 -0.239,-0.386726 -3.3912,-0.28457 -5.7955,0.18783 l -2.199,0.43207 -0.3226,1.08929 c -1.0517,3.55081 -3.8311,8.06524 -7.1458,11.60648 -2.8644,3.06015 -3.9374,3.11973 -3.0614,0.16998 0.2294,-0.77244 0.3206,-1.29039 0.2026,-1.15101 -0.118,0.13938 -0.7321,0.94239 -1.3647,1.78447 -0.6325,0.84207 -1.796,2.12135 -2.5854,2.84283 -1.45,1.32525 -5.476,3.9605 -6.0506,3.9605 -0.2204,0 -0.2718,0.49331 -0.1759,1.68786 0.1375,1.71318 -0.4106,4.95018 -1.1361,6.70898 -0.3329,0.80724 -0.2869,0.9964 0.8053,3.30729 0.6372,1.34809 1.7157,4.08818 2.3968,6.0891 0.681,2.00091 1.3138,3.6352 1.4062,3.63176 0.092,-0.003 0.5251,-0.49543 0.9616,-1.09331 0.8442,-1.15617 2.0186,-1.81085 3.2482,-1.81085 0.8628,0 3.475,1.489 4.7877,2.72907 1.9508,1.84274 2.9443,3.3464 2.9443,4.45584 0,1.24805 -0.2614,1.78792 -1.6854,3.48096 -1.2624,1.50083 -1.2388,1.53162 1.6799,2.19712 4.7271,1.07781 7.4905,1.39514 11.5149,1.32224 l 3.9687,-0.0719 z m -9.21,-8.80746 c 0.1094,-0.56821 2.657,-1.62321 4.4254,-1.83265 1.2832,-0.15197 2.6724,0.28949 2.2333,0.70968 -0.1908,0.18262 -5.9972,1.58598 -6.5619,1.58598 -0.1023,0 -0.1459,-0.20835 -0.097,-0.46301 z m -0.5737,-5.36889 c -1.7299,-0.62199 -2.5072,-1.3104 -2.2818,-2.02071 0.088,-0.27856 0.739,-0.9474 1.4456,-1.48631 2.0485,-1.56218 2.5756,-1.21254 0.9255,0.6139 -0.5297,0.58635 -0.8812,1.14798 -0.7811,1.24808 0.1001,0.10009 0.7337,0.4839 1.4081,0.8529 1.2125,0.66343 1.7689,1.34131 1.0858,1.32283 -0.194,-0.005 -1.005,-0.24406 -1.8021,-0.53069 z m -12.6576,-4.07543 c -0.9338,-1.06355 -1.3814,-3.37239 -0.8472,-4.37049 0.4209,-0.78646 1.9951,-1.41527 3.0484,-1.21768 2.4213,0.45425 3.1612,4.13902 1.1679,5.81627 -1.1925,1.00343 -2.357,0.92459 -3.3691,-0.2281 z m 1.5364,-1.86319 c 0.4708,-0.56733 0.1178,-1.72323 -0.5263,-1.72323 -0.6441,0 -0.9972,1.1559 -0.5263,1.72323 0.1795,0.21639 0.4164,0.39344 0.5263,0.39344 0.1099,0 0.3467,-0.17705 0.5263,-0.39344 z m 18.8,-3.52284 c -1.2939,-1.29397 -1.304,-4.30692 -0.018,-5.47049 0.61,-0.55204 2.259,-0.63201 3.1541,-0.15297 0.7649,0.40938 1.6016,2.23513 1.6092,3.51126 0,0.72738 -0.2077,1.22617 -0.8154,1.91823 -0.7102,0.80885 -0.9811,0.93525 -2.0047,0.93525 -0.9437,0 -1.3338,-0.15025 -1.9248,-0.74128 z m 1.6714,-2.30143 c 0.2322,-0.6051 -0.093,-1.19063 -0.6614,-1.19063 -0.5684,0 -0.8937,0.58553 -0.6615,1.19063 0.084,0.21828 0.3814,0.39687 0.6615,0.39687 0.28,0 0.5777,-0.17859 0.6614,-0.39687 z m -30.0994,-1.05242 c -1.0253,-0.36538 -1.4698,-0.77929 -1.4776,-1.37577 0,-0.38194 1.1555,-1.32125 1.936,-1.56709 0.8774,-0.27637 3.2046,-2.1493 7.0257,-5.65431 2.0164,-1.84965 3.6913,-3.1827 3.9988,-3.1827 1.2302,0 0.2039,4.36048 -1.7021,7.232 -2.6947,4.05966 -6.3636,5.76565 -9.7808,4.54787 z m 4.4831,-1.29398 c 1.6567,-0.77148 3.8364,-3.15125 4.8786,-5.32652 1.4313,-2.9871 1.3419,-3.08431 -0.9502,-1.03357 -2.9141,2.60729 -4.6342,3.91749 -6.815,5.19116 l -1.88,1.098 0.79,0.33683 c 1.1956,0.50978 2.4978,0.42271 3.9766,-0.2659 z m 22.8817,-6.79259 c -2.4499,-0.65113 -4.469,-1.8414 -6.0024,-3.53836 -0.8631,-0.95507 -1.1539,-1.48188 -1.0955,-1.98438 0.1217,-1.047 1.4692,-1.0243 5.169,0.0871 1.712,0.51424 4.5207,1.11457 6.2416,1.33407 3.565,0.45471 5.1992,0.87786 5.3987,1.39793 0.1988,0.51789 -0.9091,1.60072 -2.4422,2.38716 -1.7971,0.92178 -4.5422,1.04131 -7.2692,0.31651 z m 7.2522,-1.56841 c 0.6642,-0.32153 1.2076,-0.67495 1.2076,-0.78537 0,-0.11042 -1.4585,-0.27561 -3.2412,-0.36708 -3.733,-0.19155 -5.4744,-0.60292 -8.5318,-2.01547 -2.6635,-1.23051 -3.4176,-1.07261 -1.8397,0.38521 1.5971,1.47556 3.2064,2.31922 5.6752,2.97504 2.733,0.72604 4.9645,0.66227 6.7299,-0.19233 z m -36.8759,29.82354 c 1.1107,-1.40875 1.1226,-1.48123 0.3867,-2.35585 -0.9521,-1.13152 -1.4903,-2.26421 -2.6571,-5.59264 l -1.001,-2.85526 -2.1429,-1.32007 c -2.829,-1.74277 -3.8744,-2.05946 -4.7988,-1.45378 -0.9865,0.64639 -1.5365,2.11696 -1.3574,3.62928 0.4092,3.45467 4.9937,8.78772 8.8506,10.2955 1.7099,0.66846 1.9425,0.63876 2.7199,-0.34718 z m 54.1578,-12.45729 c 2.2243,-2.35182 3.4885,-5.62351 3.5003,-9.05823 0.01,-2.99521 -1.4575,-5.67041 -3.111,-5.67041 -1.028,0 -2.3914,0.95043 -3.2964,2.29794 l -0.7346,1.09373 0.3792,1.80989 c 0.2086,0.99544 0.5933,3.86372 0.8549,6.37396 0.3058,2.93328 0.5825,4.56406 0.7745,4.56406 0.1643,0 0.8992,-0.63492 1.6331,-1.41094 z m -58.2076,-1.56562 c -0.2778,-1.50145 -0.1536,-3.58899 0.4153,-6.98532 l 0.3613,-2.15666 -1.0507,0.37073 c -1.3386,0.47225 -2.9487,0.4761 -3.3372,0.008 -0.2309,-0.27821 -0.078,-1.03358 0.655,-3.24115 1.0394,-3.12923 1.2714,-3.54304 1.7294,-3.08504 0.2184,0.21836 0.1975,0.89192 -0.079,2.56646 -0.2065,1.24872 -0.3456,2.27039 -0.309,2.27039 0.037,0 1.1736,-0.53124 2.5268,-1.18053 4.4227,-2.12207 7.3949,-4.40136 9.9599,-7.63786 1.7314,-2.18467 2.3086,-3.3996 2.6445,-5.56672 0.3112,-2.00672 0.4698,-2.32577 0.8684,-1.74681 0.1652,0.23996 0.2159,1.70822 0.1321,3.8288 l -0.1358,3.43958 0.8022,-0.92604 c 4.8907,-5.64543 8.0924,-15.666736 5.7887,-18.118866 -1.8275,-1.94534 -5.6163,-0.6484 -10.2718,3.51616 -2.47,2.2095 -4.2776,4.622066 -7.8283,10.448546 -1.5697,2.57583 -2.9185,4.68333 -2.9973,4.68333 -0.079,0 -0.073,-0.43421 0.013,-0.9649 l 0.1566,-0.9649 -1.3034,1.42792 c -0.7169,0.78535 -2.335,2.90981 -3.5958,4.72102 l -2.2924,3.2931 0.143,1.89102 c 0.2085,2.75693 1.0804,5.42708 2.2155,6.7844 0.5255,0.6284 1.066,1.38475 1.2012,1.68078 0.1353,0.29603 0.7542,0.85984 1.3755,1.25292 0.6214,0.39307 1.3468,0.95454 1.6121,1.2477 0.7499,0.82865 0.8781,0.6458 0.6003,-0.85604 z m 54.7083,-12.53787 0.719,-1.22692 -0.1362,-4.52776 c -0.138,-4.58565 -0.3535,-5.85738 -1.5209,-8.97764 -1.4,-3.74192 -5.7549,-8.482116 -8.9621,-9.755006 -2.1244,-0.84315 -6.7257,-0.8546 -8.5618,-0.0213 -0.6912,0.31371 -1.2568,0.73721 -1.2568,0.94112 0,0.20391 -0.2244,0.57388 -0.4988,0.82216 -1.1747,1.06315 -0.8724,3.49326 0.8921,7.171226 1.2588,2.62394 2.5847,4.29042 4.5105,5.66933 l 1.2666,0.90683 -0.1712,-0.85607 c -0.7259,-3.62935 -0.8109,-8.23957 -0.1593,-8.64226 0.3467,-0.214256 0.652,0.739 1.0015,3.12689 0.2943,2.01046 0.3446,2.10918 2.2364,4.38207 1.0644,1.27891 2.6928,3.32991 3.6186,4.55779 3.74,4.96035 5.8758,7.56873 6.2624,7.64805 0.023,0.005 0.3645,-0.54371 0.76,-1.21852 z m -57.8393,-7.48155 c 0.9496,-0.93336 2.2573,-2.03368 2.9061,-2.44516 1.0119,-0.64171 1.4087,-1.19068 2.7894,-3.85923 2.1457,-4.14724 3.874,-6.679426 6.042,-8.852476 1.2418,-1.24472 1.6495,-1.80105 1.3229,-1.80512 -0.7343,-0.009 0.2799,-0.69404 3.4368,-2.32087 2.6508,-1.36607 2.8128,-1.41187 6.5483,-1.85208 3.9215,-0.46213 14.3128,-0.64092 14.7004,-0.25293 0.456,0.45641 -0.4432,0.57759 -5.653,0.76193 -4.8515,0.17166 -6.6724,0.34802 -6.6724,0.64624 0,0.0493 0.2865,0.51188 0.6367,1.02789 0.7563,1.11438 1.0628,2.99176 0.8139,4.98423 l -0.1806,1.44514 1.5478,-0.52334 c 1.2598,-0.42592 2.0759,-0.50539 4.3848,-0.42694 l 2.8369,0.0964 0.1564,-0.71226 c 0.1551,-0.706 1.307,-2.07376 1.7465,-2.07376 0.1256,0 0.2285,-0.21968 0.2285,-0.48816 0,-1.00281 2.0933,-2.1428 4.9544,-2.69804 1.2576,-0.24407 2.1335,-0.24859 3.7041,-0.0191 3.1297,0.45724 4.9271,1.46798 7.9776,4.48605 2.2193,2.19568 2.7587,2.90982 3.8288,5.069256 0.9462,1.90958 1.2148,2.29103 1.1175,1.5875 -0.07,-0.50932 -0.2034,-1.52135 -0.2956,-2.24896 -0.3831,-3.021006 -2.2863,-5.496046 -5.2227,-6.791906 -0.7589,-0.33488 -2.0941,-0.97935 -2.9673,-1.43215 -0.8731,-0.45281 -2.2186,-1.03163 -2.99,-1.28628 -0.8006,-0.26429 -1.3566,-0.59391 -1.2955,-0.768 0.175,-0.49838 2.7033,-0.2857 4.298,0.36154 0.804,0.3263 1.5026,0.54794 1.5525,0.49254 0.05,-0.0554 -0.9011,-1.24677 -2.1131,-2.64749 -2.2722,-2.62584 -5.2444,-4.88196 -8.1818,-6.2107 -4.2233,-1.91041 -15.2774,-2.4558 -20.4748,-1.0102 -12.3048,3.42244 -18.2545,7.52646 -22.5241,15.53682 l -1.3827,2.59417 2.2477,-1.46513 c 2.4198,-1.57732 4.2716,-2.4663 5.3917,-2.58836 1.2043,-0.13124 0.9355,0.41671 -0.6493,1.32403 -4.3215,2.47397 -9.8279,7.577306 -10.3773,9.617626 -0.4761,1.76818 0.105,6.38649 1.224,9.72755 0.078,0.23446 0.6323,-0.30555 1.4925,-1.45521 0.7522,-1.00541 2.1445,-2.59167 3.094,-3.52503 z"
           id="path2" /><path
           id="path78"
           style="fill:#ffd1b3;fill-opacity:1;stroke-width:1.35599;stroke-linecap:square;paint-order:stroke markers fill"
           d="m 1913.8448,99.794041 c -2.2359,0.08715 -4.5018,0.288779 -6.6653,0.867129 -0.5943,0.73499 -0.629,1.82182 -1.0531,2.67632 -1.8429,4.42331 -4.7032,8.44257 -8.2677,11.64374 -0.3022,0.21166 -0.6998,0.64035 -1.0315,0.60306 -0.097,-0.94538 0.4107,-1.83867 0.3922,-2.77399 -0.4362,-0.7022 -0.9828,0.2434 -1.2666,0.59687 -1.7543,2.45945 -3.981,4.53393 -6.5525,6.08334 -0.8793,0.66578 -1.9404,1.05193 -2.8273,1.68052 -0.2884,1.48995 -0.045,3.09258 -0.31,4.61367 -0.1131,1.68773 -0.9834,3.22657 -1.0904,4.90203 0.8858,2.4452 2.0703,4.78547 2.9011,7.25847 0.6761,1.59102 1.0605,3.33861 1.9053,4.84157 0.771,0.27611 1.1552,-0.80323 1.6511,-1.20096 0.9278,-1.13702 2.5532,-1.89392 3.946,-1.11777 2.416,1.19933 4.5591,3.05067 5.9195,5.32578 0.8795,1.49392 -0.1376,3.14854 -1.1296,4.27622 -0.3721,0.55551 -1.4124,1.36093 -0.71,2.05311 1.1864,0.77346 2.7145,0.76552 4.0498,1.15703 2.991,0.63577 6.0332,1.05617 9.0977,0.94878 1.6549,-0.0129 3.3224,0.0777 4.9692,-0.009 6.4559,-3.26344 12.9355,-6.79446 18.1735,-11.86284 1.4458,-1.45819 2.9326,-3.21828 2.8759,-5.39916 0.074,-5.16413 -0.5938,-10.30502 -0.9168,-15.4528 -0.085,-1.01595 -1.2379,-1.50977 -1.7973,-2.28565 -2.9898,-2.88588 -5.4714,-6.19555 -7.8822,-9.56582 -0.145,-0.50624 -1.0372,-0.64091 -0.9374,0.0305 0.1656,0.8179 0.9105,1.71826 0.4909,2.54713 -0.7753,0.33484 -1.5678,-0.4201 -2.2526,-0.71159 -2.4097,-1.43251 -4.8145,-3.18728 -6.1102,-5.72988 -0.9725,-1.48886 -1.4257,-3.26556 -2.2619,-4.83433 -0.542,-0.59973 -1.4498,-0.65733 -2.1249,-1.067119 -0.3837,-0.112858 -0.7894,-0.0981 -1.1849,-0.09405 z m 29.1326,17.998899 c -2.0022,0.14616 -3.3632,1.94913 -4.299,3.52382 0.3261,2.28616 0.8166,4.59267 1.0263,6.91379 0.3054,1.94 0.3041,3.95799 0.8785,5.8415 0.3361,0.77033 1.1279,0.0716 1.4583,-0.32504 1.6529,-1.47642 2.8867,-3.3594 3.6049,-5.45445 0.7554,-2.16854 0.9496,-4.57368 0.5013,-6.82749 -0.4416,-1.51264 -1.3242,-3.61941 -3.1703,-3.67213 z m -63.8566,13.2824 c -1.9025,0.18526 -2.6957,2.38797 -2.5446,4.06228 0.2754,2.6376 1.9719,4.87449 3.6768,6.8001 1.7813,1.83847 3.8562,3.61526 6.3779,4.28708 0.8797,0.23279 1.7774,-0.16893 2.2195,-0.96273 0.5394,-0.59914 1.0622,-1.5036 0.4419,-2.24017 -1.9407,-2.58706 -2.6889,-5.83119 -3.8985,-8.7757 -1.7992,-1.17654 -3.6577,-2.3822 -5.6963,-3.11815 -0.1894,-0.0388 -0.3832,-0.0602 -0.5767,-0.0527 z m 15.0497,10.37197 c -1.1247,0.17279 -1.6564,1.4015 -2.3797,2.14561 -1.6108,2.21453 -3.409,4.40299 -4.3186,7.01921 -0.5261,2.22061 0.7867,4.3161 1.5958,6.29419 1.1377,2.49266 2.4698,4.92317 3.2153,7.57318 -0.846,-0.20722 -0.7795,0.9979 -0.8015,1.52652 -0.7199,4.26467 -2.3668,8.3037 -3.7094,12.39769 -2.2292,6.62586 -4.3106,13.31238 -6.2657,20.01739 0.4639,2.24629 0.4142,4.69076 1.5218,6.75307 0.433,0.58475 0.8761,1.25209 1.5162,1.603 0.7472,-0.34263 0.2565,-1.48307 0.446,-2.15542 0.046,-0.94442 -0.051,-2.40936 1.2232,-2.5554 1.5542,-0.42554 3.4168,-0.34978 4.5325,-1.71462 1.1611,-1.05597 2.2711,-2.78184 4.0783,-2.51354 1.1465,0.0701 2.2129,0.54879 3.2882,0.88625 0.7696,-0.21398 0.4272,-1.2661 0.539,-1.85674 0.046,-10.14474 0.085,-20.30693 0.4883,-30.43432 -0.012,-0.76419 0.1812,-1.62854 0.9969,-1.90427 2.0104,-1.14186 2.6121,-3.9548 1.5017,-5.92884 -1.2526,-3.09611 -3.6585,-5.59868 -4.7196,-8.77569 -0.2808,-0.80703 0.014,-1.69431 0.2873,-2.43913 0.4841,1.12568 0.3285,2.61452 1.3002,3.47576 0.7855,0.19094 1.1274,-0.84224 1.5027,-1.35237 0.5784,-1.02296 1.341,-2.33514 0.4972,-3.44786 -1.3399,-2.01203 -3.4546,-3.39875 -5.5806,-4.46587 -0.2404,-0.0914 -0.4963,-0.15871 -0.7555,-0.1478 z m 24.8584,56.21828 c -4.783,3.11986 -10.6558,4.41167 -16.2863,4.08088 -2.8653,-0.45234 -5.3463,-2.33054 -8.2688,-2.56418 -0.6545,-0.0617 -1.9376,0.35249 -1.5714,1.2082 0.1501,0.31258 0.8851,0.23115 0.2893,0.55913 -2.032,1.33543 -4.5027,1.73107 -6.7835,2.38487 -0.4081,0.62351 -0.1126,1.56254 -0.2398,2.30839 0.1327,1.16655 -0.4564,2.16394 -0.8914,3.1905 -0.1956,0.92575 0.8493,1.63814 0.6366,2.59313 0.04,1.38552 -0.4565,3.15823 0.7106,4.22145 1.5293,0.92501 3.4378,0.49824 5.1268,0.43355 2.7646,-0.22757 5.4621,-0.90533 8.1044,-1.66965 5.9537,-1.22521 12.1054,-0.73914 18.1323,-0.34005 4.2377,0.40558 8.4929,0.022 12.7253,-0.25836 0.6833,-0.34502 0.095,-1.25836 0.02,-1.84124 -1.6175,-5.0732 -5.1735,-9.25692 -9.0362,-12.80181 -0.7807,-0.60646 -1.6621,-1.46024 -2.668,-1.50481 z" /><path
           id="path103"
           style="fill:#784421;fill-opacity:1;stroke-width:5.12501;stroke-linecap:square;paint-order:stroke markers fill"
           d="m 6082.9376,337.28516 c -10.1927,0.50095 -18.8178,7.04025 -26.541,13.10352 -12.5862,10.12546 -21.874,23.51735 -30.2657,37.15234 -4.2824,6.74628 -8.4029,13.5941 -12.7382,20.30664 1.5996,-3.22596 -2.17,-5.10563 -3.5997,-1.75 -8.9773,9.81355 -16.5448,20.84037 -23.8925,31.89063 -2.9585,5.24799 -0.6449,11.41113 -0.1426,16.99218 1.6572,10.55003 7.5537,19.94204 14.4766,27.83399 3.7378,2.99787 7.6524,5.84356 11.2675,8.94336 3.3076,0.73008 2.6654,-3.73229 2.3184,-5.67969 -1.8257,-11.39275 1.2147,-22.96868 2.6758,-34.41601 -0.92,-3.13216 -4.3946,-0.11605 -6.543,0.11132 -3.089,0.4951 -6.9053,1.79673 -9.7422,0.10157 -0.4565,-4.94376 2.2364,-9.67379 3.4707,-14.39258 0.9771,-2.44243 1.7224,-5.78745 3.2481,-7.51367 0.5123,5.7215 -1.5533,11.34265 -1.6504,17.03711 1.6155,2.643 4.5932,-0.69228 6.6504,-1.12891 19.1781,-8.67045 37.5371,-21.1969 48.3359,-39.72656 3.5318,-5.50899 3.9113,-12.15161 5.6172,-18.29297 0.6598,8.52343 -0.3911,17.16384 0.027,25.63086 1.8599,2.57195 3.844,-1.76231 5.2266,-2.98438 11.7132,-14.33667 20.0057,-31.59086 23.7422,-49.73047 1.0945,-6.98779 2.4173,-15.92577 -3.586,-21.15039 -2.244,-2.09184 -5.4247,-2.43197 -8.3554,-2.33789 z m 80.8711,5.19727 c -6.7737,0.34894 -15.0004,0.28915 -19.7696,5.91797 -1.9802,3.39686 -5.2646,6.38891 -4.9668,10.6875 0.2803,10.38235 5.2827,19.97563 10.3399,28.80078 4.5513,7.22759 11.1234,13.15322 18.2383,17.68554 3.0549,0.0984 0.8575,-3.80301 0.8222,-5.38867 -1.4015,-9.51967 -2.5324,-19.4821 -1.4238,-29 0.6691,0.13895 1.1042,3.39197 1.4883,4.86328 1.144,5.76278 1.5081,12.0941 5.7265,16.625 11.4985,14.68495 22.8742,29.43412 34.4629,44.04883 2.2522,2.48871 4.2516,5.43877 7.1465,7.19922 2.8987,-0.34093 3.539,-4.21766 5.2383,-6.1582 3.2988,-3.92184 1.4269,-9.28324 1.8262,-13.95508 -0.5282,-14.22835 -0.5369,-28.97449 -6.4785,-42.22461 -5.8707,-13.77931 -16.2545,-25.52976 -28.6016,-33.88867 -7.0436,-4.83452 -15.7811,-5.31321 -24.0488,-5.21289 z"
           transform="matrix(0.26458333,0,0,0.26458333,293.59116,2.6851487)" /><path
           style="fill:#241f1c;fill-opacity:1;stroke-width:5.12499;stroke-linecap:square;paint-order:stroke markers fill"
           d="m 6110.3347,293.34528 c -11.6024,0.0554 -23.3034,1.07325 -34.3841,4.71465 -22.5261,6.73751 -45.472,15.67431 -62.3035,32.71854 -9.6059,9.6594 -16.7524,21.50096 -22.4505,33.79063 -0.4379,2.03993 2.1467,2.27489 3.2652,1.12533 8.1201,-4.78665 15.7294,-10.8375 24.9814,-13.33157 1.3305,-0.3611 2.2163,-0.31397 0.5391,0.59738 -9.0101,5.57326 -17.7621,11.61643 -25.6191,18.75669 -6.0775,5.68716 -12.5788,11.4182 -16.3848,18.95771 -1.7698,4.97857 -1.0427,10.44882 -0.7307,15.62005 0.8675,7.86704 2.4252,15.72954 4.9648,23.21407 1.4743,1.96109 3.5782,-0.13037 4.605,-1.45339 6.2371,-7.50949 12.3166,-15.19386 19.8257,-21.54941 4.5588,-3.79307 9.9938,-6.92027 12.7803,-12.40148 7.4081,-13.59256 14.4037,-27.78606 25.2386,-38.97593 2.2672,-2.77874 5.521,-5.00023 6.9107,-8.37379 -0.7458,-1.65398 0.9932,-2.14246 2.1936,-2.9869 6.7333,-3.80587 13.5376,-7.46643 20.8671,-10.11547 13.059,-2.826 26.4698,-3.01729 39.7448,-3.51662 7.8125,-0.14245 15.6381,-0.38003 23.4395,-0.061 -13.2158,1.19699 -26.5803,0.65218 -39.7411,2.56 -1.8148,0.0315 -2.9847,1.95788 -1.8832,3.48374 2.299,3.82816 4.6937,7.84912 4.7557,12.46996 0.4197,4.6739 -0.1682,9.34801 -0.5325,13.9911 0.9647,2.48414 3.7969,0.40969 5.5444,0.0929 8.2087,-3.27728 17.1974,-1.691 25.7773,-1.91346 1.9966,0.3016 4.6483,0.13473 4.5321,-2.52503 0.9242,-3.72986 3.7283,-6.72894 6.9128,-8.68825 1.2718,-1.24445 0.4483,-3.38559 2.1331,-4.38055 4.8592,-4.28027 11.3666,-5.87933 17.5725,-7.00684 13.1482,-1.82729 27.0537,2.55257 36.5837,11.85623 7.6298,6.81778 15.1065,14.21886 19.4412,23.65026 1.4684,2.37487 2.2366,5.39671 4.3849,7.26524 2.4246,0.69785 2.31,-2.39653 2.0187,-3.91357 -0.8652,-8.49595 -2.5647,-17.55222 -8.69,-23.95823 -3.7215,-4.3423 -8.5293,-7.53369 -13.749,-9.79742 -8.0673,-4.01871 -16.2703,-7.76597 -24.604,-11.18924 6.7292,-0.60768 13.0442,2.35713 19.3544,4.16346 2.0284,0.0301 1.7713,-2.50046 0.5558,-3.44878 -10.427,-14.02974 -23.8547,-26.30303 -40.1352,-33.08179 -11.4667,-4.25235 -23.824,-5.32352 -35.941,-6.1156 -3.9208,-0.201 -7.8479,-0.2838 -11.7737,-0.24359 z"
           id="path107"
           transform="matrix(0.26458333,0,0,0.26458333,293.59116,2.6851487)" /><path
           style="fill:#efa87a;fill-opacity:1;stroke-width:5.12501;stroke-linecap:square;paint-order:stroke markers fill"
           d="m 6151.8166,571.31737 c -6.5799,1.85 -12.9741,4.19509 -19.7678,5.08646 -6.7968,1.36195 -13.7979,1.30321 -20.6566,1.59878 -1.9406,1.89279 -0.295,5.31868 -1.2594,7.83337 -0.1035,3.73186 4.8288,3.61442 7.4087,4.18909 4.5077,1.30447 10.5369,1.62318 12.7197,6.54017 0.5889,1.82887 3.0238,6.04376 4.4449,2.53249 1.2353,-5.42809 4.064,-10.89445 9.4844,-13.09897 3.2135,-1.85128 7.1643,-2.27531 10.174,-4.33127 -0.1502,-3.22238 -0.018,-6.79336 -1.1766,-9.84941 -0.3384,-0.39195 -0.873,-0.53591 -1.3713,-0.50071 z"
           id="path108"
           transform="matrix(0.26458333,0,0,0.26458333,293.59116,2.6851487)" /><path
           id="path109"
           style="fill:#c83737;fill-opacity:1;stroke-width:5.12501;stroke-linecap:square;paint-order:stroke markers fill"
           d="m 6207.0587,576.22266 c -0.3547,0.004 -0.7098,0.009 -1.0645,0.0137 -9.5328,0.72314 -19.5544,1.16093 -28.2969,5.41015 -9.7174,5.9158 -17.1401,14.8253 -26.1836,21.65235 -5.3385,4.53483 -11.5767,8.11818 -16.7207,12.78906 -0.5348,-1.20861 -1.786,-1.89664 -3.7148,-1.37695 -8.8623,-0.28455 -16.0562,-6.34322 -23.6289,-10.22852 -5.6988,-3.14726 -11.4947,-7.10352 -18.3203,-6.63672 -3.0798,-0.35592 -5.0776,2.31415 -5.5684,5.0625 -2.0849,5.19511 -6.0267,10.28857 -11.9023,11.18945 -2.1317,1.9183 -0.5671,5.49923 -0.9649,8.13086 0.7275,21.68077 1.7559,43.33317 0.67,65.01172 -0.5917,18.36365 -1.3211,36.74683 -2.4004,55.0625 1.3697,3.32497 4.5843,5.86931 7.7285,7.47266 4.2075,1.00036 8.5398,-1.05046 12.7812,-1.24414 13.1503,-1.94305 26.3426,-4.52398 38.8692,-8.93164 1.9223,-3.22833 0.8203,-7.44941 1.3261,-11.04297 0.8162,-31.25731 1.7879,-62.53387 3.8965,-93.71289 -0.023,3.31563 -0.055,6.63004 -0.1875,9.92187 -0.615,30.40639 -1.9334,60.83109 -3.289,91.21094 -0.2625,2.53694 2.6161,2.73566 4.2715,1.70899 4.0926,-1.78883 9.6294,-2.79665 11.0996,-7.70118 1.5562,-4.52079 3.7518,-9.53469 8.789,-11.00976 3.8223,-1.09717 8.293,-2.94554 8.9414,-7.42578 0.6064,-2.18573 0.6527,-5.12411 3.4746,-5.67774 2.9327,-1.72314 6.9127,-1.80653 9.2989,-4.14843 5.2592,-20.07103 7.5964,-40.82787 12.3886,-60.89649 0.5903,-1.87463 1.1636,-4.21455 2.6075,-5.41992 0.2085,15.83305 -1.923,31.77036 -5.9063,47.12109 -1.5152,6.23405 -4.6288,11.96938 -6.8848,17.86719 0.8157,2.94557 5.3093,0.77132 7.6329,1.37891 5.5953,-0.40239 11.1874,0.0493 16.3476,2.5 11.4655,4.47656 23.3019,10.43296 29.9219,21.3164 1.7879,2.02314 2.2788,5.64365 5.0488,6.50196 2.4898,-0.6167 1.7928,-4.21599 2.9024,-6.03321 9.1538,-28.90772 16.4691,-58.56066 19.3554,-88.79883 1.5892,-16.65712 -2.2088,-35.23807 -15.2617,-46.71093 -10.1796,-8.8567 -23.671,-13.63408 -37.0566,-14.32618 z m -41.6485,3.48243 c -0.081,0.003 -0.162,0.0104 -0.2422,0.0215 -6.8774,1.43185 -13.4639,4.2621 -19.871,7.12109 -5.6607,2.31159 -8.5748,8.10091 -9.668,13.81055 -0.4663,3.13643 -2.3072,6.71018 -0.8594,9.77734 2.4041,1.85737 5.2929,-1.04638 7.4863,-2.0996 9.5481,-6.76293 19.0017,-13.95603 26.8536,-22.66993 1.5569,-2.18525 -1.1941,-6.04346 -3.6993,-5.96093 z m 53.8926,8.83007 c -8.1515,11.12343 -20.8656,18.79066 -26.4512,31.81641 -0.5639,0.78309 -1.2687,2.83129 -1.9375,2.81641 -1.7743,-9.63961 4.8797,-18.35264 11.7618,-24.17188 4.9739,-4.10442 10.3476,-8.75564 16.6269,-10.46094 z m -108.4863,1.58008 c -3.7285,0.54131 -8.0918,0.88207 -10.9961,3.49024 -1.3224,3.44889 3.0178,5.63951 5.1836,7.45117 7.7709,5.01441 15.5931,11.32726 25.1172,12.22656 3.0325,0.15813 2.988,-3.54209 2.2148,-5.56836 -1.1862,-5.3984 -2.2124,-12.43961 -8.2695,-14.50781 -4.2442,-1.50204 -8.7093,-3.02679 -13.25,-3.0918 z m -75.3418,14.13867 c -3.4719,1.26503 -4.7602,5.46613 -6.5781,8.38477 -9.488,19.77913 -12.999,41.66375 -18.1914,62.80078 -1.5596,7.76656 -3.7823,15.47297 -4.5977,23.35156 0.8383,2.49643 3.4888,0.47271 3.5293,-1.36523 6.6371,-21.01782 13.7306,-41.88818 21.7012,-62.44922 2.8475,-8.74183 6.9527,-17.37986 7.4882,-26.66406 -6e-4,-1.90568 -1.2129,-4.1094 -3.3515,-4.0586 z m 114.9512,25.40235 c 2.5282,1.22869 5.5736,3.41303 5.791,6.42773 0.076,4.16843 -4.7763,9.24127 -8.7813,5.95313 -4.6017,-3.54093 -2.3817,-11.0527 2.9903,-12.38086 z m -0.1875,56.9668 c 0.069,-0.002 0.1389,5e-5 0.2089,0.008 2.5157,1.01086 4.9797,3.31498 5.7774,5.92383 0.3577,4.38846 -4.7536,9.91786 -8.9844,6.50586 -3.6568,-3.32984 -2.5704,-9.59508 1.6641,-11.92188 0.3989,-0.25675 0.8515,-0.50046 1.334,-0.51562 z m 73.9296,108.60156 c -4.6525,1.85043 -8.3322,7.0243 -13.7851,6.41992 -4.3134,-0.89995 -8.6399,-3.30146 -13.0742,-1.4043 -9.5355,1.30035 -19.3132,1.96361 -28.9043,3.4668 -12.4688,1.05198 -25.0495,0.60665 -37.5117,0.18555 -1.5129,-0.70605 -2.437,-0.46637 -2.9805,0.24219 -1.6728,-2.01932 -5.3739,-0.75749 -7.832,-1.4043 -9.5433,-0.62603 -19.1052,-1.11157 -28.6719,-1.04883 -10.023,-0.0756 -20.0498,1.66367 -29.2129,5.81641 -7.9783,3.27967 -16.6763,3.49595 -25.0469,4.96289 -3.3272,1.03752 -2.3703,5.5633 -3.1465,8.21679 -5.5751,39.03601 -13.0987,78.01662 -13.0879,117.59962 0.093,13.04199 -0.3712,26.14433 0.7461,39.14453 2.9612,11.28429 10.7454,20.51056 18,29.35351 15.4879,17.6162 33.4399,33.3764 53.9278,44.9238 11.1858,6.0093 24.1204,9.1477 36.7695,8.1895 2.0899,-1.8361 0.181,-5.5544 0.6309,-8.1074 -2.8219,-65.6045 -4.1708,-131.25552 -4.293,-196.91996 0.106,-12.60276 0.1889,-25.25564 0.666,-37.83594 0.079,77.73881 1.5774,155.47323 3.8691,233.1758 0.5834,3.0167 -0.6723,6.852 1.4219,9.3515 3.4515,1.2319 7.2997,-0.4693 10.8555,-0.7226 12.5515,-2.6499 25.074,-5.9027 36.9883,-10.6934 12.0026,-6.3061 22.6175,-15.0402 32.4531,-24.2988 9.3825,-9.4319 16.3894,-20.862 24.3945,-31.41992 4.1331,-5.60234 8.0126,-12.09808 7.2481,-19.35156 -2.0753,-27.47521 -7.3741,-54.60555 -10.3164,-81.96875 -3.7594,-29.891 -4.1975,-60.05749 -7.4336,-90.02539 -0.5624,-1.81469 0.072,-5.83186 -2.6739,-5.84766 z m -71.6894,25.47461 c 3.3057,1.21222 7.2643,5.05674 5.1367,8.85351 -0.7813,3.85257 -5.9311,6.17809 -8.8496,3.06446 -3.4504,-3.6578 -1.4198,-11.10746 3.7129,-11.91797 z m -0.1035,56.87891 c 3.0698,1.41697 7.3825,4.90659 5.3066,8.76953 -0.7218,3.52081 -4.9768,6.29788 -8.1445,3.84765 -4.4741,-3.20439 -2.4258,-11.52577 2.8379,-12.61718 z m -2.4571,58.02539 c 2.9511,0.86828 6.5381,3.56349 6.2715,6.97851 -0.5453,3.37067 -3.8081,8.08578 -7.7363,6.11328 -5.1507,-2.80629 -4.6725,-10.17607 1.4648,-13.09179 z m 0,56.9707 c 2.9511,0.86829 6.5381,3.5635 6.2715,6.97852 -0.5453,3.37065 -3.8081,8.08575 -7.7363,6.11325 -5.1507,-2.8063 -4.6725,-10.17604 1.4648,-13.09177 z"
           transform="matrix(0.26458333,0,0,0.26458333,293.59116,2.6851487)" /><path
           id="path115"
           style="fill:#d05454;fill-opacity:1;stroke-width:5.12501;stroke-linecap:square;paint-order:stroke markers fill"
           d="m 6181.7325,703.97852 c -4.7152,0.31736 -9.4948,2.85116 -12.3398,6.625 -1.5364,2.28066 -2.0815,6.84181 1.5175,7.45118 9.6669,2.57919 20.172,5.65642 26.6934,13.79687 -9.1558,-4.17533 -17.9158,-9.90833 -27.9414,-11.72461 -4.6338,0.42383 -9.0395,2.021 -13.4863,3.23438 -4.2641,2.38452 -9.0683,6.13782 -9.4707,11.36523 0.3485,3.13013 4.4176,2.3672 6.2812,4.18945 10.8985,7.28617 20.5732,16.55137 28.3848,27.07422 5.6299,8.89974 9.8197,18.83062 12.6718,28.92383 2.6297,1.5213 6.3376,0.19264 9.379,1.02149 3.7203,0.71907 7.4369,3.92932 11.2304,1.58593 5.2565,-2.22679 12.2175,-5.01091 13.0391,-11.48046 0.2038,-12.59251 -0.8362,-25.47357 -5.9844,-37.13282 -0.5057,-1.55826 -2.5255,-5.8511 -2.3437,-6.0957 v -0.002 -0.002 c 0,-10e-4 0.01,-0.003 0.01,-0.004 7.0902,9.88038 9.4264,22.23405 9.42,34.1875 1.4193,3.74668 4.4992,-1.38158 6.0976,-2.60742 2.05,-2.10476 5.4711,-4.23453 3.4707,-7.58008 -2.9314,-9.28095 -1.4519,-19.15969 -2.0937,-28.71094 -6.9322,-9.12086 -14.2864,-18.7675 -25.0196,-23.69336 -9.2981,-4.562 -18.9693,-9.87072 -29.5195,-10.42188 z m 9.6113,35.4375 0.209,0.18555 c 7.9497,6.97415 14.7054,15.82662 17.2735,26.20703 1.4315,5.84593 2.5837,12.12821 1.3007,18.08399 -0.6598,-11.7799 -3.3706,-23.86711 -10.4121,-33.625 -2.5374,-3.80534 -5.4442,-7.34347 -8.3711,-10.85157 z m -195.7285,6.43946 c -0.1065,-0.004 -0.2135,0.004 -0.3183,0.0234 -3.4122,1.50457 -3.5755,6.18497 -4.2266,9.38867 -1.6011,10.52182 3.3793,20.428 5.8633,30.39258 1.7459,7.02307 8.3385,11.03234 14.4765,13.81445 3.0877,-0.25316 2.3248,-4.52883 2.7246,-6.75391 0.6266,-3.6415 -0.9482,-6.94256 -2.7871,-9.94726 -1.7985,-2.89382 1.6479,-6.95196 -1.7207,-9.15039 -5.09,-3.71899 -9.0252,-9.15863 -10.041,-15.38477 -1.3015,-3.91447 -0.7993,-8.55414 -3.0879,-12.05273 -0.2485,-0.2015 -0.5633,-0.318 -0.8828,-0.33008 z"
           transform="matrix(0.26458333,0,0,0.26458333,293.59116,2.6851487)" /><path
           id="path116"
           style="fill:#241f1c;fill-opacity:1;stroke-width:5.12501;stroke-linecap:square;paint-order:stroke markers fill"
           d="m 6034.4259,1011.6914 c -0.068,6e-4 -0.1368,0.01 -0.2071,0.014 -2.6293,1.2776 -0.5217,5.0501 -0.8828,7.2988 4.3392,43.2315 10.805,86.2072 16.211,129.3086 1.5985,9.7317 2.0953,19.7636 5.0156,29.2149 3.5446,5.7728 9.256,9.8635 14.2754,14.2988 6.1337,4.7038 12.4781,9.7291 20.0019,11.8984 10.5209,1.2334 22.28,-1.2133 29.4278,-9.5801 5.0894,-5.688 2.8495,-13.8497 3.8242,-20.664 2.134,-31.7073 4.7201,-63.4125 9.0468,-94.918 0.5016,-4.1281 1.5585,-8.2233 2.4844,-12.2148 -1.3073,-2.7723 -5.3256,-1.1891 -7.7246,-1.67 -17.0266,0.5709 -33.3757,-6.1944 -47.1777,-15.6054 -15.5744,-9.9128 -28.2841,-23.4253 -41.7071,-35.9551 -0.7649,-0.5804 -1.564,-1.4348 -2.5878,-1.4258 z m 192.998,1.2637 c -0.3145,0.01 -0.6762,0.1461 -1.084,0.459 -8.8132,10.7459 -18.9471,20.4382 -29.8164,29.0859 -7.6579,6.2964 -16.5959,10.7623 -26.0547,13.6426 -10.5778,3.7102 -21.4272,6.4278 -32.2402,9.0098 -1.6524,1.9744 1.0869,4.6489 1.4648,6.8945 10.4241,30.7514 16.4686,62.791 25.9649,93.8613 4.6355,3.5102 10.5754,5.22 16.082,7.1426 9.198,3.1477 19.4328,1.948 28.4649,-1.1738 4.1126,-1.1267 5.8728,-5.2603 6.4316,-9.1211 4.9315,-24.3442 5.926,-49.2446 8.6992,-73.8789 1.9515,-24.3067 2.9581,-48.6945 3.4629,-73.0703 0.2574,-1.2511 -0.2516,-2.8806 -1.375,-2.8516 z"
           transform="matrix(0.26458333,0,0,0.26458333,293.59116,2.6851487)" /><path
           id="path117"
           style="fill:#c83737;fill-opacity:1;stroke-width:5.12501;stroke-linecap:square;paint-order:stroke markers fill"
           d="m 6172.004,1174.7012 c -3.6692,0.9396 -2.945,5.9177 -4.3731,8.6601 -2.2151,8.6048 -7.2857,16.6336 -7.4765,25.711 0.097,8.7803 3.2939,17.724 10.0957,23.5234 3.4345,3.5454 8.4601,5.6524 13.375,4.2735 9.5467,-1.9292 16.9782,-9.4957 21.9551,-17.4805 3.5593,-10.2108 4.6583,-21.1231 6.0019,-31.8067 -0.057,-3.1971 1.3698,-7.0472 -0.543,-9.871 -3.4395,-0.9816 -6.839,1.6343 -10.3261,1.8378 -8.4564,1.3889 -17.2374,0.3473 -24.7227,-3.6836 -1.2722,-0.5168 -2.5694,-1.2419 -3.9863,-1.164 z m -100.4317,26.9062 -0.1425,0.012 c -2.8587,0.921 -1.6091,4.9602 -2.1836,7.2187 -0.2562,10.7344 -1.2304,21.674 0.8574,32.2832 2.8619,9.1915 7.5316,18.1766 14.6426,24.793 6.8663,5.725 16.3598,9.4839 25.332,7.5469 5.8703,-1.9088 10.0837,-7.454 12.1777,-13.0684 1.6969,-8.408 0.1454,-17.1119 -0.4941,-25.5723 -1.069,-9.6684 -2.948,-19.2757 -2.9356,-29.0097 0.3275,-2.1294 -1.5917,-4.8111 -3.7636,-3.0313 -8.8322,5.4833 -20.2318,9.14 -30.375,5.1914 -4.6262,-1.4223 -8.2882,-4.9861 -12.8731,-6.3633 z"
           transform="matrix(0.26458333,0,0,0.26458333,293.59116,2.6851487)" /></g></g></g></svg>
