<?xml version="1.0" encoding="UTF-8"?>
<svg id="Layer_1" xmlns="http://www.w3.org/2000/svg" version="1.1" viewBox="0 0 7000 5000">
  <!-- Generator: Adobe Illustrator 29.5.1, SVG Export Plug-In . SVG Version: 2.1.0 Build 141)  -->
  <defs>
    <style>
      .st0 {
        fill: #1a5577;
      }

      .st1 {
        fill: #bfc3cf;
      }

      .st2 {
        fill: #fff;
      }

      .st3 {
        fill: #dd5c5f;
      }

      .st4 {
        fill: #261622;
      }

      .st5 {
        fill: #e0e2e4;
      }

      .st6 {
        fill: #552a1e;
      }

      .st7 {
        fill: #39739e;
      }

      .st8 {
        fill: #be6e4f;
      }

      .st9 {
        fill: #d93742;
      }

      .st10 {
        fill: #b21d29;
      }

      .st11 {
        fill: #da8661;
      }
    </style>
  </defs>
  <g id="Generative_Object">
    <path class="st9" d="M4500.1,2762.6l-293.2,71.9c2.7-61.2,24.3-221.6,16.6-268.3-1.5-9-19.6-33-30.4-36h-1432.7c-4.5,1.4-23.5,25.2-24.9,30.4-11.8,43.9,15.5,214.2,16.6,273.8l-287.6-77.4c28-120.3,207.3-531.2,307-591.9,80.7-49.1,315.8-80.3,417.6-105.1,28.1,266.2,535,280.5,542.1-5.5,106.1,27.3,385.8,65.9,461.9,121.7,99.4,72.9,274.9,461.5,307,586.4Z"/>
    <path class="st7" d="M2707.8,3343.4c14,15,9.9,12.6,11.1,27.7-57.7,153.1,196.6,109.3,287.6,110.6l273.8,127.2c56.9,8.6,168.3,84.3,218.5,77.4l345.7,154.9c1,65.1,71.3,34.4,102.3,77.4-17.2-3.4-94.3-41.7-105.1-30.4l-38.7,240.6c-26-1.3-51.5-4.8-77.4-5.5-88.1,1.6-199.7-58.4-282.1-55.3-161.8-46.7-322.5-112-486.8-149.4-16.6-3.8-34.1-12.3-55.3-16.6l-622.3-232.3c-145.6-61.7-226-152.7-168.7-318.1,95.9-276.9,420.2-71.8,597.4-8.3Z"/>
    <path class="st7" d="M4074.1,3902.1c-37.7,4.9-75.1,6.6-110.6,22.1-8.8-1.6-11.7-4.6-16.6-5.5-31-43.1-101.4-12.3-102.3-77.4l-345.7-154.9c54-7.4,363-149.9,434.2-182.5,7.5-3.4,26.7-11.5,24.9-22.1,59.4-.8,192.2,10.8,240.6,0,51.7-11.5,65.6-100.1,24.9-127.2v-5.5c18.2-2,33.6-17.3,49.8-22.1,177.4-53,469-237.5,569.8,13.8,73.3,182.8-27.2,275.3-185.3,340.2l-583.6,221.3Z"/>
    <path class="st5" d="M2984.4,4140c7.4-.8,5.1-5.5,5.5-5.5,67.4-7.3,136.9-9.5,204.7-11.1,165.6-3.7,366.1-4.8,531,0,26,.8,51.4,4.2,77.4,5.5,59,2.9,118.5,12,177,16.6,161.1,12.8,344.3,73.3,492.3-11.1,421.4,3.2,843.5,17.1,1264,44.3,8.3,14-3.1,9.6-11.1,11.1-326.5,59.3-859.2,42.8-1205.9,49.8-1098.2,22.2-2200.7,7.5-3296.9-49.8l1252.9-66.4c106,103.1,376.3,30.7,508.9,16.6Z"/>
    <path class="st4" d="M3792,1501.3c-2.2,8.2-17.1,37-22.1,47-10.9-81,5.7-173.5-52.6-240.6-110.3,34.1-228.4,11.8-337.4-16.6-19.7-5.1-94.1-44.4-99.6-44.3-17.7.4-72.7,60.7-80.2,80.2-23.5,60.9-13.8,161.3-27.7,226.8-16.2-9.2-21.4-41.2-27.7-58.1-28.8-77.7-59.9-198.2-38.7-279.4,7.5-28.8,55.6-72.7,55.3-77.4s-15.5-.2-16.6-5.5c-1.7-7.9,25.8-14.6,27.7-16.6,5-5.3-7.7-16.6-2.8-19.4,9.3-5.1,12.8,27.2,33.2-11.1l5.5,16.6c80.1-120.3,246.1-105.5,365.1-55.3,37.5,15.8,88.7,62.9,121.7,71.9,58.9,16.1,110.5-29.5,118.9,47,2.6,23.1-5.1,79.8-5.5,110.6-1,68.7,1.2,157.9-16.6,224Z"/>
    <path class="st1" d="M4184.8,3337.9c6.1-.1,30.1,12,38.7,11.1v74.7c-2.7,2.6-65.9,12.9-74.7,13.8-420.7,42.1-910.8-31.6-1338.7,0-11.2-11.9-84.8-14-88.5-16.6-5.5-4-2-39.5-2.8-49.8-1.1-15.1,3-12.7-11.1-27.7h5.5c36.5,16.6,38.7-10.7,71.9-11.1,465.7-5.1,933.7,14,1399.5,5.5Z"/>
    <path class="st11" d="M2752,2862.1c-.2,29.4,6.5,40.1,0,71.9-12.8,62.9-83.2,97.9,11.1,149.4,5.2,82.6,15,166.4,22.1,248.9-33.2.4-35.4,27.7-71.9,11.1-57.7-26.3-223.5-140.9-260-190.8-85.9-117.5,7.4-224.9,22.1-351.3,56.6,22.6,173.6,52.9,235.1,66.4,14.5,3.2,32.1,10.5,41.5-5.5Z"/>
    <path class="st11" d="M4477.9,2801.3c9.9,82.4,76.8,208.9,60.8,290.4-15.5,79.4-200.3,190.4-265.5,235.1-16.1,4.8-31.6,20.1-49.8,22.1s-32.7-11.2-38.7-11.1c-12.6-87.5,6.1-178,11.1-265.5,83.7-27.3,29-87.7,5.5-143.8.8-14.6-.7-29.6,0-44.3,88.4-38.9,186.3-50.5,276.6-83Z"/>
    <path class="st6" d="M4472.4,4134.4c-148,84.3-331.2,23.8-492.3,11.1,20.5-20.4,68.9-10.1,96.8-16.6,62.7-14.5,133.1-49.5,118.9-124.5-16.8-89-170.2-69.2-232.3-80.2,35.5-15.6,72.9-17.2,110.6-22.1,81.4-10.6,248.2-48.3,318.1-38.7,136.8,18.7,187.9,182.7,80.2,271.1Z"/>
    <path class="st6" d="M2901.4,3902.1c21.2,4.3,38.7,12.8,55.3,16.6,0,3.7-.2,7.4,0,11.1-289.1-13-222,220.8,27.7,210.2-132.6,14.1-402.9,86.5-508.9-16.6-96.1-93.4-28.2-245.2,102.3-260,46.2-5.3,268.4,27.6,323.6,38.7Z"/>
    <path class="st11" d="M3642.7,1932.8c-1,5.7,3.8,92.3,5.5,96.8,3,7.6,30.2,16.3,38.7,19.4-50.1,223.6-385.5,199.8-459.1,0,14.5-4.3,54-4.3,60.8-19.4,1.6-3.6,5.2-59.5,5.5-69.1,41.6,53.3,125.4,103.2,196.4,94,34.6-4.5,170.4-71.3,141.1-121.7,2.1-.9-.5-9,11.1,0Z"/>
    <path class="st10" d="M3227.8,2049c73.6,199.8,409,223.6,459.1,0,6.6,2.4,32.5,2.5,44.3,5.5-7.1,286-514,271.8-542.1,5.5,12.6-3.1,26.2-7.4,38.7-11.1Z"/>
    <path class="st8" d="M3631.6,1932.8c29.3,50.4-106.4,117.2-141.1,121.7-71,9.2-154.8-40.7-196.4-94,.4-11-.2-22.2,0-33.2,148.2,131.8,201.8,63.1,337.4,5.5Z"/>
    <path class="st3" d="M4500.1,2762.6c2.8,11,7.4,19.8,11.1,30.4-2.4,4.9-27.7,6.3-33.2,8.3-90.3,32.5-188.2,44.1-276.6,83,.8-17,4.8-32.5,5.5-49.8l293.2-71.9Z"/>
    <path class="st3" d="M2752,2834.5c.2,9.2,0,18.5,0,27.7-9.4,16.1-27,8.7-41.5,5.5-61.5-13.4-178.5-43.8-235.1-66.4-6.2-2.5-21-.3-27.7-8.3-.7-1.8,15.6-31.7,16.6-36l287.6,77.4Z"/>
    <path class="st0" d="M3958,3481.7c1.8,10.6-17.4,18.7-24.9,22.1-71.3,32.7-380.3,175.1-434.2,182.5-50.2,6.9-161.6-68.8-218.5-77.4l-273.8-127.2c316.2,4.8,635.2,4.4,951.5,0Z"/>
    <path class="st11" d="M3946.9,3918.7c4.9,1,7.8,4,16.6,5.5,62.2,11,215.5-8.8,232.3,80.2,14.2,74.9-56.2,110-118.9,124.5-27.9,6.5-76.3-3.8-96.8,16.6-58.5-4.6-118-13.7-177-16.6l38.7-240.6c10.8-11.3,87.9,27.1,105.1,30.4Z"/>
    <path class="st5" d="M4223.5,3354.5c40.7,27.1,26.8,115.8-24.9,127.2-48.4,10.8-181.3-.8-240.6,0-316.2,4.4-635.3,4.8-951.5,0-91.1-1.4-345.3,42.4-287.6-110.6.8,10.3-2.8,45.8,2.8,49.8,3.7,2.6,77.3,4.7,88.5,16.6,427.9-31.6,918,42.1,1338.7,0,8.8-.9,71.9-11.2,74.7-13.8v-69.1Z"/>
    <path class="st0" d="M3443.5,4068.1c-71.8,2.7-173.6,48.5-248.9,55.3-67.8,1.5-137.3,3.8-204.7,11.1-5.6-66.3-29.7-139.2-33.2-204.7-.2-3.6,0-7.4,0-11.1,164.3,37.4,325,102.7,486.8,149.4Z"/>
    <path class="st2" d="M3443.5,4068.1c82.4-3.1,194.1,56.9,282.1,55.3-164.9-4.8-365.4-3.7-531,0,75.3-6.8,177.1-52.6,248.9-55.3Z"/>
    <path class="st11" d="M2956.7,3929.8c3.5,65.5,27.6,138.4,33.2,204.7-.4,0,1.9,4.7-5.5,5.5-249.6,10.6-316.8-223.2-27.7-210.2Z"/>
    <g>
      <path class="st11" d="M3792,1501.3c75.4,7.4,59.3,134,8.3,166-16.7,10.5-34.9-3.4-41.5,8.3-5.8,10.4-17,95.1-27.7,121.7-13.4,33.5-87.1,127.4-88.5,135.5-11.5-9-9-.9-11.1,0-135.6,57.6-189.2,126.3-337.4-5.5-16.5-14.6-67.6-86.7-77.4-107.9-12.3-26.5-33.9-138.2-38.7-143.8-2.9-3.4-37.6-7.2-47-13.8-45.1-31.5-53.3-148.1,13.8-166,6.3,16.9,11.5,48.9,27.7,58.1,13.9-65.5,4.1-165.9,27.7-226.8,7.5-19.5,62.6-79.8,80.2-80.2,5.4-.1,79.9,39.1,99.6,44.3,109.1,28.4,227.1,50.7,337.4,16.6,58.3,67.1,41.7,159.6,52.6,240.6,5-10,19.9-38.8,22.1-47Z"/>
      <path class="st2" d="M3363.3,1755.8l218.5,8.3c-58.3,91.2-171,92.6-218.5-8.3Z"/>
      <path class="st4" d="M3319,1423.9c19.6-2.4,79.3-3.3,85.7,19.4l-8.3,24.9c-63.2-9.2-119.2,2.4-179.8,19.4,13.4-31.5,70.5-59.7,102.3-63.6Z"/>
      <path class="st4" d="M3562.4,1423.9c48-15.6,135.6,20.3,163.2,63.6-59.3-12.7-112.1-26.5-174.2-19.4-19.3-10.7-1.2-40.3,11.1-44.3Z"/>
      <path class="st4" d="M3324.6,1501.3c40.9-4.2,40.2,116.7-8.3,91.3-28.4-14.9-14.1-89,8.3-91.3Z"/>
      <path class="st4" d="M3617.8,1501.3c36.1,15.4,36.1,84.1,0,99.6-34.8-26.4-34.8-73.2,0-99.6Z"/>
    </g>
    <path class="st2" d="M2763.1,3083.4c-94.3-51.5-23.9-86.4-11.1-149.4,14,48.4,8,100.5,11.1,149.4Z"/>
    <path class="st2" d="M4195.8,3072.3c2.7-47.3,3.1-96.1,5.5-143.8,23.5,56.1,78.2,116.5-5.5,143.8Z"/>
    <g>
      <path class="st5" d="M4206.9,2834.5c-.8,17.3-4.7,32.8-5.5,49.8-.7,14.6.8,29.6,0,44.3-2.5,47.7-2.8,96.5-5.5,143.8-5,87.5-23.6,178.1-11.1,265.5-465.8,8.5-933.8-10.7-1399.5-5.5-7.1-82.5-16.9-166.4-22.1-248.9-3.1-48.9,2.9-101-11.1-149.4,6.5-31.8-.2-42.6,0-71.9,0-9.2.2-18.5,0-27.7-1.1-59.7-28.4-229.9-16.6-273.8,1.4-5.2,20.4-29,24.9-30.4h1432.7c10.9,2.9,29,27,30.4,36,7.7,46.7-13.9,207.1-16.6,268.3Z"/>
      <path class="st2" d="M3457.3,2873.2c134.9-20.7,148.6,167.9,44.3,188.1-132.8,25.7-160.3-170.2-44.3-188.1Z"/>
    </g>
  </g>
</svg>