<svg id="Layer_1" data-name="Layer 1" xmlns="http://www.w3.org/2000/svg" viewBox="0 0 1000 1000"><defs><style>.cls-1{fill:#feab77;}.cls-2{fill:#fff;}.cls-3{fill:#ed2d44;}.cls-4{fill:#f06942;}</style></defs><title>CANVA Familly-Education_Bima 1</title><path class="cls-1" d="M638.29,285.94s21.31-14.47,28.14-20.09,40.91-53.62,42.85-66.33-8-27.74-3.82-37.38,16.68,16.35,21.1,15.87,15.08-37.28,11.06-52.95,23.11-3,25.52,23.92-7.89,33.58-14.47,53.5c-6,18.32-24.36,88.69-35.61,99.54s-41.4,31-52.66,36.58-31.75,7.64-38.19-11.25S627.84,289.56,638.29,285.94Z"/><path class="cls-1" d="M338.49,289.06s-19.1-17.27-25.1-23.79-16.67-55.64-16.83-68.5S312,162,309.11,151.85s-17.91,13.47-22.23,12.4-3.93-38.77,2.21-53.74-27.29-2.18-33.4,24.16,1.25,34.75-.21,54-2.91,93.72,6.74,106S299,331,309.33,338.17s30.39,11.94,39.37-5.88S348.34,294.09,338.49,289.06Z"/><path class="cls-1" d="M644.16,990.19c.6,10.47-14.28,10.85-34.78,9S556.54,991,552.1,986.57c-3.14-3.13-1.81-15.58-1.67-29.45a126.07,126.07,0,0,0-.74-17.17c-.08-.65-.2-1.4-.32-2.24-3.54-24.46-24.19-129.61-24.19-129.61s-17.29-55.67,26.12-59.29,45.83,44,45.83,44L601,933.1l.58,20.91c.22.12.43.24.68.36C615.19,961.51,643.55,979.91,644.16,990.19Z"/><path class="cls-2" d="M644.16,990.19c.6,10.47-14.28,10.85-34.78,9S556.54,991,552.1,986.57c-3.14-3.13-1.81-15.58-1.67-29.45a126.07,126.07,0,0,0-.74-17.17c-.08-.65-.2-1.4-.32-2.24,13,1.18,32.61,1.4,51.59-4.61l.58,20.91c.22.12.43.24.68.36C615.19,961.51,643.55,979.91,644.16,990.19Z"/><path d="M644.16,990.19c.6,10.47-14.28,10.85-34.78,9S556.54,991,552.1,986.57c-3.14-3.13-1.81-15.58-1.67-29.45,8.32,4.87,27.84,15,38,10.11,8.15-3.93,12.05-9.34,13.82-12.86C615.19,961.51,643.55,979.91,644.16,990.19Z"/><path class="cls-1" d="M302.32,990.19c-.6,10.47,14.28,10.85,34.78,9s52.84-8.22,57.28-12.66c3.14-3.13,1.81-15.58,1.67-29.45a126.07,126.07,0,0,1,.74-17.17c.08-.65.2-1.4.32-2.24,3.54-24.46,24.19-129.61,24.19-129.61s17.29-55.67-26.12-59.29-45.83,44-45.83,44L345.52,933.1,344.94,954c-.22.12-.43.24-.68.36C331.29,961.51,302.93,979.91,302.32,990.19Z"/><path class="cls-2" d="M302.32,990.19c-.6,10.47,14.28,10.85,34.78,9s52.84-8.22,57.28-12.66c3.14-3.13,1.81-15.58,1.67-29.45a126.07,126.07,0,0,1,.74-17.17c.08-.65.2-1.4.32-2.24-13,1.18-32.61,1.4-51.59-4.61L344.94,954c-.22.12-.43.24-.68.36C331.29,961.51,302.93,979.91,302.32,990.19Z"/><path d="M302.32,990.19c-.6,10.47,14.28,10.85,34.78,9s52.84-8.22,57.28-12.66c3.14-3.13,1.81-15.58,1.67-29.45-8.32,4.87-27.84,15-38,10.11-8.15-3.93-12.05-9.34-13.82-12.86C331.29,961.51,302.93,979.91,302.32,990.19Z"/><path class="cls-2" d="M604.33,594.59l31.39,199.85-135.07,21.3L475.33,684.3,448.4,815.74,314,793.13l34.67-205.71S541.58,537.44,604.33,594.59Z"/><path class="cls-1" d="M479.35,357l49.75-29.66s-13.25-6.94-18.07-21.71V273.38l-33.59,2.85-33.6-2.85v32.26c-4.81,14.77-18.06,21.71-18.06,21.71L475.52,357l0,2.29,1.94-1.15,1.93,1.15Z"/><path class="cls-3" d="M593.31,384l81-38.58-36.6-79.59C546.18,305.64,511,303.63,511,303.63c-8.9,23.5-33.55,24.12-33.59,24.12s-24.69-.62-33.59-24.12c0,0-35.15,2-126.67-37.78l-36.61,79.59,81,38.58L336.71,590.84s53.69,17.48,140.73,17.48h0c87,0,140.73-17.48,140.73-17.48Z"/><path class="cls-1" d="M571.6,175.67s5-14.59,19.9-8.53,11.3,36-1.81,46.13-17.49-.62-18.09-1S571.6,175.67,571.6,175.67Z"/><path class="cls-4" d="M575.81,186.06s3.73-11.58,12.37-11.5S593.71,193,593.71,193s-1.11-14.93-5-15.17-7.94,7-8.55,14.42,5.33,1.08,7.94,2,1.61,9.9-3.82,11-7.66-.83-8.45-6.35A61.44,61.44,0,0,1,575.81,186.06Z"/><path class="cls-1" d="M388.5,175.67s-5-14.59-19.9-8.53-11.3,36,1.81,46.13,17.49-.62,18.09-1S388.5,175.67,388.5,175.67Z"/><path class="cls-4" d="M384.3,186.06s-3.74-11.58-12.38-11.5S366.39,193,366.39,193s1.11-14.93,5-15.17,7.94,7,8.54,14.42-5.33,1.08-7.94,2-1.61,9.9,3.82,11,7.67-.83,8.46-6.35A62.22,62.22,0,0,0,384.3,186.06Z"/><path class="cls-1" d="M382.88,187.46s3.21,96.47,98.48,96.47,93.91-96.47,93.91-96.47,2.56-56.68-8.89-88.63S423.47,58.43,409,71.09,372.42,136.81,382.88,187.46Z"/><path d="M551.3,89.78s-65.12,33-140.69-12.46c0,0-35.37,51.86-27.73,110.14,0,0-37.79-64.31-10.46-110.14,0,0-16.17-4.57-20.09-20.85,0,0,14.06,9,29.74,5.78s21.91-22.51,65.72-36S512.91-7.49,545.67,9.79s21.91,56.07,21.91,56.07S586,67.65,591.4,95.3s-16.13,92.16-16.13,92.16S575.82,131.19,551.3,89.78Z"/><path class="cls-4" d="M475.93,177a117,117,0,0,1-2.57,15.75,58.87,58.87,0,0,1-2.28,7.74,18.94,18.94,0,0,1-1.89,3.8A5,5,0,0,0,468,207c-.06.39,1,1.05,2.18,1.49a38.88,38.88,0,0,1,3.74,1.6c1.2.62,2.41,1.33,3.51,2a5.25,5.25,0,0,0,1.51.74,6.66,6.66,0,0,0,.85.19,1.78,1.78,0,0,0,.65,0c2.17-.56,4.46-2.28,6.76-3.55a16.14,16.14,0,0,1,1.88-.87,4.61,4.61,0,0,1,1.08-.26c.26,0,.45-.07.55-.24a2.52,2.52,0,0,0-.18-1.71,11.15,11.15,0,0,0-.81-1.8,11.24,11.24,0,0,1,1.14,1.65,2.9,2.9,0,0,1,.44,2.12,1.34,1.34,0,0,1-1.06.75,4,4,0,0,0-.8.32,14.68,14.68,0,0,0-1.61,1l-3.23,2.32a14.09,14.09,0,0,1-3.73,2,3.6,3.6,0,0,1-1.32.13,8.78,8.78,0,0,1-1.1-.15,7.29,7.29,0,0,1-2.1-.88c-1.16-.68-2.26-1.27-3.44-1.82s-2.31-1-3.6-1.45a9.79,9.79,0,0,1-2-1,3.44,3.44,0,0,1-1.69-2.34,4.68,4.68,0,0,1,.52-2.62,15.58,15.58,0,0,1,1.16-1.87,18.61,18.61,0,0,0,1.69-3.27c1-2.36,1.78-4.88,2.61-7.37s1.51-5.06,2.2-7.61Z"/><path d="M512.71,231.09c-3.08,9.7-11.21,24.84-31.76,24.7s-29.79-15.2-33.6-24.8a4.86,4.86,0,0,1,5.21-6.58l.32.05c11.86,1.57,35,3.79,54.33.38l.15,0A4.87,4.87,0,0,1,512.71,231.09Z"/><path class="cls-2" d="M507.36,224.82c-.77,2.73-5.16,8.1-27.38,8.56s-26.36-5.67-27.1-8.92c11.86,1.57,35,3.79,54.33.38Z"/><path class="cls-2" d="M531.08,172.7a13,13,0,1,1-13-13A13,13,0,0,1,531.08,172.7Z"/><path d="M524.44,173.87a8.69,8.69,0,1,1-8.69-8.69A8.69,8.69,0,0,1,524.44,173.87Z"/><circle class="cls-2" cx="520.26" cy="171.66" r="2.21"/><circle class="cls-2" cx="438.42" cy="172.7" r="13.04"/><path d="M432,173.87a8.7,8.7,0,1,0,8.7-8.69A8.7,8.7,0,0,0,432,173.87Z"/><circle class="cls-2" cx="445.75" cy="171.66" r="2.21"/><path d="M412.2,144.62a24.91,24.91,0,0,1,3.39-3.79,29.17,29.17,0,0,1,3.89-3,27.83,27.83,0,0,1,9.15-3.83,30.74,30.74,0,0,1,9.93-.51,39.46,39.46,0,0,1,4.86.83c1.57.41,3.09.93,4.65,1.41a4.77,4.77,0,1,1-2.8,9.12,2.53,2.53,0,0,1-.36-.12l-.5-.2c-1.17-.46-2.33-1-3.52-1.44a28.9,28.9,0,0,0-3.59-1,22.19,22.19,0,0,0-7.26-.35,20.56,20.56,0,0,0-7,2.17,22.65,22.65,0,0,0-3.16,2,21.15,21.15,0,0,0-2.64,2.37l-.24.26a3.12,3.12,0,0,1-4.83-3.94Z"/><path d="M543.76,144.62a24.91,24.91,0,0,0-3.39-3.79,29.17,29.17,0,0,0-3.89-3,27.78,27.78,0,0,0-9.14-3.83,30.82,30.82,0,0,0-9.94-.51,39.46,39.46,0,0,0-4.86.83c-1.57.41-3.09.93-4.65,1.41a4.77,4.77,0,1,0,2.8,9.12,2.53,2.53,0,0,0,.36-.12l.5-.2c1.17-.46,2.33-1,3.52-1.44a28.9,28.9,0,0,1,3.59-1,22.19,22.19,0,0,1,7.26-.35,20.56,20.56,0,0,1,7,2.17,22.65,22.65,0,0,1,3.16,2,21.15,21.15,0,0,1,2.64,2.37l.24.26a3.12,3.12,0,0,0,4.83-3.94Z"/></svg>