<?xml version="1.0" encoding="UTF-8" standalone="no"?>
<!-- Created with Inkscape (http://www.inkscape.org/) -->

<svg
   width="450mm"
   height="450mm"
   viewBox="0 0 450 450"
   version="1.1"
   id="svg1"
   xml:space="preserve"
   xmlns="http://www.w3.org/2000/svg"
   xmlns:svg="http://www.w3.org/2000/svg"><defs
     id="defs1" /><g
     id="layer1"
     transform="translate(-277.48709,159.2139)"><g
       id="g1187"
       transform="matrix(0.85771842,0,0,0.85771842,-27.399591,-22.653205)"
       style="stroke-width:1.16588"><rect
         style="fill:#e3dcdb;fill-opacity:1;stroke:none;stroke-width:0.408058;stroke-linecap:round;stroke-linejoin:round;stroke-opacity:1;paint-order:stroke fill markers"
         id="rect1180"
         width="524.64771"
         height="524.64771"
         x="355.46243"
         y="-159.2139" /><path
         id="path1180"
         style="fill:#2e343e;fill-opacity:1;stroke-width:1.16588"
         d="m 592.11048,-71.725537 c -6.66789,0.185969 -13.60807,1.191596 -20.58036,3.010628 -6.0232,1.57142 -8.79726,2.556635 -10.8526,3.854111 -0.95627,0.603667 -3.86246,2.165463 -6.45806,3.470928 -6.00811,3.02181 -16.61706,10.056675 -15.1881,10.071175 0.26172,0.0027 1.39094,-0.518269 2.50876,-1.157378 1.53354,-0.876786 -0.0648,0.964755 -6.51048,7.500965 -10.11424,10.256277 -13.21975,13.829626 -20.55686,23.653043 -8.24671,11.041264 -12.99388,19.7821094 -16.15148,29.7399708 -0.58094,1.8320552 -1.14708,3.4915252 -1.25799,3.6878242 -0.11088,0.196284 -0.0854,0.357274 0.0566,0.357274 0.14213,0 0.89392,-1.231586 1.6707,-2.7364961 0.72822,-1.4108535 1.34205,-2.4852609 1.42609,-2.5045391 3.3e-4,-4.36e-5 10e-4,-5.957e-4 0.002,-6.025e-4 3e-4,3.01e-5 0.002,-6.71e-5 0.002,0 l 6e-4,6.025e-4 h 6.1e-4 c 2.2e-4,1.788e-4 0.002,9.888e-4 0.002,0.0012 1.9e-4,2.537e-4 4.4e-4,0.00152 6.1e-4,0.00181 7.2e-4,0.00165 0.002,0.00463 0.002,0.00723 0.0126,0.1328974 -0.62165,2.136232 -1.40922,4.4517782 -1.53168,4.503222 -3.30088,11.30574 -4.34815,16.720223 -1.3879,7.175532 -0.40416,44.165848 1.2592,47.34826 0.34198,0.654309 0.96512,3.663561 1.38451,6.687607 0.4194,3.024037 1.06386,6.659688 1.43212,8.079353 l 0.66936,2.581055 -1.82313,1.561044 c -2.13321,1.825951 -4.70293,6.224061 -6.18995,10.594131 -1.62089,4.76357 -1.88941,14.6826 -0.53139,19.63265 1.78578,6.50919 5.18937,12.62744 9.04815,16.26474 l 1.48272,1.39777 v 12.00336 c 0,12.90674 0.36373,16.07489 2.58286,22.5059 1.30996,3.79619 2.78547,6.58016 5.40793,10.20192 0.91589,1.26487 2.35686,3.72746 3.20221,5.47239 2.38893,4.93106 9.56997,11.43711 14.83083,13.43727 0.91486,0.34784 0.99263,0.58579 0.61755,1.89362 -0.23592,0.82263 -0.6764,1.79404 -0.97904,2.15871 -0.87849,1.05855 -1.14532,6.50652 -0.38439,7.85041 0.60531,1.06903 0.66891,0.89999 0.90795,-2.41959 0.22036,-3.06019 0.52264,-4.00955 2.12015,-6.6617 2.89907,-4.81292 2.95261,-4.85956 4.63011,-3.99208 0.77772,0.40216 1.52006,0.6254 1.64901,0.49645 0.12895,-0.12897 -0.25023,-0.4935 -0.84228,-0.81035 l -1.07664,-0.57598 1.21883,-0.63863 c 0.67027,-0.35119 2.73275,-0.88853 4.58312,-1.19413 4.62733,-0.76419 9.57577,0.21938 16.08641,3.1974 2.666,1.21947 4.86058,3.44648 3.95051,4.00895 -0.36647,0.22651 -0.32863,0.40452 0.1229,0.57778 0.35916,0.13783 0.707,1.05911 0.7736,2.04786 0.0666,0.98847 0.23382,1.97962 0.37173,2.20269 0.50176,0.81185 1.13689,-0.18177 1.13689,-1.77915 0,-1.61563 0.0275,-1.63756 2.07497,-1.63756 1.14125,0 4.99529,0.33705 8.56435,0.74889 3.56904,0.41184 8.30799,0.67936 10.53088,0.59466 3.41408,-0.13007 4.00885,-0.0433 3.83362,0.55971 -0.11408,0.39258 -0.77426,3.92576 -1.46766,7.85161 -0.97589,5.52524 -1.4659,7.2854 -2.16774,7.79076 -0.53041,0.38192 -0.90675,1.22135 -0.90675,2.02255 0,0.75325 -0.16038,1.36542 -0.35667,1.36042 -0.1963,-0.005 -2.17714,-1.5329 -4.40177,-3.39562 -2.22465,-1.86274 -5.5436,-4.49598 -7.37565,-5.85135 -3.97762,-2.94266 -15.73189,-9.85511 -18.54757,-10.90743 -0.81506,-0.30462 -0.78327,-0.1788 0.23799,0.94108 1.02926,1.12868 1.05778,1.24488 0.22653,0.9194 -1.90971,-0.74783 -5.26929,-1.21918 -6.6617,-0.93506 -5.34486,1.09062 -7.67,2.19555 -11.59727,5.51215 -3.04522,2.57174 -4.08051,3.21169 -4.39454,2.71602 -0.22593,-0.3566 -0.41313,-0.80925 -0.41813,-1.00555 -0.004,-0.19628 -0.18765,-0.35668 -0.40788,-0.35668 -0.6953,0 0.18537,4.07689 1.28209,5.93571 0.93178,1.57921 1.01528,2.18687 0.73202,5.31273 -0.1759,1.94118 -0.50923,3.64693 -0.74106,3.79024 -0.23182,0.14321 -3.1222,0.10614 -6.42311,-0.0819 -5.52393,-0.31469 -5.89222,-0.39272 -4.62711,-0.98145 l 1.37428,-0.63985 -1.42729,0.20003 c -3.76955,0.52787 -5.67277,0.91329 -11.18277,2.26415 -3.27155,0.80207 -6.91185,2.00964 -8.08959,2.68347 -3.02333,1.72974 -8.08097,5.22142 -9.68619,6.68701 -3.81447,3.4827 -9.47492,12.60288 -13.17639,21.22924 -1.29861,3.02649 -3.05505,6.83354 -3.90291,8.46012 -0.84784,1.62659 -1.61414,3.118 -1.70324,3.31428 h -6e-4 c -0.0891,0.19627 0.33764,0.34921 0.94832,0.34221 0.92947,-0.0121 1.47415,-0.76731 3.3432,-4.63915 2.43499,-5.04417 3.45946,-6.91121 9.44278,-17.20823 4.60894,-7.93179 7.14765,-10.73445 12.62813,-13.94276 10.08077,-5.90133 13.37468,-6.77258 24.1748,-6.39239 4.4168,0.15548 8.09292,0.34494 8.16912,0.42114 0.0761,0.0761 0.35781,2.10345 0.62598,4.5054 1.15385,10.33479 8.20656,24.72568 15.23449,31.08472 5.86896,5.31041 7.05194,6.18573 8.35349,6.18573 1.10108,0 1.24138,-0.14844 0.96458,-1.02061 -0.3114,-0.98113 -5.00448,-10.35814 -5.91944,-11.82742 -0.24448,-0.39259 -1.44892,-3.28365 -2.67685,-6.42432 -1.22794,-3.14067 -2.41437,-5.9136 -2.63648,-6.16224 -0.22211,-0.24862 -0.40367,-0.64664 -0.40367,-0.88445 0,-0.2378 2.37484,2.74935 5.27779,6.6382 5.06217,6.78137 8.56681,12.22498 11.143,17.30885 l 1.20196,2.37199 h 24.73632 c 20.54579,0 24.73691,-0.10926 24.73691,-0.64707 0,-0.35614 -0.76711,-2.97971 -1.70443,-5.82966 -1.93762,-5.8913 -4.74288,-12.03789 -7.97573,-17.47454 -1.21897,-2.04998 -2.21655,-3.82185 -2.21655,-3.93786 0,-0.11596 0.58887,0.0908 1.3086,0.4597 2.35721,1.20821 10.26966,3.50705 14.2187,4.13065 3.38687,0.53481 4.3811,0.50904 7.98175,-0.20605 5.26383,-1.04539 11.88696,-3.05042 16.5943,-5.02293 5.64674,-2.36616 16.68312,-10.02506 18.00533,-12.49559 0.40098,-0.74927 0.30105,-1.15792 -0.48861,-1.99845 -0.54586,-0.58106 -0.9923,-1.18733 -0.9923,-1.34716 0,-0.48773 5.78613,2.11311 8.55471,3.84508 2.148,1.34375 3.94837,1.90545 10.23084,3.19258 7.74127,1.58601 13.53868,2.45716 13.08421,1.96651 -0.13767,-0.14863 -2.06465,-0.79501 -4.28248,-1.43693 l -4.03244,-1.16702 2.14124,-0.2669 c 1.17777,-0.14661 5.02373,-0.39324 8.54628,-0.54826 3.52255,-0.15503 7.37267,-0.41441 8.55592,-0.57658 l 2.15148,-0.29522 -1.62491,-0.54706 c -1.54988,-0.52184 -1.40669,-0.57431 3.10281,-1.13749 2.6,-0.32471 8.15317,-0.71326 12.34074,-0.86397 10.33249,-0.37187 13.77548,0.55553 23.75848,6.39962 5.4805,3.20831 8.01918,6.01097 12.62813,13.94276 5.98333,10.29702 7.00719,12.16406 9.44218,17.20823 1.86905,3.87184 2.41373,4.62675 3.3432,4.63915 0.61069,0.008 1.03742,-0.14591 0.94832,-0.34221 -0.0891,-0.19629 -0.85537,-1.6877 -1.70323,-3.31428 -0.84785,-1.62658 -2.6043,-5.43364 -3.90292,-8.46012 -3.70145,-8.62638 -9.36252,-17.74655 -13.17699,-21.22924 -1.60519,-1.4656 -6.66229,-4.95728 -9.68559,-6.68701 -2.49206,-1.42579 -12.60244,-4.04674 -18.79639,-4.87291 -1.83754,-0.2451 -1.85805,-0.23297 -0.59586,0.34824 1.15878,0.5336 0.42808,0.66455 -6.42432,1.15557 -4.25236,0.3047 -12.12129,1.21229 -17.48659,2.01652 -18.87196,2.82881 -21.99452,2.77211 -27.62584,-0.50006 -1.71537,-0.99675 -4.07084,-2.18824 -5.23441,-2.64794 -1.16357,-0.4597 -3.5073,-1.87927 -5.2085,-3.15462 l -3.09317,-2.31897 -1.7448,-9.36988 c -0.95976,-5.15345 -1.66298,-9.45231 -1.56225,-9.55304 0.1008,-0.10079 2.70628,-0.34635 5.7899,-0.54585 7.00803,-0.45343 10.16514,-1.27279 17.70469,-4.59336 3.29157,-1.44965 7.84747,-3.13808 10.12419,-3.75229 4.89855,-1.32151 8.97337,-3.67134 14.49403,-8.35831 4.5365,-3.85141 11.08702,-10.63973 12.9342,-13.40413 0.69664,-1.04254 1.862,-2.77501 2.58949,-3.84989 2.55244,-3.77117 5.22707,-8.52997 7.28045,-12.95408 1.13991,-2.45606 1.99707,-4.46563 1.90567,-4.46563 -0.0915,0 -1.07718,1.39802 -2.19064,3.10702 -1.11347,1.70898 -2.1349,2.99708 -2.26957,2.86242 -0.13466,-0.13465 0.68075,-2.12155 1.81168,-4.41563 1.13093,-2.2941 2.41385,-5.31592 2.85097,-6.71532 0.77676,-2.48672 0.86637,-2.5749 3.95412,-3.87761 10.30235,-4.34647 16.80474,-11.92723 19.89653,-23.19696 1.35804,-4.95005 1.08953,-14.86908 -0.53139,-19.63265 -1.487,-4.37007 -4.05672,-8.76818 -6.18995,-10.594131 l -1.82313,-1.561044 0.66936,-2.581055 c 0.36826,-1.419665 1.01271,-5.055316 1.43212,-8.079353 0.4194,-3.024046 1.04253,-6.033298 1.38451,-6.687607 1.66336,-3.182412 2.6465,-40.172728 1.2586,-47.34826 -1.0473,-5.414483 -2.81588,-12.217001 -4.34755,-16.720223 -0.78759,-2.3155462 -1.42162,-4.3188032 -1.40922,-4.4517782 2.5e-4,-0.0026 10e-4,-0.00498 0.002,-0.00663 1.6e-4,-2.911e-4 4.2e-4,-0.00155 6e-4,-0.00181 l 6.1e-4,-6.025e-4 6e-4,-6.025e-4 c 2.4e-4,-1.412e-4 0.002,-4.985e-4 0.002,-6.025e-4 l 6e-4,-6.025e-4 c 5.9e-4,-5.97e-5 0.002,-8.77e-5 0.003,0 0.0842,0.019333 0.69786,1.0942881 1.42609,2.5051416 0.77677,1.5049106 1.52862,2.7364966 1.67069,2.7364966 0.1422,0 0.16816,-0.16099 0.0572,-0.357274 -0.11084,-0.196299 -0.67704,-1.855769 -1.25799,-3.6878247 -3.1576,-9.9578614 -7.90477,-18.6987063 -16.15148,-29.7399703 -7.33709,-9.823417 -10.4426,-13.396766 -20.55686,-23.653043 -6.44564,-6.53621 -8.04402,-8.377751 -6.51048,-7.500965 1.11783,0.639109 2.24703,1.159978 2.50876,1.157378 1.42896,-0.01456 -9.18058,-7.049365 -15.1887,-10.071175 -2.59559,-1.305465 -5.50121,-2.867261 -6.45746,-3.470928 -3.19494,-2.016876 -11.66766,-4.413767 -21.08403,-5.964623 -10.27005,-1.691455 -27.71331,-1.025402 -33.1368,1.265223 -2.31907,0.979464 -4.91552,0.909854 -9.6169,-0.257262 -5.88315,-1.460493 -12.27913,-2.094045 -18.94701,-1.908077 z m 26.19493,46.030621 c 0.16245,-0.0047 0.29357,0.611067 0.45247,1.992425 0.12419,1.079664 0.25104,1.722127 0.32474,1.709858 0.024,-0.0063 0.0431,-0.08346 0.0536,-0.238585 l 0.0777,-1.14593 1.07062,1.085079 c 0.58889,0.596872 2.14121,1.831061 3.44984,2.743124 1.52422,1.062346 1.95204,1.533304 1.18992,1.31041 -2.20324,-0.644417 -0.65152,0.248679 8.1396,4.68253 4.81415,2.428049 11.69221,6.0754242 15.28449,8.1052592 3.5923,2.02982 8.66282,4.80270551 11.26772,6.16223851 3.81836,1.99287399 5.64212,3.34900279 9.41145,6.99728569 4.55588,4.4095536 12.4864,11.3653546 18.98317,16.6503346 7.14522,5.812451 16.7527,16.533842 21.61,24.115151 2.10642,3.287725 2.22743,3.64511 1.8641,5.522397 -0.21365,1.103996 -0.39829,3.682743 -0.40909,5.730255 -0.0312,5.61092 -3.01957,20.460079 -8.58725,42.673564 -2.43262,9.70547 -3.77871,16.2706 -4.43973,21.65158 -0.0558,0.45458 -0.0989,0.69533 -0.13375,0.71093 -3.2e-4,1.1e-4 -0.001,5.4e-4 -0.002,6.1e-4 -6.4e-4,5e-5 -0.002,1e-4 -0.003,0 -3.2e-4,-9e-5 -0.001,-4.8e-4 -0.002,-6.1e-4 -0.0444,-0.0239 -0.0767,-0.44105 -0.10664,-1.27787 -0.0392,-1.09689 -0.28533,-2.12649 -0.54705,-2.28825 -0.31108,-0.19226 -0.47658,2.96975 -0.47958,9.1319 -0.004,10.52687 -0.46538,14.44449 -2.13401,18.10655 -1.53066,3.35928 -4.27599,7.42707 -6.63158,9.82716 -1.06571,1.08582 -3.03783,3.36209 -4.38249,5.05788 -3.56945,4.50153 -10.19638,10.70021 -15.63755,14.62719 -7.3453,5.30123 -17.1252,12.11352 -19.37961,13.49872 -2.46507,1.51464 -10.54681,5.02884 -16.07194,6.98885 -2.22464,0.78919 -4.90147,1.80602 -5.94836,2.25993 -1.0469,0.45392 -3.18811,1.10753 -4.75844,1.452 -1.57034,0.34446 -3.49792,0.61155 -4.28308,0.59405 -2.033,-0.0456 -6.33413,-1.0713 -8.56496,-2.04243 -1.04689,-0.45573 -3.72372,-1.47437 -5.94836,-2.26355 -5.52513,-1.96001 -13.60685,-5.4742 -16.07194,-6.98885 -2.25439,-1.3852 -12.03432,-8.1975 -19.37961,-13.49872 -5.44116,-3.92699 -12.0687,-10.12567 -15.63815,-14.62719 -1.34468,-1.69579 -3.3168,-3.97205 -4.38249,-5.05788 -2.35561,-2.40008 -5.10031,-6.46787 -6.63098,-9.82716 -1.66862,-3.66206 -2.12961,-7.57967 -2.13461,-18.10655 -0.002,-6.16215 -0.1679,-9.32416 -0.47898,-9.1319 -0.26172,0.16175 -0.50846,1.19137 -0.54766,2.28825 -0.0299,0.83683 -0.0611,1.25394 -0.10543,1.27787 -6.3e-4,2.6e-4 -0.002,5e-4 -0.003,6.1e-4 -3.2e-4,1e-5 -10e-4,2e-5 -0.002,0 -6.5e-4,-1.4e-4 -0.002,-3.1e-4 -0.003,-6.1e-4 -0.0347,-0.0196 -0.0778,-0.2606 -0.13315,-0.71093 -0.66103,-5.38097 -2.00711,-11.94611 -4.43973,-21.65158 -5.56768,-22.213493 -8.55595,-37.062634 -8.58725,-42.673564 -0.0114,-2.047493 -0.19542,-4.626278 -0.40909,-5.730255 -0.36332,-1.877305 -0.24294,-2.234673 1.86349,-5.522397 4.8573,-7.581309 14.46481,-18.302686 21.61001,-24.115151 2.77248,-2.255338 9.16186,-7.702807 15.68997,-13.377624 1.01984,-0.886532 3.26818,-3.046697 4.99643,-4.800618 2.43873,-2.4749291 4.26955,-3.7674153 8.17816,-5.77242932 2.76995,-1.42089898 7.58858,-4.03695548 10.7074,-5.81339848 3.11882,-1.776429 9.8263,-5.3339052 14.90613,-7.9052342 9.25089,-4.682646 10.83031,-5.584952 8.60894,-4.91991 -1.46791,0.439464 -1.44395,0.417761 2.49852,-2.305115 2.57382,-1.777616 3.21911,-2.053014 3.24921,-1.384516 0.0291,0.645698 0.0909,0.672943 0.27293,0.120497 0.12932,-0.392583 0.41436,-1.14183 0.63321,-1.665274 0.21885,-0.523445 0.56794,-1.379813 0.77601,-1.903257 0.0843,-0.212089 0.15854,-0.325173 0.22713,-0.32715 z m 30.5931,58.143624 c -4.95036,0 -5.82866,0.132173 -8.31854,1.249558 -1.76408,0.79168 -3.13614,1.793719 -3.74507,2.735895 -0.52854,0.817763 -1.38943,2.129664 -1.91289,2.914832 -1.9785,2.967687 -1.10415,3.595973 3.65951,2.629857 4.61468,-0.935474 12.70158,-1.381193 16.79794,-0.924818 14.42103,1.606626 26.49468,5.306251 31.60226,9.683776 1.54703,1.325925 3.47402,2.882227 4.28248,3.458276 1.71386,1.220752 1.70805,1.218433 1.70805,0.685028 0,-1.358872 -7.9698,-8.758076 -14.37956,-13.34991 -1.23489,-0.884643 -2.14432,-1.771911 -2.02075,-1.971941 0.12362,-0.20004 -1.32836,-0.945196 -3.22692,-1.655634 -1.89854,-0.710446 -3.67352,-1.563726 -3.94448,-1.89663 -1.3604,-1.6714 -12.23162,-3.558289 -20.50203,-3.558289 z m -62.16523,6.03e-4 c -8.32428,-5.55e-4 -19.19609,1.880624 -20.56108,3.557686 -0.27096,0.332904 -2.04594,1.186184 -3.94448,1.89663 -1.89855,0.710438 -3.35049,1.455594 -3.22692,1.655634 0.12362,0.20003 -0.78586,1.087298 -2.02075,1.971941 -6.4853,4.645968 -14.37956,11.992936 -14.37956,13.382444 0,0.566518 2.33043,-1.060364 5.94836,-4.152944 2.04827,-1.75086 3.99799,-2.864806 6.89968,-3.942073 8.64686,-3.210176 14.90504,-4.66836 24.74475,-5.764597 3.80832,-0.424288 8.75338,-0.180773 17.47032,0.860352 2.4553,0.293252 3.01276,0.226946 3.28717,-0.392219 0.50965,-1.149909 0.20975,-2.014313 -1.29294,-3.725781 -0.76004,-0.865625 -1.3815,-1.789543 -1.3815,-2.053276 0,-0.263724 -1.3387,-1.112534 -2.97448,-1.886387 -2.76956,-1.310184 -3.3589,-1.407055 -8.56857,-1.40741 z m -63.51359,20.632774 c 0.19455,-0.01379 0.34643,0.607746 0.34643,1.466454 0,0.931471 -0.0826,1.693591 -0.18376,1.693591 -0.39076,0 -0.58777,-2.910751 -0.21268,-3.142572 0.017,-0.01053 0.0335,-0.0163 0.05,-0.01747 z m 189.12312,0 c 0.0196,-7.71e-4 0.0398,0.0048 0.0602,0.01747 0.21822,0.134794 0.30069,0.896905 0.18376,1.693591 -0.28681,1.954188 -0.5802,1.830675 -0.5802,-0.24461 0,-0.844154 0.14639,-1.458998 0.33619,-1.466454 z m -136.01509,1.423678 c -2.83855,0.154182 -7.57094,1.198046 -10.20492,2.403923 -3.09069,1.414954 -6.4465,4.090888 -5.13018,4.090888 0.45011,0 2.31208,-0.773456 4.13788,-1.718293 5.20121,-2.691641 6.68751,-2.995274 10.06636,-2.057494 4.09788,1.137348 4.93062,1.532806 7.83896,3.720358 3.87648,2.915751 4.20707,2.555691 0.98807,-1.075439 -1.28307,-1.447328 -5.32216,-3.586055 -6.92378,-3.666135 -0.57631,-0.0288 -0.29459,-0.240831 0.71395,-0.537418 1.61751,-0.475697 1.63398,-0.50409 0.57296,-0.991092 -0.37741,-0.173229 -1.11311,-0.220693 -2.0593,-0.169298 z m 82.9173,0 c -0.94619,-0.05139 -1.68189,-0.0039 -2.0593,0.169298 -1.06103,0.487002 -1.04457,0.515395 0.57296,0.991092 1.00854,0.296587 1.28965,0.508598 0.71335,0.537418 -2.55577,0.127729 -6.34592,2.664827 -8.76619,5.867623 -1.05133,1.391217 0.0853,0.939251 2.83108,-1.126049 2.90833,-2.187552 3.74107,-2.58301 7.83897,-3.720358 3.37883,-0.93778 4.86515,-0.634147 10.06635,2.057494 1.82579,0.944837 3.68776,1.718293 4.13788,1.718293 1.31631,0 -2.03949,-2.675934 -5.13018,-4.090888 -2.63397,-1.205877 -7.36637,-2.249741 -10.20492,-2.403923 z m -89.5802,8.063085 c -1.90396,0.0081 -3.33523,0.599645 -6.33214,2.061711 -3.50002,1.707514 -4.61017,2.677732 -9.23733,8.075738 -2.50788,2.92567 -6.47025,9.210401 -7.69557,12.205787 -0.61561,1.504907 -1.38275,2.736496 -1.70444,2.736496 -1.19819,0 0.52224,2.93429 3.81615,6.509272 2.79031,3.028406 6.25498,5.862798 7.16599,5.862798 0.5882,0 0.13739,-1.495748 -1.40621,-4.667464 -2.34441,-4.817246 -2.4107,-5.325127 -1.04953,-8.011272 4.57387,-9.026088 14.72693,-17.366812 21.00993,-17.259449 1.86263,0.03184 2.12865,0.121231 1.20016,0.403667 -6.22522,1.893626 -10.1804,8.692033 -11.42979,19.646503 -0.72664,6.371104 -0.23289,8.876776 2.65335,13.474025 l 2.49611,3.97641 -1.60322,0.1446 c -2.51228,0.22683 -1.35568,1.20166 2.67926,2.25812 4.7297,1.23837 7.78086,1.19738 13.88793,-0.18797 5.13798,-1.16553 7.7594,-2.11777 5.91522,-2.14847 -0.69408,-0.0115 -0.57376,-0.26289 0.59526,-1.24655 1.61089,-1.35547 1.93268,-2.24804 0.6314,-1.75143 -0.35425,0.13519 -0.47354,0.0981 -0.3404,-0.16147 a 3.7566946,3.7566946 0 0 1 -1.04773,0.14882 3.7566946,3.7566946 0 0 1 -3.75711,-3.75651 3.7566946,3.7566946 0 0 1 3.75711,-3.757109 3.7566946,3.7566946 0 0 1 3.71675,3.211859 c 0.39245,-0.891431 0.68186,-1.117839 0.9218,-0.729612 0.70644,1.143102 1.05411,-2.008836 0.77179,-6.994274 -0.37429,-6.609365 -2.03553,-10.927845 -6.61531,-17.198598 l -1.81047,-2.479234 2.33042,1.170632 c 3.97631,1.997173 4.46025,1.367316 1.455,-1.893014 -1.05965,-1.149586 -3.43888,-3.003268 -5.28682,-4.119807 -1.84794,-1.116539 -3.64121,-2.312111 -3.98545,-2.656366 -0.93385,-0.933845 -2.49199,-1.426064 -7.32444,-2.314153 -1.92267,-0.353341 -3.2353,-0.558522 -4.37767,-0.553686 z m 96.2431,0 c -1.14237,-0.0048 -2.45501,0.200346 -4.37767,0.553686 -4.83249,0.888089 -6.39057,1.380308 -7.32444,2.314153 -0.34423,0.344255 -2.13812,1.539827 -3.98605,2.656366 -1.84793,1.116538 -4.22655,2.970221 -5.28622,4.119807 -3.00525,3.26033 -2.52129,3.890188 1.455,1.893014 l 2.33042,-1.170632 -1.81047,2.479234 c -4.57976,6.270752 -6.24102,10.589836 -6.61531,17.199201 -0.28232,4.985438 0.0653,8.136773 0.77179,6.993671 0.25625,-0.414599 0.56878,-0.128054 1.00314,0.920602 0.34696,0.83761 1.18207,2.17978 1.85566,2.98231 0.91163,1.08616 1.0115,1.37767 0.39162,1.14111 -1.30129,-0.4966 -0.97947,0.39596 0.6314,1.75143 1.16903,0.98366 1.28874,1.23575 0.59466,1.24655 -1.80135,0.03 0.73967,0.97903 5.68567,2.12376 6.06029,1.40261 9.15916,1.45499 13.92468,0.23618 4.20221,-1.07474 5.4309,-2.05064 2.87266,-2.28162 l -1.60382,-0.1446 1.24715,-1.9864 a 3.7566946,3.7566946 0 0 1 -0.94711,0.1217 3.7566946,3.7566946 0 0 1 -3.75651,-3.7565 3.7566946,3.7566946 0 0 1 3.75651,-3.75651 3.7566946,3.7566946 0 0 1 3.64685,2.85458 c 1.58462,-3.20292 1.78439,-5.82594 1.20257,-10.927305 -1.24937,-10.954469 -5.20395,-17.752878 -11.42918,-19.646503 -0.9285,-0.282465 -0.6625,-0.371897 1.20015,-0.403667 6.28299,-0.1074 16.43607,8.233361 21.00993,17.259449 1.36119,2.686146 1.29488,3.194629 -1.04953,8.011875 -1.54353,3.171716 -1.99441,4.667471 -1.40621,4.667471 0.91101,0 4.37568,-2.835002 7.16599,-5.863408 3.29389,-3.574982 5.01373,-6.509272 3.81555,-6.509272 -0.3217,0 -1.08823,-1.230987 -1.70384,-2.735894 -1.22533,-2.995386 -5.1883,-9.280718 -7.69617,-12.206389 -4.62717,-5.398006 -5.73669,-6.368224 -9.23673,-8.075738 -2.9969,-1.462066 -4.42819,-2.053652 -6.33214,-2.061711 z m -51.01078,27.458954 c -0.20122,0 -0.49177,1.445826 -0.64526,3.212462 -0.6845,7.876156 -1.4089,12.937726 -2.22981,15.583936 -0.48714,1.57036 -0.88868,3.15184 -0.89168,3.5143 -0.0106,1.14158 1.73836,-1.49012 2.5196,-3.79145 1.39049,-4.0963 2.36184,-18.519248 1.24715,-18.519248 z m -103.94831,2.23824 c 3.08811,-0.03728 6.16304,0.248309 7.85884,0.872401 1.17777,0.433432 3.59861,0.957922 5.38021,1.165813 1.78158,0.2079 3.34953,0.487712 3.48358,0.621767 0.13411,0.134111 0.57001,1.493148 0.9688,3.020268 0.39878,1.527138 1.54527,4.385329 2.54792,6.351419 3.06882,6.01763 5.30973,18.54009 6.0062,33.56215 l 0.30967,6.67013 -2.65094,1.29776 c -1.45774,0.71378 -4.00436,1.61699 -5.65976,2.00689 -3.87111,0.91178 -9.54802,1.25573 -12.3299,0.74768 -3.00778,-0.5493 -8.95059,-3.37197 -12.63536,-6.00137 -5.54209,-3.95475 -9.18042,-9.20812 -11.87503,-17.14679 -1.04261,-3.07158 -1.27972,-4.63439 -1.29052,-8.52037 -0.0181,-6.2011 0.70933,-9.51057 3.25765,-14.81395 2.1263,-4.425102 4.49549,-7.124108 5.81038,-6.619529 0.47298,0.181502 0.61375,0.04363 0.43379,-0.425356 -0.19178,-0.499749 0.49333,-0.983362 2.4455,-1.726126 1.74956,-0.665674 4.85086,-1.025512 7.93897,-1.062787 z m 213.67508,0 c 3.08811,0.03728 6.18941,0.397113 7.93897,1.062787 1.95216,0.742764 2.63726,1.226377 2.4455,1.726126 -0.17998,0.469007 -0.0392,0.606858 0.43379,0.425356 1.31491,-0.504579 3.68408,2.194427 5.81038,6.619529 2.54831,5.30338 3.27565,8.61285 3.25765,14.81395 -0.0148,5.08414 -1.08977,9.26473 -3.81374,14.82781 -3.08128,6.29278 -10.30484,12.6512 -17.4655,15.37367 -1.07154,0.40741 -1.10101,0.35957 -0.74829,-1.20438 0.20191,-0.89564 0.19191,-1.52018 -0.0217,-1.38813 -0.21361,0.13202 -0.52903,0.88152 -0.70129,1.66588 -0.17227,0.78434 -0.69638,1.63099 -1.16461,1.88157 -0.99631,0.53326 -7.70625,0.98186 -9.77837,0.6537 -3.80445,-0.60251 -7.6862,-1.71564 -10.09226,-2.89375 l -2.65576,-1.30017 0.30967,-6.67013 c 0.69648,-15.02206 2.93738,-27.54452 6.0062,-33.56215 1.00265,-1.96609 2.14914,-4.824281 2.54792,-6.351419 0.39881,-1.52712 0.83475,-2.886212 0.9688,-3.020268 0.13412,-0.13412 1.702,-0.413867 3.48358,-0.621767 1.78158,-0.207891 4.20245,-0.732381 5.38021,-1.165813 1.6958,-0.624092 4.77073,-0.909677 7.85884,-0.872401 z M 508.43465,101.0244 c -0.6323,-0.009 -1.64097,0.75979 -3.14197,2.39067 -1.29295,1.40483 -2.60657,2.49762 -2.91965,2.42862 -0.7265,-0.15985 -1.22018,0.46843 -2.90158,3.69445 -1.12562,2.15972 -1.40566,3.38667 -1.60201,7.01958 -0.13081,2.42139 -0.12599,4.40222 0.0108,4.40177 0.13678,-4.5e-4 0.53048,-1.23218 0.87481,-2.7371 0.75479,-3.29896 2.92706,-7.75266 5.05126,-10.35735 1.32083,-1.61961 2.00864,-2.01102 4.51021,-2.566 2.62745,-0.5829 3.27453,-0.56545 5.88871,0.16027 5.69675,1.58148 8.6271,3.34664 11.7485,7.07621 5.57949,6.66654 7.52242,8.18425 5.02716,3.92641 -2.08914,-3.56484 -5.8494,-7.75482 -8.19202,-9.12768 -5.36881,-3.14633 -12.22615,-4.68679 -14.90734,-3.34923 l -1.50803,0.75251 1.54779,-1.76288 c 1.39152,-1.58487 1.45558,-1.78017 0.63502,-1.9382 -0.0388,-0.007 -0.0795,-0.0115 -0.1217,-0.0121 z m 218.70344,0 c -0.0422,5.9e-4 -0.0829,0.005 -0.1217,0.0121 -0.82054,0.15803 -0.75651,0.35333 0.63502,1.9382 l 1.54779,1.76288 -1.50863,-0.75251 c -1.89488,-0.94529 -5.37397,-0.60205 -9.65847,0.95313 -4.61992,1.67695 -7.21249,3.4012 -9.81211,6.52494 -2.51109,3.01738 -5.04076,7.01322 -4.67289,7.38107 0.28031,0.28032 2.40647,-1.92909 6.07187,-6.30864 3.12141,-3.72957 6.05173,-5.49473 11.7485,-7.07621 2.61416,-0.72572 3.26127,-0.74317 5.88871,-0.16027 2.50157,0.55498 3.18939,0.94639 4.51021,2.566 2.12421,2.60469 4.29645,7.05839 5.05126,10.35735 0.34431,1.50492 0.73738,2.73665 0.87421,2.7371 0.13683,4.5e-4 0.14165,-1.98038 0.0108,-4.40177 -0.19634,-3.63291 -0.47637,-4.85986 -1.60201,-7.01958 -1.68137,-3.22602 -2.17449,-3.8543 -2.90098,-3.69445 -0.3131,0.0689 -1.62668,-1.02379 -2.91965,-2.42862 -1.50099,-1.63088 -2.50966,-2.39959 -3.14197,-2.39067 z m -106.40947,10.50737 c -2.59753,-0.18698 -8.56241,1.55657 -10.37363,3.03232 l -1.37186,1.11761 1.90326,-0.48319 c 1.04688,-0.26583 2.96944,-0.82469 4.27223,-1.24233 1.3028,-0.41766 3.50384,-0.88685 4.8916,-1.0423 3.07997,-0.34503 3.4899,-1.17972 0.6784,-1.38211 z m -104.99243,3.64204 c -0.51139,0.0158 -0.80294,4.2432 -0.28377,6.17127 0.70106,2.60359 2.97685,4.84822 4.91569,4.84822 h 1.48755 l -1.68034,1.78456 c -2.65794,2.82197 -4.79452,6.59475 -5.05788,8.93127 -0.31646,2.80773 0.56846,4.78848 2.89073,6.47072 1.04177,0.75466 2.06725,1.37186 2.27921,1.37186 0.21198,0 -0.68436,-1.41338 -1.99182,-3.14077 -2.51194,-3.31874 -2.55478,-3.59393 -1.02302,-6.6141 2.14769,-4.23462 5.36824,-7.55635 8.61978,-8.8909 l 2.67022,-1.09593 -1.66527,-0.27774 -1.66588,-0.27715 1.40982,-0.58501 c 1.79159,-0.74372 3.25204,-0.0487 4.98016,2.37018 0.67304,0.94204 1.68358,2.0596 2.24547,2.48345 1.01252,0.7638 1.01757,0.75651 0.52115,-0.86095 -0.27546,-0.89757 -1.32984,-2.49421 -2.34247,-3.54805 -2.97296,-3.09396 -4.97762,-3.1496 -8.38481,-0.23316 -2.01464,1.72446 -2.02585,1.72738 -3.3185,0.88204 -0.71332,-0.46648 -1.57202,-1.1226 -1.90868,-1.45802 -0.9526,-0.949 -2.00192,-3.7822 -2.03882,-5.50552 -0.0184,-0.85901 -0.20314,-1.99013 -0.41029,-2.51358 -0.0865,-0.21854 -0.16991,-0.31511 -0.24823,-0.31269 z m 204.09975,0 c -0.0783,-0.002 -0.16173,0.0941 -0.24822,0.31269 -0.20716,0.52345 -0.39129,1.65457 -0.40969,2.51358 -0.0369,1.72332 -1.08623,4.55652 -2.03882,5.50552 -0.33668,0.33542 -1.19537,0.99154 -1.90868,1.45802 -1.29264,0.84534 -1.30386,0.84242 -3.3185,-0.88204 -3.4072,-2.91644 -5.41185,-2.8608 -8.38481,0.23316 -1.01264,1.05384 -2.067,2.65048 -2.34247,3.54805 -0.49642,1.61746 -0.49139,1.62475 0.52115,0.86095 0.56187,-0.42385 1.57182,-1.54141 2.24487,-2.48345 1.72813,-2.41887 3.18917,-3.1139 4.98076,-2.37018 l 1.40922,0.58501 -1.66528,0.27715 -1.66527,0.27774 2.67022,1.09593 c 3.25151,1.33455 6.47147,4.65628 8.61918,8.8909 1.53174,3.02017 1.48953,3.29536 -1.02242,6.6141 -1.30745,1.72739 -2.20377,3.14077 -1.99182,3.14077 0.96303,0 4.23471,-2.8919 4.79098,-4.23488 1.33487,-3.22264 -0.47674,-8.07749 -4.67892,-12.53897 l -1.68034,-1.78456 h 1.48755 c 1.93883,0 4.21462,-2.24463 4.91569,-4.84822 0.51918,-1.92807 0.22698,-6.15549 -0.28438,-6.17127 z m -111.33119,0.32474 c -0.18872,-0.004 -0.54595,0.1363 -1.06821,0.40909 -4.02085,2.10021 -6.96005,8.68921 -5.53384,12.40581 0.48896,1.27424 2.99181,2.24854 6.31889,2.46056 1.72742,0.1101 4.21136,0.49739 5.51998,0.86035 2.93005,0.81269 8.75118,0.93043 10.55678,0.21328 0.73678,-0.29265 2.69986,-0.60385 4.36201,-0.69105 4.27728,-0.22424 5.3049,-1.01401 5.3049,-4.07703 0,-2.53607 -1.83309,-6.76115 -3.15342,-7.26781 -0.98193,-0.3768 -0.7995,1.13907 0.36692,3.0504 2.62565,4.3025 1.95517,6.6623 -1.89242,6.6623 -1.25274,0 -4.03137,0.44303 -6.17489,0.98507 -3.60712,0.91218 -4.08296,0.93369 -6.3954,0.28437 -3.60004,-1.0109 -8.70007,-1.80082 -9.54159,-1.4779 -0.9164,0.35165 -3.45471,-0.93876 -3.84447,-1.95447 -0.88399,-2.30365 0.19693,-5.2292 3.25464,-8.81137 1.78353,-2.08948 2.40242,-3.04139 1.92012,-3.0516 z m -45.3968,1.89121 -0.97422,1.12363 c -0.53602,0.61789 -0.97483,1.74175 -0.97483,2.49792 0,0.75619 0.19995,1.37487 0.44404,1.37487 0.47979,0 0.74791,-0.73781 1.20919,-3.33055 z m 109.35624,0 0.29642,1.66587 c 0.16297,0.91602 0.40183,2.03988 0.53079,2.49791 0.37339,1.32617 1.12244,0.96435 1.12244,-0.54223 0,-0.75617 -0.43881,-1.88003 -0.97483,-2.49792 z m -117.67237,0.5814 c -0.20049,-0.008 -0.54677,0.26474 -1.02363,0.84649 -0.6436,0.78517 -1.17151,1.69478 -1.17244,2.02195 -0.004,1.08722 1.44142,0.61468 1.9129,-0.62538 0.54661,-1.43772 0.61733,-2.22991 0.28317,-2.24306 z m 125.9885,0 c -0.33416,0.0131 -0.26285,0.80534 0.28377,2.24306 0.47148,1.24006 1.9179,1.7126 1.9129,0.62538 -10e-4,-0.32717 -0.52945,-1.23678 -1.17305,-2.02195 -0.47685,-0.58175 -0.82313,-0.85439 -1.02362,-0.84649 z m -109.00619,0.5085 -1.5008,0.776 c -0.94592,0.48917 -1.5008,1.13781 -1.5008,1.75504 0,1.36465 0.99692,0.90071 2.09124,-0.97301 z m 92.10642,0.0422 0.57116,1.09954 c 0.31415,0.60476 0.78266,1.36704 1.0417,1.69419 0.69839,0.88203 1.30619,0.7217 1.30619,-0.34462 0,-0.56721 -0.57792,-1.23845 -1.45922,-1.69419 z m -70.51148,22.42276 c -1.09222,0 -3.15632,0.85784 -3.93243,1.63395 -1.03625,1.03624 -0.83832,1.85055 0.37234,1.53393 0.78738,-0.20589 1.94712,0.41129 4.64035,2.4696 5.20251,3.97606 9.29617,6.23712 13.09687,7.23406 3.41822,0.8966 7.4376,1.19306 8.03778,0.59285 0.18462,-0.18462 -0.93927,-0.59556 -2.49731,-0.91337 -4.16074,-0.84871 -9.99332,-3.53772 -14.20303,-6.54783 -6.13245,-4.38495 -6.12391,-4.37627 -5.40371,-5.24405 0.53044,-0.63911 0.51339,-0.75914 -0.11086,-0.75914 z m 48.8346,0 c -0.62435,0 -0.64184,0.12006 -0.11146,0.75914 0.72019,0.86778 0.72873,0.8591 -5.40371,5.24405 -4.2097,3.01011 -10.0423,5.69912 -14.20303,6.54783 -1.55803,0.31781 -2.68134,0.72875 -2.49671,0.91337 0.61266,0.61267 4.26037,0.34777 7.8486,-0.56996 3.97728,-1.01721 7.98827,-3.20809 13.28605,-7.25695 2.69323,-2.05831 3.85299,-2.67549 4.64035,-2.4696 1.21068,0.31662 1.40857,-0.49769 0.37234,-1.53393 -0.77611,-0.77611 -2.84024,-1.63395 -3.93243,-1.63395 z m -52.42843,54.24252 3.46912,1.85988 c 4.34539,2.32953 8.74675,3.91726 14.54886,5.24766 6.31387,1.44775 6.4377,1.49013 5.67663,1.9605 -0.35928,0.22204 1.51674,0.39282 4.31622,0.39282 2.79949,0 4.67611,-0.17078 4.31682,-0.39282 -0.76105,-0.47037 -0.63725,-0.51275 5.67663,-1.9605 5.64229,-1.29376 10.24561,-2.93016 14.10483,-5.01389 1.64181,-0.88647 3.10111,-1.61226 3.24319,-1.61226 0.142,0 0.25847,2.7411 0.25847,6.09115 0,4.23598 -0.18098,6.27389 -0.59466,6.69062 -0.47649,0.48006 -0.45025,0.54357 0.13315,0.32172 0.60632,-0.23057 0.82199,0.58117 1.28691,4.84942 0.82864,7.6072 3.50817,16.96944 6.14477,21.46843 0.74654,1.2752 1.0601,2.23644 0.76034,2.33644 -0.28013,0.0934 -2.72284,1.84024 -5.42841,3.88243 -9.0328,6.81804 -14.58657,9.41242 -24.60076,11.49063 -4.4065,0.91447 -6.82624,1.14407 -7.27985,0.69045 -0.12871,-0.12871 -1.95959,-0.53555 -4.06859,-0.90373 -2.109,-0.36818 -5.73343,-1.45876 -8.05405,-2.4232 -2.32062,-0.96446 -4.89411,-2.01101 -5.71941,-2.3262 -0.82528,-0.31518 -2.39911,-1.70927 -3.49684,-3.09799 -1.09769,-1.38872 -4.04393,-4.5468 -6.54723,-7.01777 l -4.55118,-4.49275 0.98145,-1.32788 c 1.67865,-2.2705 3.98622,-10.17018 4.88255,-16.71661 0.78486,-5.73242 1.34924,-17.17945 0.9206,-18.67409 z m -15.7683,14.89409 c 1.43947,-0.007 4.22341,0.13954 6.18634,0.32474 l 3.56913,0.33619 -3.80711,0.002 c -2.09378,0.001 -4.87713,-0.14466 -6.18574,-0.32414 l -2.37982,-0.32655 z m -42.38858,11.73042 c 0.10468,-6.2e-4 0.21237,0.0461 0.31691,0.15062 0.16248,0.16248 0.0926,0.89725 -0.15545,1.63335 l -0.45066,1.33872 -0.35968,-1.11881 c -0.29236,-0.90906 0.14451,-2.00088 0.64888,-2.00388 z m 120.86012,9.07045 c 0.22559,0 0.53401,0.4727 0.68503,1.05013 0.38664,1.47854 0.0917,1.55412 -0.55188,0.14159 -0.29864,-0.65542 -0.35872,-1.19172 -0.13315,-1.19172 z m 1.63154,4.42647 c 0.1075,-0.009 0.28147,0.10515 0.55549,0.33257 0.39258,0.32582 0.71395,0.67289 0.71395,0.77179 0,0.0989 -0.32137,0.17954 -0.71395,0.17954 -0.39259,0 -0.71395,-0.34717 -0.71395,-0.77179 0,-0.33592 0.0366,-0.50244 0.15846,-0.51211 z m -154.28069,3.18776 c 0.26165,0 0.34371,0.21364 0.18195,0.47536 -0.16174,0.26173 -0.50826,0.47597 -0.76998,0.47597 -0.26165,0 -0.34372,-0.21424 -0.18195,-0.47597 0.16174,-0.26172 0.50825,-0.47536 0.76998,-0.47536 z m 235.91408,0 c 0.26172,0 0.60822,0.21364 0.76998,0.47536 0.16175,0.26173 0.0798,0.47597 -0.18195,0.47597 -0.26172,0 -0.60822,-0.21424 -0.76998,-0.47597 -0.16176,-0.26172 -0.0798,-0.47536 0.18195,-0.47536 z m -72.01047,1.57671 c -0.421,0.0126 -1.65793,0.85511 -5.26091,3.24198 -2.61724,1.73382 -6.283,3.9347 -8.14684,4.89099 -1.86385,0.9563 -3.74569,2.13231 -4.18126,2.61359 -0.75159,0.8305 -0.72912,0.86312 0.4356,0.64045 3.8344,-0.73299 17.36489,-9.04559 17.36489,-10.66824 0,-0.4355 0.0411,-0.72635 -0.21148,-0.71877 z m -27.62584,16.96724 -1.42789,0.28498 c -0.78517,0.15666 -2.9264,0.79106 -4.75845,1.40982 -1.83206,0.61877 -4.60075,1.47417 -6.1526,1.90145 -2.04237,0.56233 -2.6336,0.8958 -2.14124,1.20738 0.87211,0.55192 1.11049,0.53906 4.24874,-0.23075 3.76652,-0.9239 7.87875,-2.56169 9.14094,-3.64083 z" /></g></g></svg>
