<?xml version="1.0" encoding="UTF-8"?>
<svg id="Layer_1" data-name="Layer 1" xmlns="http://www.w3.org/2000/svg" viewBox="0 0 1296 1728">
  <defs>
    <style>
      .cls-1, .cls-2, .cls-3, .cls-4 {
        stroke-linecap: round;
        stroke-linejoin: round;
        stroke-width: 12px;
      }

      .cls-1, .cls-2, .cls-4 {
        fill: none;
      }

      .cls-1, .cls-3 {
        stroke: #502e28;
      }

      .cls-5 {
        fill: #d2714b;
      }

      .cls-6 {
        fill: #4167b0;
      }

      .cls-2 {
        stroke: #d2714b;
      }

      .cls-3, .cls-7 {
        fill: #502e28;
      }

      .cls-8 {
        fill: #fcfce7;
      }

      .cls-9 {
        fill: #542f2a;
      }

      .cls-4 {
        stroke: #474299;
      }

      .cls-10 {
        fill: #94c3e9;
      }

      .cls-11 {
        fill: #f8b487;
      }
    </style>
  </defs>
  <rect class="cls-10" width="1296" height="1728"/>
  <path id="tees" class="cls-6" d="M83.04,1728c14.99-176.5,51.73-307.58,117.91-388.52s265.76-195.38,472.92-240.6c193.94-42.34,335.4,78.48,430.58,128.12,84.46,44.05,128.27,100.76,191.55,187.25v313.74H83.04Z"/>
  <path id="light" class="cls-11" d="M869.07,1124.6c6.94,43.38-62.83,133.49-186.03,143.1-123.21,9.62-158.48-32.86-169.05-81.39,3.26-21.46,5.61-43.66,7.42-66.3,131.37,66.48,248.08-18.97,336.84-124.41,2.81,58.79,7.46,107.94,10.82,129Z"/>
  <path id="dark" class="cls-5" d="M858.25,995.6c-88.76,105.44-205.47,190.89-336.84,124.41,1.81-22.58,3.09-45.61,4.21-68.76,72.51,16.57,139.75,21.84,214.44-30.48,74.68-52.32,98.64-133.19,109.11-226.73l10.07,4.1c-4.87,62.03-3.96,135.16-.99,197.46Z"/>
  <path id="face" class="cls-11" d="M969.78,723.01c-14.3,71.67-96.61,92.81-110.54,75.13l-10.07-4.1c-10.47,93.54-34.43,174.41-109.11,226.73-74.69,52.32-141.93,47.05-214.44,30.48-49.16-26.05-81.61-51.81-110.01-130.74-11.83-32.87-11.52-92.58-7.24-154.9-22.3-2.63-40.3-19.94-49.47-43.67-19.28-49.92-5.42-104.92,16.94-118.34,17.77-10.66,34.27-7.96,48.21.54,2.15-21.66,3.49-38.92,3.19-49.28-.01-.27-.02-.55-.02-.83.59,1.94,1.19,3.88,1.8,5.82,12.77-85.46,28.99-142.41,50.99-151.9,20.35,13.15,46.51,16.1,70.65,12.07,24.15-4.02,126.74-31.5,160.1-39.8,33.37-8.29,118.96,3.58,117.17,97.49-1.79,93.92-4.47,191.41,11.18,191.41s42.51-71.04,69.88-60.82c.53-.77,1.05-1.55,1.57-2.33,50.3,5.35,71.77,54.09,59.22,117.04Z"/>
  <path id="hair" class="cls-9" d="M910.56,605.97c-.52.78-1.04,1.56-1.57,2.33-27.37-10.22-54.23,60.82-69.88,60.82s-12.97-97.49-11.18-191.41c1.79-93.91-83.8-105.78-117.17-97.49-33.36,8.3-135.95,35.78-160.1,39.8-24.14,4.03-50.3,1.08-70.65-12.07-22,9.49-38.22,66.44-50.99,151.9-.61-1.94-1.21-3.88-1.8-5.82-19.59-64.26-25.79-122.75,7.17-164.42-63.98-38.82-94.81-78.7-90.78-147.13,4.02-68.42,112.69-133.71,147.58-67.08,37.76,72.15,43.47,74.63,75.67,79.1,32.19,4.47,43.13,2.74,81.14-18.72,38.01-21.47,97.25-25.82,148.63,14.31,48.18,37.63,54.11,87.2,52.32,135.95,18.64-24.31,57.24-37.57,83.5-6.89,31.23,36.47,33.08,144.1-21.89,226.82Z"/>
  <g id="ear_strips">
    <g>
      <path class="cls-2" d="M865.94,727.18c9.13-34.11,29.39-57.51,62.39-68.65"/>
      <path class="cls-2" d="M904.85,749.99c8.51-27.38,3.53-50.7-11.52-70.99"/>
    </g>
    <g>
      <path id="_Path_" data-name="&amp;lt;Path&amp;gt;" class="cls-2" d="M390.01,639.08c11.73,9.96,22.5,21.14,26.24,41.29"/>
      <path class="cls-2" d="M398.5,717.19c6.78-17.29,5.54-49.17,0-70.32"/>
    </g>
  </g>
  <g id="mouth">
    <path id="mouth-2" data-name="mouth" class="cls-3" d="M460.9,816.41c30.74,32.98,87.53,39.79,149.47,14.15s101.38-120.98,137.64-90.77c48.75,40.62-9.84,191.85-112.02,210.78-110.64,20.5-137.52-75.25-136.62-107.03"/>
    <path id="teeth" class="cls-8" d="M542.2,858.43c60.97,2.43,120.56-32.14,159.88-90.11.8,21,5.63,42.04-5.07,60.07s-46.1,38.31-74.57,47.4-65.29,1.58-80.24-17.37Z"/>
  </g>
  <g id="leye">
    <path class="cls-1" d="M470.5,642.39c23.25-33.15,46.51-34.72,69.76-4.7"/>
    <path class="cls-7" d="M510.08,551.7c-26.53,7.38-35.48,26.39-48.75,26.39s-5.62-30.42,11.5-47.7c18.83-19.01,62.47-38.44,83.56-22.71s23.59,33.22,6.29,38.88-26.08-2.24-52.61,5.14Z"/>
  </g>
  <g id="reye">
    <path class="cls-1" d="M658.39,628.97c20.57-29.29,45.61-33.09,75.13-11.4"/>
    <path class="cls-7" d="M656.01,540.46c14.31,6.26,40.84-6.56,57.24,0s40.84,34.58,56.35,29.52,3.28-38.91-19.68-58.06-53.07-32.87-83.48-19.45-24.75,41.74-10.43,48Z"/>
  </g>
  <path class="cls-4" d="M1023.7,1467.98c15.16,86.69,17,175.3-6.56,260.02"/>
  <path class="cls-4" d="M291.17,1457.24c-21.46,95.61-32.08,186.89-24.15,270.76"/>
</svg>